<?xml version="1.0" encoding="UTF-8"?>
<svg width="1440px" height="1024px" viewBox="0 0 1440 1024" version="1.1" xmlns="http://www.w3.org/2000/svg" xmlns:xlink="http://www.w3.org/1999/xlink">
    <!-- Generator: Sketch 62 (91390) - https://sketch.com -->
    <title>bg lines</title>
    <desc>Created with Sketch.</desc>
    <defs>
        <radialGradient cx="-0.163849809%" cy="0.298933001%" fx="-0.163849809%" fy="0.298933001%" r="185.407729%" gradientTransform="translate(-0.001638,0.002989),scale(0.711111,1.000000),translate(0.001638,-0.002989)" id="radialGradient-1">
            <stop stop-color="#42E8E0" offset="0%"></stop>
            <stop stop-color="#42E8E0" offset="51.61%"></stop>
            <stop stop-color="#42E8E0" offset="93.17%"></stop>
            <stop stop-color="#42E8E0" offset="100%"></stop>
        </radialGradient>
    </defs>
    <g id="Page-1" stroke="none" stroke-width="1" fill="none" fill-rule="evenodd" opacity="0.102748326">
        <g id="Desktop-HD" fill="url(#radialGradient-1)" fill-rule="nonzero">
            <g id="bg-lines">
                <path d="M1430.86609,0.836038182 L1393.77917,21.1382947 L1356.69058,41.4403237 L1319.60078,21.1382947 L1282.51266,0.836038182 L1284.0393,0 L1281.63594,0 L1281.31051,0.177720691 L1280.98531,0 L1278.58243,0 L1280.10883,0.835583072 L1243.02239,21.1382947 L1205.93379,41.4403237 L1168.84496,21.137157 L1131.75804,0.833762629 L1133.2806,0 L1130.87868,0 L1130.55756,0.176127804 L1130.23668,0 L1127.83356,0 L1129.35612,0.833762629 L1092.26777,21.1355641 L1055.17917,41.4378206 L1018.08937,21.1355641 L981.001255,0.833762629 L982.523814,0 L980.120457,0 L979.798857,0.176127804 L979.477977,0 L977.07486,0 L978.597178,0.833762629 L941.512182,21.1355641 L904.424785,41.4378206 L867.334988,21.1355641 L830.246631,0.831487076 L831.76511,0 L829.361992,0 L829.044953,0.173852251 L828.728153,0 L826.324796,0 L827.843514,0.831487076 L790.756357,21.1337436 L753.667761,41.4360002 L716.578684,21.1337436 L679.491047,0.831487076 L681.009525,0 L678.606168,0 L678.289369,0.173852251 L677.972569,0 L675.569212,0 L677.08769,0.831487076 L640.000773,21.1337436 L602.912177,41.4360002 L565.82334,21.1326059 L528.735223,0.829439078 L530.249621,0 L527.846504,0 L527.534505,0.171576698 L527.222505,0 L524.819388,0 L526.333786,0.829439078 L489.245189,21.1314681 L452.156352,41.4334971 L415.067276,21.1314681 L377.979639,0.829439078 L379.494037,0 L377.09092,0 L376.77892,0.171576698 L376.466921,0 L374.063804,0 L375.578202,0.829439078 L338.490085,21.1314681 L301.401968,41.4334971 L264.311692,21.1305579 L227.224055,0.827163525 L228.734373,0 L226.331016,0 L226.022376,0.169301145 L225.713497,0 L223.310379,0 L224.820698,0.827163525 L187.734261,21.1294201 L150.646144,41.4314491 L113.556348,21.1282823 L76.4682308,0.824887972 L77.974469,0 L75.5713518,0 L75.2665522,0.167253147 L74.9619925,0 L72.5586353,0 L74.0651136,0.824887972 L36.9786769,21.1271445 L0,41.3690989 L0,42.8052004 L36.9791569,63.0482926 L74.0672736,83.3514594 L36.9808369,103.653716 L0,123.896808 L0,125.330407 L36.9813169,145.574864 L74.0689536,165.878031 L36.9839569,186.181425 L0,206.424745 L0,207.85584 L36.9839569,228.100298 L74.0715936,248.402327 L36.9846769,268.704583 L0,288.949723 L0,290.379453 L36.9861168,310.625731 L74.0744736,330.929353 L36.9873168,351.23161 L0,371.47766 L0,372.904887 L36.9877968,393.151165 L74.0761536,413.453421 L36.9889968,433.75545 L0,454.003094 L0,455.427818 L36.9909168,475.677281 L74.0790336,495.980676 L36.9921168,516.282705 L0,536.531031 L0,537.953024 L36.9925968,558.202032 L74.0807136,578.504289 L36.9945168,598.807456 L0,619.059877 L0,620.479367 L36.9942768,640.729514 L74.0819136,661.03177 L36.9954768,681.334027 L0,701.586449 L0,703.003436 L36.9966768,723.255858 L74.0843136,743.559252 L36.9978768,763.861509 L0,784.113931 L0,785.528414 L36.9990768,805.780836 L74.0879136,826.081727 L37.0007568,846.383984 L0,866.638226 L0,868.049069 L37.0012368,888.304449 L74.0888736,908.607616 L37.0031568,928.910555 L0,949.165936 L0,950.575186 L37.0036368,970.830566 L74.0912736,991.132822 L37.0043568,1011.43485 L14.0522236,1024 L16.4546208,1024 L38.2050754,1012.09271 L75.2936722,991.790457 L112.382749,1012.0934 L134.130084,1024 L136.532721,1024 L113.582747,1011.43553 L76.4951108,991.132822 L113.581547,970.830566 L150.669664,950.528309 L187.759461,970.831704 L224.847578,991.135553 L187.760661,1011.43781 L164.811888,1024 L167.214525,1024 L188.96066,1012.09453 L226.049256,991.792278 L263.138573,1012.09453 L284.884948,1024 L287.287585,1024 L264.338572,1011.43781 L227.250935,991.135553 L264.337372,970.833524 L301.425488,950.531267 L338.515285,970.833524 L375.603402,991.135553 L338.516245,1011.43781 L315.567472,1024 L317.970109,1024 L339.716244,1012.09453 L376.80508,991.792278 L413.894157,1012.09567 L435.638132,1024 L438.040769,1024 L415.094876,1011.43781 L378.006519,991.135553 L415.092956,970.833524 L452.181072,950.531267 L489.270869,970.834434 L526.358986,991.137829 L489.272069,1011.44009 L466.328096,1024 L468.730733,1024 L490.472788,1012.09772 L527.561385,991.795691 L564.650701,1012.09886 L586.389876,1024 L588.792273,1024 L565.8507,1011.44122 L528.763063,991.137829 L565.8495,970.835572 L602.937377,950.533543 L640.026693,970.83671 L677.11433,991.140104 L640.027893,1011.44236 L617.08752,1024 L619.490157,1024 L641.227892,1012.1 L678.315769,991.797739 L715.405085,1012.1 L737.14354,1024 L739.546177,1024 L716.605084,1011.44236 L679.517447,991.140104 L716.603164,970.83762 L753.691281,950.535363 L790.781077,970.83762 L827.869194,991.139877 L790.782277,1011.44213 L767.841664,1024 L770.244301,1024 L791.982276,1012.09977 L829.070873,991.797511 L866.160669,1012.10091 L887.896004,1024 L890.298641,1024 L867.360668,1011.44304 L830.272551,991.139877 L867.358988,970.83762 L904.447585,950.535363 L941.537382,970.838758 L978.625498,991.142152 L941.538582,1011.44418 L918.602048,1024 L921.004685,1024 L942.73858,1012.10204 L979.827177,991.799787 L1016.91577,1012.10204 L1038.64991,1024 L1041.05231,1024 L1018.11577,1011.44418 L981.028855,991.142152 L1018.11457,970.839896 L1055.20221,950.537639 L1092.29201,970.839896 L1129.38012,991.142152 L1092.29321,1011.44418 L1069.35667,1024 L1071.75907,1024 L1093.4932,1012.10204 L1130.5818,991.799787 L1167.6716,1012.10318 L1189.40285,1024 L1191.80549,1024 L1168.8716,1011.44532 L1131.78324,991.142152 L1168.8704,970.839896 L1205.95899,950.537639 L1243.04759,970.841033 L1280.13475,991.1442 L1243.04879,1011.44646 L1220.11706,1024 L1222.51969,1024 L1244.24879,1012.10432 L1281.33619,991.802062 L1318.42598,1012.10432 L1340.15676,1024 L1342.55939,1024 L1319.62598,1011.44646 L1282.53786,991.1442 L1319.62478,970.842171 L1356.71362,950.539915 L1393.80341,970.842171 L1430.89153,991.1442 L1393.80437,1011.44646 L1370.87192,1024 L1373.27456,1024 L1395.00437,1012.10432 L1432.09321,991.802062 L1440,996.129482 L1440,994.814212 L1433.29465,991.1442 L1440,987.474416 L1440,986.159146 L1432.09321,990.486565 L1395.00341,970.184309 L1357.91506,949.882052 L1395.00221,929.579796 L1432.09081,909.277767 L1440,913.606324 L1440,912.290826 L1433.29225,908.619904 L1440,904.948755 L1440,903.633485 L1432.09081,907.962042 L1395.00101,887.658875 L1357.91266,867.355481 L1394.99981,847.053224 L1432.08841,826.751195 L1440,831.081345 L1440,829.765848 L1433.29009,826.093333 L1440,822.421045 L1440,821.106231 L1432.08841,825.436153 L1394.99837,805.132986 L1357.91026,784.83073 L1394.99837,764.528473 L1432.08697,744.226217 L1440,748.557504 L1440,747.242235 L1433.28865,743.568582 L1440,739.894929 L1440,738.579432 L1432.08697,742.910719 L1394.99717,722.607553 L1357.90906,702.304158 L1394.99597,682.001902 L1432.08457,661.699645 L1440,666.032298 L1440,664.717029 L1433.28625,661.04201 L1440,657.366992 L1440,656.051723 L1432.08457,660.384148 L1394.99477,640.080981 L1357.90666,619.777587 L1394.99381,599.47533 L1432.08241,579.173074 L1440,583.507092 L1440,582.191822 L1433.28385,578.515439 L1440,574.839056 L1440,573.523786 L1432.08241,577.857577 L1394.99381,557.55532 L1357.90666,537.253291 L1394.99261,516.951034 L1432.08001,496.648778 L1440,500.983706 L1440,499.668437 L1433.28217,495.991143 L1440,492.313622 L1440,490.998125 L1432.08001,495.333281 L1394.99141,475.029886 L1357.90426,454.72672 L1394.99021,434.424463 L1432.07761,414.122207 L1440,418.458728 L1440,417.143458 L1433.27953,413.464572 L1440,409.785685 L1440,408.470415 L1432.07761,412.806709 L1394.98901,392.504453 L1357.9021,372.202196 L1394.98781,351.900167 L1432.07521,331.597911 L1440,335.93557 L1440,334.6203 L1433.27569,330.940276 L1440,327.260251 L1440,325.944982 L1432.07401,330.282641 L1394.98541,309.979247 L1357.8985,289.675852 L1394.98421,269.373823 L1432.07185,249.071567 L1440,253.410591 L1440,252.095322 L1433.27329,248.413704 L1440,244.731405 L1440,243.416135 L1432.07185,247.755159 L1394.98397,227.453585 L1357.89682,207.151329 L1394.98277,186.849072 L1432.07017,166.547043 L1440,170.887206 L1440,169.571708 L1433.27185,165.889181 L1440,162.206198 L1440,160.890929 L1432.07017,165.231319 L1394.98157,144.928152 L1357.89442,124.624758 L1394.98157,104.322501 L1432.07017,84.020472 L1440,88.3606343 L1440,87.0451371 L1433.27185,83.3626096 L1440,79.6798546 L1440,78.3643574 L1432.07017,82.7047472 L1394.98037,62.4015804 L1357.89226,42.0981861 L1394.97917,21.7954744 L1432.06777,1.49344545 L1440,5.83520063 L1440,4.51970342 L1433.26945,0.835583072 L1434.79585,0 L1432.39273,0 L1432.06777,0.177720691 L1431.74281,0 L1429.33945,0 L1430.86609,0.836038182 Z M1244.22239,21.7954744 L1281.31051,1.49390056 L1318.40078,21.7954744 L1355.4889,42.097731 L1318.40198,62.4004427 L1281.31339,82.7026992 L1244.22359,62.4004427 L1207.13523,42.0981861 L1244.22239,21.7954744 Z M489.257429,475.68115 L526.345066,495.984316 L489.258629,516.286573 L452.170512,536.58883 L415.080716,516.285435 L377.992599,495.982041 L415.079516,475.680012 L452.168112,455.377755 L489.257429,475.68115 Z M453.369791,454.719438 L490.456228,434.417409 L527.544345,414.115152 L564.634141,434.418547 L601.722258,454.721713 L564.635101,475.02397 L527.546505,495.326227 L490.457428,475.022832 L453.369791,454.719438 Z M490.458628,516.944435 L527.546505,496.642179 L564.636301,516.944435 L601.724658,537.246464 L564.637501,557.548721 L527.548905,577.850977 L490.459828,557.548721 L453.372191,537.246464 L490.458628,516.944435 Z M565.8363,516.286573 L528.748183,495.984316 L565.8351,475.682287 L602.923937,455.380031 L640.013013,475.682287 L677.10065,495.984316 L640.014213,516.286573 L602.927297,536.58883 L565.8363,516.286573 Z M604.125375,454.722169 L641.211812,434.419912 L678.299929,414.117883 L715.389725,434.419912 L752.477842,454.722169 L715.391165,475.024425 L678.302569,495.326682 L641.213252,475.024425 L604.125375,454.722169 Z M641.214212,516.944435 L678.302329,496.642179 L715.392125,516.945573 L752.480242,537.24874 L715.393325,557.551679 L678.304729,577.853936 L641.215412,557.550541 L604.127295,537.246464 L641.214212,516.944435 Z M716.592124,516.287711 L679.503767,495.984316 L716.590924,475.682287 L753.679521,455.380031 L790.769317,475.683198 L827.857434,495.986592 L790.770517,516.288849 L753.681921,536.591105 L716.592124,516.287711 Z M754.881199,454.722169 L791.968116,434.419912 L829.056713,414.117883 L866.145309,434.42105 L903.232466,454.724444 L866.146509,475.026701 L829.059113,495.32873 L791.969316,475.025563 L754.881199,454.722169 Z M791.970516,516.946483 L829.059113,496.644454 L866.147709,516.946483 L903.234866,537.24874 L866.147709,557.550996 L829.059113,577.853253 L791.970516,557.551679 L754.883599,537.249423 L791.970516,516.946483 Z M867.347708,516.288849 L830.260791,495.986592 L867.346508,475.684335 L904.434145,455.382306 L941.523942,475.684335 L978.612058,495.986592 L941.524902,516.288849 L904.436305,536.591105 L867.347708,516.288849 Z M942.7249,516.946483 L979.813737,496.644454 L1016.90353,516.947621 L1053.99165,537.251015 L1016.90449,557.553272 L979.815897,577.855301 L942.7261,557.551679 L905.638943,537.24874 L942.7249,516.946483 Z M942.7249,475.026701 L905.636543,454.724444 L942.7237,434.422188 L979.812297,414.119931 L1016.90209,434.422188 L1053.99021,454.724444 L1016.90281,475.026701 L979.814217,495.32873 L942.7249,475.026701 Z M942.7225,392.501267 L905.634383,372.197873 L942.7213,351.895616 L979.809897,331.59336 L1016.89969,351.896754 L1053.98781,372.200148 L1016.90089,392.502177 L979.811337,412.803751 L942.7225,392.501267 Z M941.522502,393.158902 L978.610618,413.462296 L941.523702,433.764553 L904.435105,454.066582 L867.346268,433.763415 L830.259351,413.460021 L867.345308,393.157764 L904.432705,372.855735 L941.522502,393.158902 Z M866.145309,392.498991 L829.057673,412.80102 L791.967876,392.497854 L754.879759,372.194459 L791.966676,351.892203 L829.055513,331.590174 L866.144109,351.893341 L903.231026,372.196735 L866.145309,392.498991 Z M790.767877,393.155488 L827.856234,413.458883 L790.769077,433.761139 L753.680481,454.063396 L716.589724,433.761594 L679.501607,413.459338 L716.588524,393.155944 L753.677121,372.852777 L790.767877,393.155488 Z M715.389485,392.497854 L678.300889,412.80102 L641.211572,392.497854 L604.124175,372.194459 L641.210612,351.892203 L678.298489,331.590174 L715.388285,351.892203 L752.476642,372.194459 L715.389485,392.497854 Z M640.011573,393.155488 L677.09921,413.458883 L640.011813,433.761594 L602.923937,454.063851 L565.83414,433.761594 L528.745783,413.4582 L565.83294,393.155944 L602.921537,372.853915 L640.011573,393.155488 Z M564.633901,392.495578 L527.543385,412.80011 L490.454068,392.496716 L453.366431,372.193322 L490.453588,351.891293 L527.543385,331.589264 L564.632461,351.89243 L601.720098,372.195825 L564.633901,392.495578 Z M489.255989,393.152303 L526.343626,413.455469 L489.257189,433.757726 L452.169072,454.059983 L415.079516,433.758864 L377.991879,413.455469 L415.078316,393.15344 L452.166192,372.851184 L489.255989,393.152303 Z M413.878797,392.492392 L376.79068,412.794649 L339.700884,392.492392 L302.612767,372.190136 L339.699684,351.888107 L376.78828,331.58585 L413.877597,351.888107 L450.965234,372.190136 L413.878797,392.492392 Z M413.879997,434.41354 L450.967394,454.716707 L413.879517,475.02215 L376.79092,495.324406 L339.701604,475.021012 L302.614207,454.717845 L339.701124,434.415588 L376.78972,414.113332 L413.879997,434.41354 Z M413.881677,516.940112 L450.969794,537.243279 L413.882877,557.545535 L376.79428,577.847792 L339.704964,557.544397 L302.615647,537.244416 L339.702084,516.94216 L376.7902,496.639903 L413.881677,516.940112 Z M413.884077,599.465545 L450.972194,619.767802 L413.885277,640.069831 L376.79644,660.372088 L339.707364,640.069831 L302.619727,619.767802 L339.706164,599.465545 L376.79428,579.163289 L413.884077,599.465545 Z M415.084076,598.807683 L377.994759,578.509523 L415.081916,558.207266 L452.170512,537.905009 L489.259829,558.207266 L526.347226,578.509523 L489.260789,598.811552 L452.172912,619.113808 L415.084076,598.807683 Z M490.461748,599.465545 L527.549865,579.163289 L564.639661,599.466683 L601.727778,619.76985 L564.640861,640.072107 L527.552265,660.374363 L490.462948,640.070969 L453.375311,619.767802 L490.461748,599.465545 Z M565.83966,598.808821 L528.750583,578.509523 L565.8375,558.207266 L602.926097,537.905009 L640.015413,558.208404 L677.10305,578.511571 L640.016613,598.813827 L602.928497,619.116084 L565.83966,598.808821 Z M641.217572,599.468731 L678.305689,579.166475 L715.395485,599.468731 L752.483602,619.77076 L715.396445,640.073017 L678.307849,660.375273 L641.218772,640.073017 L604.131135,619.77076 L641.217572,599.468731 Z M716.595484,598.810869 L679.507127,578.508612 L716.594284,558.206583 L753.682881,537.904327 L790.771477,558.206583 L827.858394,578.508612 L790.772677,598.810869 L753.685281,619.113125 L716.595484,598.810869 Z M791.972676,599.468731 L829.060073,579.166475 L866.149869,599.469869 L903.237986,619.773036 L866.151069,640.075292 L829.062473,660.377549 L791.973876,640.074155 L754.886719,619.77076 L791.972676,599.468731 Z M867.349868,598.812007 L830.261751,578.508612 L867.348668,558.206583 L904.437265,537.904327 L941.527062,558.207494 L978.615418,578.510888 L941.528262,598.813144 L904.438945,619.117677 L867.349868,598.812007 Z M942.72826,599.470779 L979.816857,579.16875 L1016.90665,599.470779 L1053.99501,619.773036 L1016.90785,640.075292 L979.819257,660.377549 L942.72946,640.075292 L905.641343,619.773036 L942.72826,599.470779 Z M1018.10665,598.813144 L981.018535,578.510888 L1018.10545,558.208631 L1055.19429,537.906602 L1092.28193,558.21159 L1129.36884,578.513846 L1092.28313,598.816103 L1055.19549,619.118359 L1018.10665,598.813144 Z M1018.10449,516.287711 L981.016135,495.984316 L1018.10329,475.68206 L1055.19189,455.380031 L1092.28049,475.683198 L1129.36668,495.988868 L1092.28097,516.291124 L1055.19333,536.593836 L1018.10449,516.287711 Z M1018.10209,433.762277 L981.013975,413.460021 L1018.10089,393.157764 L1055.18949,372.855507 L1092.27809,393.157764 L1129.36524,413.460021 L1092.27929,433.762277 L1055.19189,454.064306 L1018.10209,433.762277 Z M1018.09969,351.236616 L981.011575,330.933449 L1018.09849,310.631193 L1055.18709,290.328936 L1092.27689,310.63233 L1129.36524,330.935725 L1092.27809,351.237754 L1055.18949,371.54001 L1018.09969,351.236616 Z M1016.89969,309.97333 L979.811097,330.275587 L942.7189,309.974696 L905.630783,289.671301 L942.7177,269.369045 L979.806297,249.066788 L1016.89609,269.370182 L1053.98445,289.673577 L1016.89969,309.97333 Z M941.518902,310.63142 L978.607018,330.934815 L941.520102,351.237071 L904.431505,371.5391 L867.342908,351.235933 L830.255751,330.932539 L867.341708,310.630282 L904.429105,290.328026 L941.518902,310.63142 Z M866.14171,309.97151 L829.055033,330.275587 L791.965236,309.973558 L754.876879,289.671301 L791.964036,269.369045 L829.052633,249.066788 L866.14123,269.369045 L903.228146,289.671301 L866.14171,309.97151 Z M790.764517,310.629145 L827.852634,330.931401 L790.765477,351.233658 L753.676881,371.535687 L716.587084,351.233658 L679.498967,330.931401 L716.585884,310.629145 L753.674721,290.326888 L790.764517,310.629145 Z M715.385885,309.97151 L678.297289,330.273539 L641.208452,309.97151 L604.120815,289.668115 L641.207252,269.365859 L678.295129,249.06383 L715.384925,269.366997 L752.473282,289.670391 L715.385885,309.97151 Z M640.008213,310.628007 L677.09585,330.931401 L640.009413,351.233658 L602.921297,371.535687 L565.83198,351.23252 L528.744343,330.929126 L565.83078,310.626869 L602.918897,290.32484 L640.008213,310.628007 Z M564.630781,309.968096 L527.543385,330.273539 L490.453348,309.97151 L453.364991,289.669253 L490.452148,269.366997 L527.540745,249.064968 L564.630061,269.366997 L601.717458,289.669253 L564.630781,309.968096 Z M489.253109,310.625731 L526.341226,330.927988 L489.254309,351.230244 L452.165472,371.532501 L415.076396,351.230244 L377.988759,330.927988 L415.075196,310.625731 L452.163312,290.323702 L489.253109,310.625731 Z M413.875197,309.968096 L376.78708,330.270353 L339.697284,309.966959 L302.609167,289.663564 L339.696084,269.361535 L376.78492,249.059279 L413.873997,269.362446 L450.961634,289.66584 L413.875197,309.968096 Z M338.497285,310.624821 L375.585642,330.927988 L338.498485,351.230244 L301.409888,371.532501 L264.320572,351.229107 L227.233415,330.929353 L264.319852,310.627324 L301.407728,290.325068 L338.497285,310.624821 Z M338.499685,393.150255 L375.587802,413.452284 L338.500885,433.75454 L301.412528,454.059527 L264.323212,433.757271 L227.235575,413.455014 L264.322012,393.152985 L301.410128,372.850729 L338.499685,393.150255 Z M338.501365,475.675688 L375.589002,495.978855 L338.502565,516.281112 L301.415648,536.586554 L264.326332,516.28316 L227.238695,495.979993 L264.325132,475.677736 L301.413248,455.37548 L338.501365,475.675688 Z M338.503765,558.20226 L375.591402,578.505654 L338.504965,598.807683 L301.416848,619.10994 L264.327052,598.806545 L227.238935,578.503379 L264.325852,558.201122 L301.414688,537.898865 L338.503765,558.20226 Z M338.506165,640.727693 L375.593802,661.02995 L338.507365,681.332207 L301.419248,701.634236 L264.329452,681.332207 L227.241335,661.02995 L264.328252,640.727693 L301.416848,620.425437 L338.506165,640.727693 Z M339.706164,681.989841 L376.79404,661.687585 L413.883837,681.990979 L450.972194,702.294373 L413.885037,722.596402 L376.79644,742.898659 L339.707364,722.595492 L302.619727,702.292098 L339.706164,681.989841 Z M415.083836,681.333117 L377.995719,661.02995 L415.082876,640.727693 L452.171472,620.425437 L489.260549,640.728831 L526.348186,661.032226 L489.263429,681.33744 L452.175312,701.639697 L415.083836,681.333117 Z M490.461748,681.993027 L527.549865,661.690771 L564.638941,681.993027 L601.726578,702.295284 L564.640141,722.597313 L527.552265,742.899569 L490.463428,722.599588 L453.375791,702.297559 L490.461748,681.993027 Z M565.83894,681.335165 L528.751543,661.033136 L565.83846,640.730879 L602.927057,620.428623 L640.016373,640.730879 L677.10401,661.033136 L640.016853,681.335165 L602.929697,701.639697 L565.83894,681.335165 Z M641.216852,681.993027 L678.305449,661.690771 L715.395245,681.994165 L752.483602,702.297332 L715.396445,722.599588 L678.307849,742.901845 L641.218052,722.59845 L604.129935,702.295284 L641.216852,681.993027 Z M716.595244,681.336303 L679.507127,661.033136 L716.594044,640.730879 L753.682881,620.428623 L790.771477,640.732017 L827.858394,661.035184 L790.775077,681.339716 L753.687441,701.641972 L716.595244,681.336303 Z M791.972676,681.996213 L829.060073,661.693956 L866.149869,681.996213 L903.238946,702.299607 L866.152029,722.601864 L829.063433,742.90412 L791.975076,722.601864 L754.888159,702.299607 L791.972676,681.996213 Z M867.349868,681.338351 L830.261751,661.036094 L867.348668,640.734065 L904.438945,620.433174 L941.528742,640.73543 L978.616858,661.037459 L941.529942,681.339716 L904.441345,701.641972 L867.349868,681.338351 Z M942.72826,681.996213 L979.816857,661.693956 L1016.90665,681.997351 L1053.99477,702.300517 L1016.90785,722.602774 L979.819257,742.905031 L942.72946,722.601636 L905.642783,702.299607 L942.72826,681.996213 Z M1018.10665,681.339488 L981.018535,661.036094 L1018.10545,640.734065 L1055.19405,620.431808 L1092.28289,640.734975 L1129.3698,661.03837 L1092.28529,681.341764 L1055.19789,701.64402 L1018.10665,681.339488 Z M1093.48384,681.998261 L1130.57148,661.696232 L1167.66128,681.998261 L1204.75059,702.301883 L1167.66368,722.604139 L1130.57484,742.906396 L1093.48672,722.604139 L1056.39957,702.301883 L1093.48384,681.998261 Z M1093.48384,640.07734 L1056.39669,619.773946 L1093.48264,599.471689 L1130.57004,579.16966 L1167.65984,599.472827 L1204.74795,619.776222 L1167.66104,640.078478 L1130.57244,660.380507 L1093.48384,640.07734 Z M1093.48144,557.551907 L1056.39429,537.24965 L1093.48024,516.947394 L1130.56764,496.645137 L1167.65744,516.947394 L1204.74555,537.24965 L1167.65864,557.551907 L1130.57004,577.853936 L1093.48144,557.551907 Z M1093.47904,475.026473 L1056.39213,454.723079 L1093.47784,434.420822 L1130.56524,414.118566 L1167.65504,434.42196 L1204.74339,454.725354 L1167.65624,475.027383 L1130.56764,495.32964 L1093.47904,475.026473 Z M1093.47664,392.500812 L1056.38973,372.198783 L1093.47664,351.896526 L1130.56524,331.59427 L1167.65384,351.896526 L1204.74099,372.198783 L1167.65384,392.500812 L1130.56668,412.803751 L1093.47664,392.500812 Z M1093.47664,309.975378 L1056.38781,289.673577 L1093.47472,269.37132 L1130.56356,249.069064 L1167.65216,269.372458 L1204.73907,289.675625 L1167.65336,309.977881 L1130.56668,330.280138 L1093.47664,309.975378 Z M1093.47448,227.448807 L1056.38613,207.14564 L1093.47328,186.843384 L1130.56116,166.543403 L1167.64976,186.846797 L1204.73667,207.149964 L1167.65096,227.45222 L1130.56356,247.754477 L1093.47448,227.448807 Z M1092.27449,228.106669 L1129.3626,248.410064 L1092.27545,268.712093 L1055.18685,289.014349 L1018.09705,268.710955 L981.008935,248.407788 L1018.09585,228.105531 L1055.18469,207.803275 L1092.27449,228.106669 Z M1016.89585,227.446759 L979.807257,247.749015 L942.71746,227.446759 L905.629343,207.14473 L942.71626,186.842473 L979.804377,166.543403 L1016.89417,186.845659 L1053.98277,207.147005 L1016.89585,227.446759 Z M941.517462,228.104621 L978.605818,248.406878 L941.518902,268.711182 L904.429345,289.013666 L867.340748,268.71141 L830.253591,248.409381 L867.339548,228.107124 L904.426945,207.804868 L941.517462,228.104621 Z M866.14027,227.446759 L829.052873,247.749015 L791.963076,227.445621 L754.874719,207.142454 L791.961876,186.840198 L829.050473,166.537941 L866.13907,186.841336 L903.226226,207.14473 L866.14027,227.446759 Z M790.763077,228.103483 L827.851194,248.406878 L790.764277,268.708907 L753.674961,289.013666 L716.584924,268.7105 L679.496807,248.407105 L716.583964,228.104849 L753.672561,207.802592 L790.763077,228.103483 Z M715.384685,227.443573 L678.295849,247.745602 L641.207252,227.446986 L604.119615,207.14473 L641.206532,186.842473 L678.295369,166.540217 L715.384445,186.842473 L752.471122,207.14473 L715.384685,227.443573 Z M640.006773,228.101208 L677.09441,248.403464 L640.007253,268.709134 L602.919137,289.011163 L565.83006,268.709134 L528.743383,248.406878 L565.82982,228.104621 L602.917697,207.802365 L640.006773,228.101208 Z M564.629581,227.443573 L527.541465,247.745602 L490.451668,227.442435 L453.363551,207.139041 L490.449748,186.841336 L527.538345,166.539307 L564.627661,186.841336 L601.715298,207.14473 L564.629581,227.443573 Z M489.251669,228.10007 L526.339786,248.403464 L489.252869,268.705721 L452.164272,289.00775 L415.074956,268.704583 L377.987319,248.401189 L415.073756,228.098932 L452.161872,207.796903 L489.251669,228.10007 Z M413.873757,227.44016 L376.78588,247.742416 L339.695604,227.444711 L302.607247,207.142454 L339.694404,186.840198 L376.783,166.538169 L413.871837,186.841336 L450.959474,207.142454 L413.873757,227.44016 Z M338.496085,228.097795 L375.584202,248.400051 L338.497045,268.702308 L301.408448,289.004564 L264.319372,268.702308 L227.231735,248.404602 L264.318172,228.102346 L301.406048,207.800317 L338.496085,228.097795 Z M263.118173,227.44016 L226.029336,247.746967 L188.93954,227.443573 L151.851423,207.139269 L188.93834,186.83724 L226.026936,166.535893 L263.116253,186.83906 L300.20389,207.142454 L263.118173,227.44016 Z M263.119373,269.36017 L300.20701,289.662199 L263.120573,309.964456 L226.031736,330.271263 L188.94194,309.969007 L151.853823,289.66675 L188.94074,269.364721 L226.029336,249.062465 L263.119373,269.36017 Z M263.121533,351.885604 L300.20917,372.18877 L263.122733,392.491027 L226.034136,412.797835 L188.9441,392.49444 L151.855983,372.191274 L188.94314,351.889017 L226.031736,331.58676 L263.121533,351.885604 Z M263.123933,434.411037 L300.21157,454.713294 L263.125133,475.015323 L226.036296,495.322131 L188.9465,475.019874 L151.858383,454.717845 L188.9453,434.415588 L226.034136,414.113332 L263.123933,434.411037 Z M263.126333,516.936471 L300.21397,537.239865 L263.126813,557.541894 L226.037496,577.849612 L188.94842,557.546218 L151.860783,537.243051 L188.9477,516.940795 L226.036296,496.638538 L263.126333,516.936471 Z M263.128013,599.463042 L300.21637,619.766437 L263.129213,640.068466 L226.040616,660.370722 L188.95178,640.072107 L151.864383,619.768712 L188.94938,599.467366 L226.037496,579.165109 L263.128013,599.463042 Z M263.130413,681.988476 L300.21853,702.290733 L263.130893,722.59754 L226.042296,742.899569 L188.95298,722.59754 L151.865343,702.295284 L188.95178,681.993027 L226.039896,661.690771 L263.130413,681.988476 Z M263.132813,764.51391 L300.22093,784.817304 L263.134013,805.119561 L226.045416,825.42159 L188.9561,805.118423 L151.868463,784.815028 L188.9549,764.512772 L226.042296,744.215294 L263.132813,764.51391 Z M264.332812,763.856275 L227.244695,743.55288 L264.331612,723.250624 L301.420208,702.948595 L338.509525,723.251762 L375.597162,743.555156 L338.510725,763.857413 L301.422608,784.159442 L264.332812,763.856275 Z M339.710724,764.516185 L376.7986,744.213929 L413.887917,764.516185 L450.975554,784.818442 L413.889117,805.120698 L376.79956,825.426141 L339.710244,805.124112 L302.622847,784.821855 L339.710724,764.516185 Z M415.087916,763.85855 L377.999559,743.559707 L415.086476,723.257451 L452.175312,702.955194 L489.263429,723.257451 L526.351066,743.559707 L489.264149,763.861964 L452.175312,784.163993 L415.087916,763.85855 Z M490.465828,764.516185 L527.554425,744.213929 L564.643501,764.517323 L601.731138,784.820717 L564.644701,805.122746 L527.556585,825.425003 L490.466788,805.121836 L453.378671,784.818442 L490.465828,764.516185 Z M565.8435,763.859461 L528.755863,743.556294 L565.8423,723.254037 L602.930417,702.951781 L640.020213,723.255175 L677.10833,743.558569 L640.021413,763.860598 L602.932817,784.162855 L565.8435,763.859461 Z M641.221412,764.519371 L678.310009,744.217114 L715.399805,764.519371 L752.487922,784.821628 L715.401005,805.123657 L678.311209,825.428416 L641.221412,805.12616 L604.133295,784.824131 L641.221412,764.519371 Z M716.599804,763.861509 L679.511207,743.561983 L716.598124,723.259726 L753.686721,702.95747 L790.775077,723.259726 L827.862234,743.561983 L790.776277,763.864012 L753.688881,784.166268 L716.599804,763.861509 Z M791.976996,764.519371 L829.064633,744.217114 L866.154429,764.520509 L903.242546,784.823676 L866.155389,805.125932 L829.066073,825.429782 L791.977476,805.127297 L754.890559,784.824131 L791.976996,764.519371 Z M867.354428,763.862646 L830.266071,743.55948 L867.353228,723.257223 L904.441825,702.954966 L941.531622,723.258361 L978.619738,743.561528 L941.532822,763.863784 L904.444225,784.166041 L867.354428,763.862646 Z M942.73282,764.522557 L979.821417,744.2203 L1016.91001,764.522557 L1053.99693,784.824586 L1016.91121,805.126842 L979.822857,825.429782 L942.73306,805.127525 L905.644703,784.825268 L942.73282,764.522557 Z M1018.11001,763.864694 L981.022855,743.564031 L1018.10977,723.262002 L1055.19837,702.959745 L1092.28673,723.262002 L1129.37388,743.564031 L1092.28673,763.866287 L1055.19813,784.168544 L1018.11001,763.864694 Z M1093.4872,764.522557 L1130.5758,744.2203 L1167.6656,764.523695 L1204.75395,784.826861 L1167.6668,805.129118 L1130.5782,825.431374 L1093.48672,805.129573 L1056.39861,784.826179 L1093.4872,764.522557 Z M1168.8656,763.865832 L1131.77748,743.562438 L1168.86464,723.260409 L1205.95323,702.958152 L1243.04303,723.261319 L1280.13115,743.564713 L1243.04423,763.86697 L1205.95539,784.169226 L1168.8656,763.865832 Z M1168.86344,681.340399 L1131.77508,661.038142 L1168.86224,640.735885 L1205.95083,620.433856 L1243.04063,640.735885 L1280.12875,661.038142 L1243.04111,681.341764 L1205.95251,701.64402 L1168.86344,681.340399 Z M1168.86104,598.814965 L1131.77292,578.511571 L1168.85984,558.209314 L1205.94843,537.907285 L1243.03823,558.210452 L1280.12635,578.513846 L1243.03943,598.816103 L1205.95059,619.119725 L1168.86104,598.814965 Z M1168.85864,516.289531 L1131.77052,495.987275 L1168.85744,475.685018 L1205.94603,455.382762 L1243.03583,475.685018 L1280.12419,495.987275 L1243.03703,516.289531 L1205.94771,536.593836 L1168.85864,516.289531 Z M1168.85624,433.76387 L1131.76668,413.462296 L1168.8536,393.16004 L1205.94243,372.857783 L1243.03223,393.161177 L1280.12035,413.464572 L1243.03343,433.766601 L1205.94459,454.068857 L1168.85624,433.76387 Z M1168.85504,351.238436 L1131.76668,330.938 L1168.85264,310.635744 L1205.94003,290.333487 L1243.02983,310.635744 L1280.11795,330.938 L1243.03103,351.240029 L1205.94243,371.542286 L1168.85504,351.238436 Z M1168.85288,268.713003 L1131.76572,248.409836 L1168.85168,228.107579 L1205.93907,207.805323 L1243.02887,228.108717 L1280.11699,248.411884 L1243.02935,268.715733 L1205.94075,289.01799 L1168.85288,268.713003 Z M1168.85048,186.186431 L1131.76356,165.883037 L1168.84928,145.581008 L1205.93667,125.278751 L1243.02647,145.582146 L1280.11483,165.885313 L1243.02767,186.187569 L1205.93907,206.489826 L1168.85048,186.186431 Z M1167.65048,144.923146 L1130.56308,165.225402 L1093.47136,144.925649 L1056.38277,124.622482 L1093.46968,104.320453 L1130.55828,84.0181964 L1167.64664,104.320453 L1204.73379,124.622482 L1167.65048,144.923146 Z M1092.27329,145.581008 L1129.3614,165.883037 L1092.27449,186.185294 L1055.18589,206.48755 L1018.09609,186.185294 L981.007735,165.883037 L1018.09489,145.581008 L1055.18277,125.280344 L1092.27329,145.581008 Z M1016.89297,144.925649 L979.804377,165.227905 L942.71458,144.924511 L905.626223,124.621344 L942.71338,104.319088 L979.801977,84.0168311 L1016.89177,104.320225 L1053.97989,124.623392 L1016.89297,144.925649 Z M941.514582,145.582373 L978.602698,165.88554 L941.515542,186.187797 L904.426945,206.489143 L867.338348,186.185749 L830.251431,165.883492 L867.337148,145.581236 L904.424785,125.278979 L941.514582,145.582373 Z M866.13715,144.922463 L829.049753,165.22472 L791.959956,144.922463 L754.871119,124.620434 L791.958036,104.318177 L829.046633,84.0159209 L866.13499,104.318177 L903.222146,124.620434 L866.13715,144.922463 Z M790.759957,145.580325 L827.848074,165.883492 L790.761157,186.185521 L753.672561,206.487778 L716.583244,186.185521 L679.495607,165.883492 L716.582044,145.581236 L753.671121,125.278069 L790.759957,145.580325 Z M715.382045,144.922463 L678.294169,165.22472 L641.204372,144.921325 L604.116015,124.618158 L641.203172,104.315902 L678.291769,84.0136453 L715.380845,104.31704 L752.468482,124.620434 L715.382045,144.922463 Z M640.004373,145.579188 L677.09249,165.883492 L640.005333,186.185521 L602.916737,206.487778 L565.82766,186.183701 L528.740023,165.880306 L565.82646,145.57805 L602.914577,125.275793 L640.004373,145.579188 Z M564.626461,144.919277 L527.538345,165.223582 L490.448548,144.921553 L453.359471,124.618158 L490.446388,104.315902 L527.534985,84.0136453 L564.624301,104.315902 L601.711938,124.618158 L564.626461,144.919277 Z M489.248549,145.576912 L526.336666,165.879169 L489.249749,186.181425 L452.161152,206.483454 L415.071836,186.181425 L377.984199,165.879169 L415.070636,145.576912 L452.159472,125.275793 L489.248549,145.576912 Z M413.870637,144.919277 L376.78276,165.223582 L339.692964,144.920415 L302.604607,124.617021 L339.691764,104.314764 L376.78036,84.0127351 L413.869677,104.315902 L450.957074,124.619296 L413.870637,144.919277 Z M338.492965,145.575774 L375.581082,165.879169 L338.494165,186.181425 L301.405328,206.483454 L264.316252,186.181425 L227.228615,165.878031 L264.315052,145.575774 L301.403168,125.273745 L338.492965,145.575774 Z M263.115053,144.915864 L226.026936,165.220396 L188.93786,144.918139 L151.850223,124.615883 L188.93666,104.313626 L226.024776,84.0115973 L263.113853,104.313626 L300.20149,124.615883 L263.115053,144.915864 Z M187.737861,145.573499 L224.825498,165.875755 L187.738341,186.181425 L150.649744,206.482544 L113.560668,186.181425 L76.4730308,165.878031 L113.559948,145.575774 L150.647824,125.273745 L187.737861,145.573499 Z M187.739541,228.09916 L224.827658,248.402327 L187.740741,268.704583 L150.652144,289.009115 L113.562828,268.705721 L76.4751908,248.402327 L113.561628,228.100298 L150.649744,207.799179 L187.739541,228.09916 Z M187.741941,310.624594 L224.830058,330.929353 L187.743141,351.23161 L150.654544,371.533866 L113.565228,351.23161 L76.4775908,330.929353 L113.564028,310.627324 L150.652144,290.325068 L187.741941,310.624594 Z M187.744101,393.150027 L224.831738,413.455469 L187.744581,433.757726 L150.656704,454.059527 L113.567868,433.756588 L76.4802308,413.453421 L113.566668,393.151165 L150.654784,372.848908 L187.744101,393.150027 Z M187.746501,475.675461 L224.834858,495.977717 L187.747701,516.279746 L150.659104,536.582003 L113.570028,516.279746 L76.4823908,495.977717 L113.567868,475.677281 L150.655744,455.375025 L187.746501,475.675461 Z M187.748421,558.200894 L224.836058,578.504289 L187.749381,598.808593 L150.661504,619.11085 L113.572187,598.807456 L76.4845508,578.504061 L113.570988,558.201805 L150.659104,537.899548 L187.748421,558.200894 Z M187.750581,640.727466 L224.838218,661.03086 L187.751781,681.335392 L150.663904,701.637421 L113.574107,681.334255 L76.4857508,661.03086 L113.572907,640.728604 L150.661504,620.426347 L187.750581,640.727466 Z M187.752981,723.252899 L224.840618,743.555156 L187.754181,763.859688 L150.666064,784.161945 L113.576267,763.859688 L76.4879108,743.557432 L113.575067,723.255175 L150.663664,702.953146 L187.752981,723.252899 Z M187.755381,805.778333 L224.843018,826.081727 L187.756581,846.38626 L150.668464,866.688516 L113.578667,846.385122 L76.4905508,826.081727 L113.577467,805.779698 L150.666064,785.477442 L187.755381,805.778333 Z M188.95658,847.041619 L226.044696,826.73959 L263.133773,847.041619 L300.22141,867.345468 L263.135693,887.648408 L226.047576,907.950664 L188.9585,887.648408 L151.870143,867.345468 L188.95658,847.041619 Z M264.333772,846.383984 L227.246135,826.084003 L264.333292,805.781746 L301.421888,785.479717 L338.510965,805.781746 L375.598602,826.084003 L338.511685,846.38626 L301.423088,866.688516 L264.333772,846.383984 Z M339.711684,847.041619 L376.80028,826.73959 L413.889597,847.042757 L450.976994,867.346151 L413.890557,887.648408 L376.80268,907.950436 L339.712884,887.64727 L302.624527,867.345468 L339.711684,847.041619 Z M415.089596,846.385122 L378.001959,826.081727 L415.088396,805.779471 L452.176272,785.477442 L489.266069,805.780609 L526.354426,826.084003 L489.267269,846.38626 L452.178672,866.688289 L415.089596,846.385122 Z M490.467268,847.043894 L527.555865,826.741638 L564.645181,847.043894 L601.732818,867.346151 L564.647341,887.650683 L527.559225,907.952712 L490.469428,887.650683 L453.381311,867.348427 L490.467268,847.043894 Z M565.84518,846.38626 L528.757543,826.084003 L565.84398,805.781746 L602.932097,785.47949 L640.021893,805.781746 L677.11001,826.084003 L640.023093,846.387625 L602.934497,866.689654 L565.84518,846.38626 Z M641.223092,847.043894 L678.311689,826.741638 L715.401485,847.045032 L752.489602,867.348427 L715.402685,887.650455 L678.314089,907.952712 L641.224292,887.649545 L604.135935,867.346151 L641.223092,847.043894 Z M716.601484,846.38717 L679.513367,826.084003 L716.600284,805.781746 L753.688881,785.47949 L790.777477,805.782884 L827.864634,826.086279 L790.778677,846.388308 L753.691281,866.690564 L716.601484,846.38717 Z M791.978676,847.04708 L829.066073,826.744824 L866.155869,847.048218 L903.244226,867.351385 L866.157069,887.653641 L829.068473,907.955898 L791.979876,887.652503 L754.892959,867.349337 L791.978676,847.04708 Z M867.355868,846.390356 L830.267751,826.089692 L867.354668,805.787435 L904.443505,785.485179 L941.533302,805.787435 L978.621418,826.089692 L941.534502,846.392859 L904.445665,866.696253 L867.355868,846.390356 Z M942.7345,847.048218 L979.823097,826.744824 L1016.91169,847.048218 L1053.99861,867.351385 L1016.91289,887.653641 L979.825257,907.957263 L942.73546,887.655007 L905.647343,867.35275 L942.7345,847.048218 Z M1018.11169,846.390356 L981.024535,826.087189 L1018.11049,805.784932 L1055.19789,785.482676 L1092.28769,805.78607 L1129.3758,826.089237 L1092.28889,846.391493 L1055.20029,866.69375 L1018.11169,846.390356 Z M1093.48888,847.050266 L1130.57748,826.748009 L1167.66728,847.051404 L1204.75563,867.35457 L1167.66848,887.656827 L1130.57988,907.959084 L1093.49008,887.655689 L1056.40197,867.352295 L1093.48888,847.050266 Z M1168.86728,846.393541 L1131.77916,826.089692 L1168.86608,805.787663 L1205.95467,785.485406 L1243.04447,805.788573 L1280.13283,826.091967 L1243.04567,846.394224 L1205.95707,866.696481 L1168.86728,846.393541 Z M1244.24567,847.052314 L1281.33427,826.750285 L1318.4231,847.052314 L1355.51002,867.35457 L1318.4243,887.656827 L1281.33667,907.959084 L1244.24687,887.656827 L1207.15875,867.35457 L1244.24567,847.052314 Z M1244.24567,805.131393 L1207.15755,784.827999 L1244.24471,764.525743 L1281.33331,744.223714 L1318.4219,764.52688 L1355.50882,784.830275 L1318.4231,805.132531 L1281.33451,825.435015 L1244.24567,805.131393 Z M1244.24351,722.604822 L1207.15515,702.301428 L1244.24231,681.999171 L1281.33091,661.697142 L1318.4195,682.000309 L1355.50666,702.303703 L1318.4207,722.60596 L1281.33331,742.907989 L1244.24351,722.604822 Z M1244.24111,640.079388 L1207.15299,619.777132 L1244.23991,599.474875 L1281.32851,579.172619 L1318.4171,599.474875 L1355.50426,619.777132 L1318.4183,640.079388 L1281.33091,660.381417 L1244.24111,640.079388 Z M1244.23871,557.553955 L1207.15059,537.251015 L1244.23751,516.948759 L1281.32611,496.646502 L1318.4159,516.949897 L1355.50426,537.253291 L1318.4171,557.55532 L1281.32851,577.857577 L1244.23871,557.553955 Z M1244.23631,475.028294 L1207.14819,454.726265 L1244.23535,434.424008 L1281.32395,414.121751 L1318.41374,434.424008 L1355.50186,454.726265 L1318.41446,475.028749 L1281.32563,495.331005 L1244.23631,475.028294 Z M1244.23415,392.50286 L1207.14579,372.199693 L1244.23295,351.897437 L1281.32155,331.59518 L1318.41134,351.898574 L1355.49946,372.201741 L1318.41254,392.503998 L1281.32395,412.806254 L1244.23415,392.50286 Z M1244.23175,309.977426 L1207.14363,289.67517 L1244.23055,269.373141 L1281.31915,249.070884 L1318.40894,269.373141 L1355.49706,289.67517 L1318.41014,309.977426 L1281.32155,330.279683 L1244.23175,309.977426 Z M1244.22935,227.451993 L1207.14123,207.148598 L1244.22815,186.846569 L1281.31675,166.544313 L1318.40654,186.847707 L1355.49442,207.151329 L1318.40726,227.453585 L1281.31867,247.755842 L1244.22935,227.451993 Z M1244.22575,144.925649 L1207.13763,124.622254 L1244.22455,104.320225 L1281.31339,84.0179689 L1318.40318,104.321363 L1355.4913,124.62453 L1318.40414,144.926787 L1281.31555,165.229043 L1244.22575,144.925649 Z M1243.02359,63.0578499 L1280.11171,83.3601065 L1243.02455,103.662363 L1205.93595,123.96462 L1168.84664,103.662591 L1131.75972,83.360334 L1168.84664,63.0580775 L1205.93427,42.7560485 L1243.02359,63.0578499 Z M1093.46776,21.7938816 L1130.55636,1.49162501 L1167.64496,21.7954744 L1204.73211,42.0988688 L1167.64664,62.4004427 L1130.55924,82.7026992 L1093.46944,62.3993049 L1056.38133,42.0959106 L1093.46776,21.7938816 Z M1092.26777,63.0571673 L1129.35588,83.360334 L1092.26897,103.662591 L1055.18277,123.964847 L1018.09297,103.661453 L981.004615,83.3580585 L1018.09177,63.0560295 L1055.17917,42.7533178 L1092.26777,63.0571673 Z M942.71218,21.7938816 L979.798857,1.49162501 L1016.88865,21.7938816 L1053.97677,42.0959106 L1016.89057,62.3981671 L979.801977,82.7004237 L942.71338,62.3981671 L905.626223,42.0959106 L942.71218,21.7938816 Z M941.513382,63.0560295 L978.600298,83.3580585 L941.513382,103.660315 L904.424785,123.962572 L867.334988,103.660315 L830.248071,83.3580585 L867.334988,63.0560295 L904.424785,42.7533178 L941.513382,63.0560295 Z M791.956356,21.791606 L829.044953,1.48934946 L866.13499,21.7927438 L903.223346,42.0959106 L866.13499,62.3981671 L829.046393,82.7004237 L791.956596,62.3970293 L754.869439,42.0934075 L791.956356,21.791606 Z M790.757557,63.0548917 L827.845914,83.3580585 L790.758757,103.660315 L753.671121,123.962572 L716.581804,103.659177 L679.493447,83.3560105 L716.579884,63.0537539 L753.667761,42.7514974 L790.757557,63.0548917 Z M641.200772,21.791606 L678.289369,1.48934946 L715.378685,21.791606 L752.466082,42.0934075 L715.379885,62.3958916 L678.291769,82.6981481 L641.201972,62.3958916 L604.113855,42.0934075 L641.200772,21.791606 Z M640.000773,63.0537539 L677.08889,83.3560105 L640.001973,103.658039 L602.913377,123.960296 L565.82406,103.658039 L528.737623,83.3560105 L565.82334,63.0537539 L602.911457,42.7514974 L640.000773,63.0537539 Z M490.445188,21.7893305 L527.533785,1.4870739 L564.623341,21.7904682 L601.710498,42.0934075 L564.623341,62.3958916 L527.535225,82.6981481 L490.445428,62.3947538 L453.357311,42.091587 L490.445188,21.7893305 Z M489.245189,63.0526162 L526.333546,83.3560105 L489.246389,103.658039 L452.159472,123.960296 L415.070396,103.657129 L377.982039,83.3537349 L415.068476,63.0512508 L452.156352,42.7489943 L489.245189,63.0526162 Z M339.690084,21.7893305 L376.77796,1.4870739 L413.867277,21.7893305 L450.954914,42.091587 L413.868477,62.3938436 L376.78036,82.6958726 L339.691044,62.3938436 L302.603647,42.091587 L339.690084,21.7893305 Z M338.490085,63.0514784 L375.577722,83.3537349 L338.490805,103.655991 L301.402208,123.95802 L264.312892,103.655991 L227.226215,83.3537349 L264.313372,63.0514784 L301.401968,42.7492218 L338.490085,63.0514784 Z M188.93426,21.7870549 L226.022376,1.48502591 L263.111693,21.7881927 L300.19981,42.091587 L263.112893,62.3938436 L226.024776,82.6958726 L188.93546,62.3927058 L151.847823,42.0893115 L188.93426,21.7870549 Z M187.735461,63.0512508 L224.823098,83.3537349 L187.736661,103.655991 L150.647824,123.95802 L113.558748,103.654854 L76.4706308,83.3514594 L113.557548,63.0492028 L150.646144,42.7471738 L187.735461,63.0512508 Z M38.1798755,62.3913405 L1.09223873,42.0870359 L38.1786755,21.7850069 L75.2665522,1.48275035 L112.356349,21.7859171 L149.444706,42.0893115 L112.357549,62.3913405 L75.2689522,82.6938246 L38.1798755,62.3913405 Z M38.1820355,144.917912 L1.09439872,124.613607 L38.1808355,104.311578 L75.2689522,84.0090942 L112.358749,104.312261 L149.447826,124.615883 L112.359949,144.918139 L75.2713522,165.220396 L38.1820355,144.917912 Z M38.1844355,227.443346 L1.09679872,207.139269 L38.1839555,186.83815 L75.2720722,166.535893 L112.360669,186.83815 L149.447826,207.139269 L112.361629,227.442435 L75.2737522,247.744692 L38.1844355,227.443346 Z M38.1861154,309.968779 L1.09799872,289.665612 L38.1851555,269.363356 L75.2737522,249.061099 L112.362829,269.364494 L149.450466,289.66766 L112.364029,309.969917 L75.2759122,330.271263 L38.1861154,309.968779 Z M38.1885154,392.494213 L1.10039872,372.192184 L38.1873154,351.889927 L75.2759122,331.587671 L112.365229,351.889927 L149.452866,372.192184 L112.366429,392.494213 L75.2783122,412.795559 L38.1885154,392.494213 Z M38.1909154,475.019646 L1.10399871,454.715569 L38.1909154,434.413313 L75.2795122,414.111056 L112.367869,434.414451 L149.455506,454.717845 L112.367869,475.019874 L75.2807122,495.322131 L38.1909154,475.019646 Z M38.1933154,557.545308 L1.10399871,537.242141 L38.1911554,516.939884 L75.2797522,496.637628 L112.369069,516.939884 L149.456466,537.242141 L112.370029,557.544397 L75.2831122,577.846426 L38.1933154,557.545308 Z M38.1949954,640.071879 L1.10735871,619.769622 L38.1945154,599.466228 L75.2831122,579.163061 L112.372189,599.466228 L149.459826,619.769622 L112.372909,640.071879 L75.2843122,660.373908 L38.1949954,640.071879 Z M38.1973954,722.597313 L1.10975871,702.293918 L38.1961954,681.991662 L75.2843122,661.689633 L112.374109,681.9928 L149.462226,702.296194 L112.375309,722.59754 L75.2864722,742.899569 L38.1973954,722.597313 Z M38.1997954,805.122746 L1.1121587,784.82049 L38.1985954,764.518233 L75.2864722,744.215294 L112.376269,764.517323 L149.464626,784.81958 L112.377469,805.121836 L75.2879122,825.424093 L38.1997954,805.122746 Z M38.2019554,887.64818 L1.1145587,867.344786 L38.2007554,847.042757 L75.2879122,826.73959 L112.377709,847.042984 L149.466786,867.345468 L112.379869,887.648408 L75.2912722,907.950664 L38.2019554,887.64818 Z M112.381549,970.173614 L75.2936722,990.475643 L38.2043554,970.173386 L1.1167187,949.871129 L38.2031554,929.5691 L75.2912722,909.266844 L112.380589,929.5691 L149.467986,949.871129 L112.381549,970.173614 Z M113.581547,928.911466 L76.4939108,908.609209 L113.580827,888.30718 L150.669424,868.004924 L187.758741,888.30718 L224.846378,908.609209 L187.759221,928.911466 L150.670624,949.213722 L113.581547,928.911466 Z M263.138333,970.175889 L226.050216,990.478146 L188.96042,970.174751 L151.871823,949.870447 L188.95874,929.568418 L226.047336,909.266161 L263.136653,929.569556 L300.22429,949.872722 L263.138333,970.175889 Z M264.337132,928.912603 L227.248535,908.608299 L264.334972,888.30627 L301.423088,868.004013 L338.512885,888.30718 L375.601002,908.610574 L338.514085,928.912831 L301.425488,949.215088 L264.337132,928.912603 Z M413.893917,970.175889 L376.80604,990.478146 L339.716244,970.175889 L302.627887,949.873633 L339.715044,929.571376 L376.80364,909.269347 L413.892717,929.571376 L450.980354,949.873633 L413.893917,970.175889 Z M415.092716,928.913741 L378.005079,908.611485 L415.091516,888.309228 L452.178672,868.005379 L489.268469,888.307408 L526.356586,908.609664 L489.269669,928.911921 L452.181072,949.214177 L415.092716,928.913741 Z M564.648781,970.17771 L527.560665,990.479739 L490.470868,970.176572 L453.383471,949.872722 L490.470388,929.570466 L527.558985,909.268437 L564.648301,929.571604 L601.735938,949.874998 L564.648781,970.17771 Z M565.84878,928.914424 L528.761143,908.61103 L565.84758,888.308773 L602.934497,868.005379 L640.024293,888.308545 L677.11241,908.61194 L640.025253,928.914196 L602.936657,949.216225 L565.84878,928.914424 Z M715.404365,970.179758 L678.316249,990.482014 L641.225972,970.17771 L604.138335,949.874315 L641.225252,929.572059 L678.314089,909.269802 L715.402685,929.573196 L752.489602,949.876591 L715.404365,970.179758 Z M716.604364,928.916472 L679.517207,908.613305 L716.604364,888.311049 L753.692961,868.008792 L790.781557,888.312186 L827.868474,908.615581 L790.781557,928.91761 L753.691281,949.219866 L716.604364,928.916472 Z M866.158989,970.179302 L829.070393,990.481559 L791.980596,970.179302 L754.892479,949.877273 L791.979396,929.575017 L829.067993,909.27276 L866.158989,929.575017 L903.247106,949.877273 L866.158989,970.179302 Z M867.358988,928.917155 L830.270871,908.615126 L867.357788,888.312869 L904.446385,868.010612 L941.536182,888.312869 L978.624538,908.615126 L941.537382,928.917155 L904.448065,949.219866 L867.358988,928.917155 Z M1016.91577,970.181578 L979.828377,990.483835 L942.73858,970.18044 L905.650463,949.877273 L942.73738,929.575017 L979.825977,909.27276 L1016.91481,929.576155 L1054.00173,949.879321 L1016.91577,970.181578 Z M1018.11577,928.918292 L981.028615,908.615126 L1018.11457,888.312869 L1055.20197,868.010612 L1092.29177,888.314007 L1129.37988,908.617174 L1092.29297,928.91943 L1055.20437,949.221687 L1018.11577,928.918292 Z M1167.67064,970.181578 L1130.58204,990.483835 L1093.49224,970.181578 L1056.40413,949.879777 L1093.49128,929.577748 L1130.57988,909.275491 L1167.67064,929.577292 L1204.75779,949.879777 L1167.67064,970.181578 Z M1168.87064,928.91943 L1131.78252,908.617174 L1168.86944,888.315145 L1205.95803,868.012888 L1243.04783,888.315145 L1280.13451,908.617174 L1243.04735,928.91943 L1205.95875,949.221687 L1168.87064,928.91943 Z M1318.42622,970.183854 L1281.33763,990.48611 L1244.24903,970.182716 L1207.16115,949.879777 L1244.24807,929.577748 L1281.33667,909.275491 L1318.42526,929.578885 L1355.51242,949.882052 L1318.42622,970.183854 Z M1393.80245,888.316055 L1430.89057,908.619449 L1393.80269,928.921933 L1356.7141,949.22419 L1319.62526,928.920795 L1282.53834,908.617401 L1319.6243,888.315372 L1356.7117,868.013116 L1393.80245,888.316055 Z M1393.79837,805.791759 L1430.88649,826.094015 L1393.79957,846.396272 L1356.71098,866.698529 L1319.62238,846.396272 L1282.53522,826.094015 L1319.62118,805.791759 L1356.70858,785.48973 L1393.79837,805.791759 Z M1393.79597,723.266325 L1430.88433,743.56972 L1393.79837,763.870838 L1356.7093,784.174005 L1319.6207,763.870838 L1282.53354,743.567444 L1319.6195,723.265187 L1356.7069,702.963158 L1393.79597,723.266325 Z M1393.79357,640.739754 L1430.88193,661.043148 L1393.79477,681.345405 L1356.70618,701.647434 L1319.61758,681.344267 L1282.53066,661.040873 L1319.61638,640.738616 L1356.70378,620.436587 L1393.79357,640.739754 Z M1393.79357,558.21432 L1430.88049,578.516577 L1393.79357,598.818833 L1356.70474,619.120862 L1319.61614,598.818833 L1282.52922,578.516577 L1319.61614,558.21432 L1356.70474,537.912064 L1393.79357,558.21432 Z M1393.79117,475.688887 L1430.87833,495.991143 L1393.79261,516.293172 L1356.70498,536.595429 L1319.61446,516.292034 L1282.52634,495.988868 L1319.6135,475.686611 L1356.7021,455.384354 L1393.79117,475.688887 Z M1393.78877,393.163453 L1430.87569,413.465709 L1393.78997,433.767738 L1356.70258,454.069995 L1319.61278,433.767738 L1282.52418,413.463661 L1319.61134,393.161405 L1356.69994,372.859148 L1393.78877,393.163453 Z M1393.78637,310.638019 L1430.87353,330.941186 L1393.78757,351.243443 L1356.70018,371.545699 L1319.61038,351.242305 L1282.52226,330.939138 L1319.60918,310.636882 L1356.69778,290.334625 L1393.78637,310.638019 Z M1393.78421,228.112586 L1430.87113,248.414615 L1393.78493,268.715733 L1356.69754,289.01799 L1319.60774,268.715733 L1282.51962,248.413477 L1319.60654,228.111448 L1356.69442,207.809191 L1393.78421,228.112586 Z M1393.78157,145.585559 L1430.86849,165.888953 L1393.78277,186.19121 L1356.69442,206.493694 L1319.60462,186.1903 L1282.5165,165.886905 L1319.60414,145.585559 L1356.69298,125.283303 L1393.78157,145.585559 Z M1393.78037,63.0589877 L1430.86849,83.362382 L1393.78157,103.664866 L1356.69298,123.967805 L1319.60318,103.664411 L1282.51482,83.3610167 L1319.60198,63.0587602 L1356.69058,42.7567312 L1393.78037,63.0589877 Z" id="Shape"></path>
            </g>
        </g>
    </g>
</svg>