<?xml version="1.0" encoding="UTF-8"?>
<svg width="165px" height="141px" viewBox="0 0 165 141" version="1.1" xmlns="http://www.w3.org/2000/svg" xmlns:xlink="http://www.w3.org/1999/xlink">
    <!-- Generator: Sketch 62 (91390) - https://sketch.com -->
    <title>Bitcoin</title>
    <desc>Created with Sketch.</desc>
    <defs>
        <linearGradient x1="-11.2754026%" y1="19.0768342%" x2="89.7862347%" y2="59.0636052%" id="linearGradient-1">
            <stop stop-color="#000D8A" offset="0%"></stop>
            <stop stop-color="#180078" stop-opacity="0" offset="100%"></stop>
        </linearGradient>
        <linearGradient x1="100%" y1="77.4779733%" x2="-5.9899155%" y2="27.0567632%" id="linearGradient-2">
            <stop stop-color="#093CC3" offset="0%"></stop>
            <stop stop-color="#27A6FF" offset="100%"></stop>
        </linearGradient>
        <linearGradient x1="99.0656107%" y1="71.3469196%" x2="-8.51897858%" y2="11.4640501%" id="linearGradient-3">
            <stop stop-color="#001C96" offset="0%"></stop>
            <stop stop-color="#157EFF" offset="100%"></stop>
        </linearGradient>
    </defs>
    <g id="Partial-Assets---Single-Elements" stroke="none" stroke-width="1" fill="none" fill-rule="evenodd">
        <g id="Partial-Assets" transform="translate(-636.000000, -669.000000)">
            <g id="Bitcoin" transform="translate(636.000000, 669.000000)">
                <g id="Bitcoin_base" transform="translate(0.000000, 12.986842)">
                    <polygon id="Base_shadow" fill="url(#linearGradient-1)" points="4.01079093 73.7198608 85.730656 20.0920157 167.450521 73.7198608 85.730656 127.347706"></polygon>
                    <polygon id="Base" fill="#00EBFF" points="0 63.6959645 0 53.6991102 163.43973 53.6991102 163.43973 63.6959645 81.7198651 117.32381"></polygon>
                    <polygon id="Base" fill="url(#linearGradient-2)" points="0 53.6720682 81.7198651 0.0442230719 163.43973 53.6720682 81.7198651 107.299913"></polygon>
                </g>
                <g id="Radar" opacity="0.200000003" transform="translate(0.000000, 13.031065)" fill="#00EBFF" fill-rule="nonzero">
                    <path d="M70.1323584,7.89369645 L81.6943556,15.4815824 L93.2563527,7.89369645 L81.6943556,0.305810502 L70.1323584,7.89369645 Z M81.7384517,0.103235305 L93.4768333,7.80687851 C93.5356281,7.84546426 93.5356281,7.94192864 93.4768333,7.98051439 L81.7384517,15.6841576 C81.7111649,15.7020653 81.6775462,15.7020653 81.6502594,15.6841576 L69.9118778,7.98051439 C69.853083,7.94192864 69.853083,7.84546426 69.9118778,7.80687851 L81.6502594,0.103235305 C81.6775462,0.0853275956 81.7111649,0.0853275956 81.7384517,0.103235305 Z" id="Polygon-5-Copy-21"></path>
                    <path d="M81.7737318,15.5125995 L93.335729,23.1004854 L104.897726,15.5125995 L93.335729,7.92471351 L81.7737318,15.5125995 Z M93.3798251,7.72213832 L105.118207,15.4257815 C105.177002,15.4643673 105.177002,15.5608317 105.118207,15.5994174 L93.3798251,23.3030606 C93.3525383,23.3209683 93.3189196,23.3209683 93.2916329,23.3030606 L81.5532513,15.5994174 C81.4944565,15.5608317 81.4944565,15.4643673 81.5532513,15.4257815 L93.2916329,7.72213832 C93.3189196,7.70423061 93.3525383,7.70423061 93.3798251,7.72213832 Z" id="Polygon-5-Copy-22"></path>
                    <path d="M104.977102,15.5436165 L93.4151052,23.1315025 L104.977102,30.7193884 L116.5391,23.1315025 L104.977102,15.5436165 Z M105.021199,15.3410413 L116.75958,23.0446845 C116.818375,23.0832703 116.818375,23.1797347 116.75958,23.2183204 L105.021199,30.9219636 C104.993912,30.9398713 104.960293,30.9398713 104.933006,30.9219636 L93.1946247,23.2183204 C93.1358299,23.1797347 93.1358299,23.0832703 93.1946247,23.0446845 L104.933006,15.3410413 C104.960293,15.3231336 104.993912,15.3231336 105.021199,15.3410413 Z" id="Polygon-5-Copy-23"></path>
                    <path d="M116.618476,23.1625195 L105.056479,30.7504055 L116.618476,38.3382914 L128.180473,30.7504055 L116.618476,23.1625195 Z M116.662572,22.9599443 L128.400954,30.6635875 C128.459748,30.7021733 128.459748,30.7986377 128.400954,30.8372234 L116.662572,38.5408666 C116.635285,38.5587743 116.601666,38.5587743 116.57438,38.5408666 L104.835998,30.8372234 C104.777203,30.7986377 104.777203,30.7021733 104.835998,30.6635875 L116.57438,22.9599443 C116.601666,22.9420366 116.635285,22.9420366 116.662572,22.9599443 Z" id="Polygon-5-Copy-24"></path>
                    <path d="M116.697852,38.3693085 L128.259849,45.9571944 L139.821846,38.3693085 L128.259849,30.7814225 L116.697852,38.3693085 Z M128.303945,30.5788474 L140.042327,38.2824906 C140.101122,38.3210763 140.101122,38.4175407 140.042327,38.4561264 L128.303945,46.1597696 C128.276659,46.1776774 128.24304,46.1776774 128.215753,46.1597696 L116.477372,38.4561264 C116.418577,38.4175407 116.418577,38.3210763 116.477372,38.2824906 L128.215753,30.5788474 C128.24304,30.5609396 128.276659,30.5609396 128.303945,30.5788474 Z" id="Polygon-5-Copy-25"></path>
                    <path d="M128.339226,45.9882115 L139.901223,53.5760975 L151.46322,45.9882115 L139.901223,38.4003256 L128.339226,45.9882115 Z M139.945319,38.1977504 L151.6837,45.9013936 C151.742495,45.9399793 151.742495,46.0364437 151.6837,46.0750295 L139.945319,53.7786727 C139.918032,53.7965804 139.884413,53.7965804 139.857127,53.7786727 L128.118745,46.0750295 C128.05995,46.0364437 128.05995,45.9399793 128.118745,45.9013936 L139.857127,38.1977504 C139.884413,38.1798427 139.918032,38.1798427 139.945319,38.1977504 Z" id="Polygon-5-Copy-26"></path>
                    <path d="M139.980599,53.6071145 L151.542596,61.1950005 L163.104593,53.6071145 L151.542596,46.0192286 L139.980599,53.6071145 Z M151.586692,45.8166534 L163.325074,53.5202966 C163.383869,53.5588823 163.383869,53.6553467 163.325074,53.6939325 L151.586692,61.3975757 C151.559405,61.4154834 151.525787,61.4154834 151.4985,61.3975757 L139.760118,53.6939325 C139.701324,53.6553467 139.701324,53.5588823 139.760118,53.5202966 L151.4985,45.8166534 C151.525787,45.7987457 151.559405,45.7987457 151.586692,45.8166534 Z" id="Polygon-5-Copy-27"></path>
                    <path d="M58.490985,15.5125995 L70.0529821,23.1004854 L81.6149793,15.5125995 L70.0529821,7.92471351 L58.490985,15.5125995 Z M70.0970782,7.72213832 L81.8354599,15.4257815 C81.8942547,15.4643673 81.8942547,15.5608317 81.8354599,15.5994174 L70.0970782,23.3030606 C70.0697915,23.3209683 70.0361728,23.3209683 70.008886,23.3030606 L58.2705044,15.5994174 C58.2117096,15.5608317 58.2117096,15.4643673 58.2705044,15.4257815 L70.008886,7.72213832 C70.0361728,7.70423061 70.0697915,7.70423061 70.0970782,7.72213832 Z" id="Polygon-5-Copy-21"></path>
                    <path d="M70.1323584,23.1315025 L81.6943556,30.7193884 L93.2563527,23.1315025 L81.6943556,15.5436165 L70.1323584,23.1315025 Z M81.7384517,15.3410413 L93.4768333,23.0446845 C93.5356281,23.0832703 93.5356281,23.1797347 93.4768333,23.2183204 L81.7384517,30.9219636 C81.7111649,30.9398713 81.6775462,30.9398713 81.6502594,30.9219636 L69.9118778,23.2183204 C69.853083,23.1797347 69.853083,23.0832703 69.9118778,23.0446845 L81.6502594,15.3410413 C81.6775462,15.3231336 81.7111649,15.3231336 81.7384517,15.3410413 Z" id="Polygon-5-Copy-22"></path>
                    <path d="M81.7737318,30.7504055 L93.335729,38.3382914 L104.897726,30.7504055 L93.335729,23.1625195 L81.7737318,30.7504055 Z M93.3798251,22.9599443 L105.118207,30.6635875 C105.177002,30.7021733 105.177002,30.7986377 105.118207,30.8372234 L93.3798251,38.5408666 C93.3525383,38.5587743 93.3189196,38.5587743 93.2916329,38.5408666 L81.5532513,30.8372234 C81.4944565,30.7986377 81.4944565,30.7021733 81.5532513,30.6635875 L93.2916329,22.9599443 C93.3189196,22.9420366 93.3525383,22.9420366 93.3798251,22.9599443 Z" id="Polygon-5-Copy-23"></path>
                    <path d="M93.4151052,38.3693085 L104.977102,45.9571944 L116.5391,38.3693085 L104.977102,30.7814225 L93.4151052,38.3693085 Z M105.021199,30.5788474 L116.75958,38.2824906 C116.818375,38.3210763 116.818375,38.4175407 116.75958,38.4561264 L105.021199,46.1597696 C104.993912,46.1776774 104.960293,46.1776774 104.933006,46.1597696 L93.1946247,38.4561264 C93.1358299,38.4175407 93.1358299,38.3210763 93.1946247,38.2824906 L104.933006,30.5788474 C104.960293,30.5609396 104.993912,30.5609396 105.021199,30.5788474 Z" id="Polygon-5-Copy-24"></path>
                    <path d="M105.056479,45.9882115 L116.618476,53.5760975 L128.180473,45.9882115 L116.618476,38.4003256 L105.056479,45.9882115 Z M116.662572,38.1977504 L128.400954,45.9013936 C128.459748,45.9399793 128.459748,46.0364437 128.400954,46.0750295 L116.662572,53.7786727 C116.635285,53.7965804 116.601666,53.7965804 116.57438,53.7786727 L104.835998,46.0750295 C104.777203,46.0364437 104.777203,45.9399793 104.835998,45.9013936 L116.57438,38.1977504 C116.601666,38.1798427 116.635285,38.1798427 116.662572,38.1977504 Z" id="Polygon-5-Copy-25"></path>
                    <path d="M116.697852,53.6071145 L128.259849,61.1950005 L139.821846,53.6071145 L128.259849,46.0192286 L116.697852,53.6071145 Z M128.303945,45.8166534 L140.042327,53.5202966 C140.101122,53.5588823 140.101122,53.6553467 140.042327,53.6939325 L128.303945,61.3975757 C128.276659,61.4154834 128.24304,61.4154834 128.215753,61.3975757 L116.477372,53.6939325 C116.418577,53.6553467 116.418577,53.5588823 116.477372,53.5202966 L128.215753,45.8166534 C128.24304,45.7987457 128.276659,45.7987457 128.303945,45.8166534 Z" id="Polygon-5-Copy-26"></path>
                    <path d="M128.339226,61.2260175 L139.901223,68.8139035 L151.46322,61.2260175 L139.901223,53.6381316 L128.339226,61.2260175 Z M139.945319,53.4355564 L151.6837,61.1391996 C151.742495,61.1777853 151.742495,61.2742497 151.6837,61.3128355 L139.945319,69.0164787 C139.918032,69.0343864 139.884413,69.0343864 139.857127,69.0164787 L128.118745,61.3128355 C128.05995,61.2742497 128.05995,61.1777853 128.118745,61.1391996 L139.857127,53.4355564 C139.884413,53.4176487 139.918032,53.4176487 139.945319,53.4355564 Z" id="Polygon-5-Copy-27"></path>
                    <path d="M46.8496116,23.1315025 L58.4116087,30.7193884 L69.9736059,23.1315025 L58.4116087,15.5436165 L46.8496116,23.1315025 Z M58.4557048,15.3410413 L70.1940864,23.0446845 C70.2528812,23.0832703 70.2528812,23.1797347 70.1940864,23.2183204 L58.4557048,30.9219636 C58.4284181,30.9398713 58.3947994,30.9398713 58.3675126,30.9219636 L46.629131,23.2183204 C46.5703362,23.1797347 46.5703362,23.0832703 46.629131,23.0446845 L58.3675126,15.3410413 C58.3947994,15.3231336 58.4284181,15.3231336 58.4557048,15.3410413 Z" id="Polygon-5-Copy-21"></path>
                    <path d="M70.0529821,23.1625195 L58.490985,30.7504055 L70.0529821,38.3382914 L81.6149793,30.7504055 L70.0529821,23.1625195 Z M70.0970782,22.9599443 L81.8354599,30.6635875 C81.8942547,30.7021733 81.8942547,30.7986377 81.8354599,30.8372234 L70.0970782,38.5408666 C70.0697915,38.5587743 70.0361728,38.5587743 70.008886,38.5408666 L58.2705044,30.8372234 C58.2117096,30.7986377 58.2117096,30.7021733 58.2705044,30.6635875 L70.008886,22.9599443 C70.0361728,22.9420366 70.0697915,22.9420366 70.0970782,22.9599443 Z" id="Polygon-5-Copy-22"></path>
                    <path d="M70.1323584,38.3693085 L81.6943556,45.9571944 L93.2563527,38.3693085 L81.6943556,30.7814225 L70.1323584,38.3693085 Z M81.7384517,30.5788474 L93.4768333,38.2824906 C93.5356281,38.3210763 93.5356281,38.4175407 93.4768333,38.4561264 L81.7384517,46.1597696 C81.7111649,46.1776774 81.6775462,46.1776774 81.6502594,46.1597696 L69.9118778,38.4561264 C69.853083,38.4175407 69.853083,38.3210763 69.9118778,38.2824906 L81.6502594,30.5788474 C81.6775462,30.5609396 81.7111649,30.5609396 81.7384517,30.5788474 Z" id="Polygon-5-Copy-23"></path>
                    <path d="M81.7737318,45.9882115 L93.335729,53.5760975 L104.897726,45.9882115 L93.335729,38.4003256 L81.7737318,45.9882115 Z M93.3798251,38.1977504 L105.118207,45.9013936 C105.177002,45.9399793 105.177002,46.0364437 105.118207,46.0750295 L93.3798251,53.7786727 C93.3525383,53.7965804 93.3189196,53.7965804 93.2916329,53.7786727 L81.5532513,46.0750295 C81.4944565,46.0364437 81.4944565,45.9399793 81.5532513,45.9013936 L93.2916329,38.1977504 C93.3189196,38.1798427 93.3525383,38.1798427 93.3798251,38.1977504 Z" id="Polygon-5-Copy-24"></path>
                    <path d="M93.4151052,53.6071145 L104.977102,61.1950005 L116.5391,53.6071145 L104.977102,46.0192286 L93.4151052,53.6071145 Z M105.021199,45.8166534 L116.75958,53.5202966 C116.818375,53.5588823 116.818375,53.6553467 116.75958,53.6939325 L105.021199,61.3975757 C104.993912,61.4154834 104.960293,61.4154834 104.933006,61.3975757 L93.1946247,53.6939325 C93.1358299,53.6553467 93.1358299,53.5588823 93.1946247,53.5202966 L104.933006,45.8166534 C104.960293,45.7987457 104.993912,45.7987457 105.021199,45.8166534 Z" id="Polygon-5-Copy-25"></path>
                    <path d="M105.056479,61.2260175 L116.618476,68.8139035 L128.180473,61.2260175 L116.618476,53.6381316 L105.056479,61.2260175 Z M116.662572,53.4355564 L128.400954,61.1391996 C128.459748,61.1777853 128.459748,61.2742497 128.400954,61.3128355 L116.662572,69.0164787 C116.635285,69.0343864 116.601666,69.0343864 116.57438,69.0164787 L104.835998,61.3128355 C104.777203,61.2742497 104.777203,61.1777853 104.835998,61.1391996 L116.57438,53.4355564 C116.601666,53.4176487 116.635285,53.4176487 116.662572,53.4355564 Z" id="Polygon-5-Copy-26"></path>
                    <path d="M116.697852,68.8449205 L128.259849,76.4328065 L139.821846,68.8449205 L128.259849,61.2570346 L116.697852,68.8449205 Z M128.303945,61.0544594 L140.042327,68.7581026 C140.101122,68.7966884 140.101122,68.8931527 140.042327,68.9317385 L128.303945,76.6353817 C128.276659,76.6532894 128.24304,76.6532894 128.215753,76.6353817 L116.477372,68.9317385 C116.418577,68.8931527 116.418577,68.7966884 116.477372,68.7581026 L128.215753,61.0544594 C128.24304,61.0365517 128.276659,61.0365517 128.303945,61.0544594 Z" id="Polygon-5-Copy-27"></path>
                    <path d="M46.7702353,23.1625195 L35.2082381,30.7504055 L46.7702353,38.3382914 L58.3322324,30.7504055 L46.7702353,23.1625195 Z M46.8143314,22.9599443 L58.552713,30.6635875 C58.6115078,30.7021733 58.6115078,30.7986377 58.552713,30.8372234 L46.8143314,38.5408666 C46.7870446,38.5587743 46.7534259,38.5587743 46.7261392,38.5408666 L34.9877576,30.8372234 C34.9289628,30.7986377 34.9289628,30.7021733 34.9877576,30.6635875 L46.7261392,22.9599443 C46.7534259,22.9420366 46.7870446,22.9420366 46.8143314,22.9599443 Z" id="Polygon-5-Copy-21"></path>
                    <path d="M46.8496116,38.3693085 L58.4116087,45.9571944 L69.9736059,38.3693085 L58.4116087,30.7814225 L46.8496116,38.3693085 Z M58.4557048,30.5788474 L70.1940864,38.2824906 C70.2528812,38.3210763 70.2528812,38.4175407 70.1940864,38.4561264 L58.4557048,46.1597696 C58.4284181,46.1776774 58.3947994,46.1776774 58.3675126,46.1597696 L46.629131,38.4561264 C46.5703362,38.4175407 46.5703362,38.3210763 46.629131,38.2824906 L58.3675126,30.5788474 C58.3947994,30.5609396 58.4284181,30.5609396 58.4557048,30.5788474 Z" id="Polygon-5-Copy-22"></path>
                    <path d="M58.490985,45.9882115 L70.0529821,53.5760975 L81.6149793,45.9882115 L70.0529821,38.4003256 L58.490985,45.9882115 Z M70.0970782,38.1977504 L81.8354599,45.9013936 C81.8942547,45.9399793 81.8942547,46.0364437 81.8354599,46.0750295 L70.0970782,53.7786727 C70.0697915,53.7965804 70.0361728,53.7965804 70.008886,53.7786727 L58.2705044,46.0750295 C58.2117096,46.0364437 58.2117096,45.9399793 58.2705044,45.9013936 L70.008886,38.1977504 C70.0361728,38.1798427 70.0697915,38.1798427 70.0970782,38.1977504 Z" id="Polygon-5-Copy-23"></path>
                    <path d="M70.1323584,53.6071145 L81.6943556,61.1950005 L93.2563527,53.6071145 L81.6943556,46.0192286 L70.1323584,53.6071145 Z M81.7384517,45.8166534 L93.4768333,53.5202966 C93.5356281,53.5588823 93.5356281,53.6553467 93.4768333,53.6939325 L81.7384517,61.3975757 C81.7111649,61.4154834 81.6775462,61.4154834 81.6502594,61.3975757 L69.9118778,53.6939325 C69.853083,53.6553467 69.853083,53.5588823 69.9118778,53.5202966 L81.6502594,45.8166534 C81.6775462,45.7987457 81.7111649,45.7987457 81.7384517,45.8166534 Z" id="Polygon-5-Copy-24"></path>
                    <path d="M81.7737318,61.2260175 L93.335729,68.8139035 L104.897726,61.2260175 L93.335729,53.6381316 L81.7737318,61.2260175 Z M93.3798251,53.4355564 L105.118207,61.1391996 C105.177002,61.1777853 105.177002,61.2742497 105.118207,61.3128355 L93.3798251,69.0164787 C93.3525383,69.0343864 93.3189196,69.0343864 93.2916329,69.0164787 L81.5532513,61.3128355 C81.4944565,61.2742497 81.4944565,61.1777853 81.5532513,61.1391996 L93.2916329,53.4355564 C93.3189196,53.4176487 93.3525383,53.4176487 93.3798251,53.4355564 Z" id="Polygon-5-Copy-25"></path>
                    <path d="M93.4151052,68.8449205 L104.977102,76.4328065 L116.5391,68.8449205 L104.977102,61.2570346 L93.4151052,68.8449205 Z M105.021199,61.0544594 L116.75958,68.7581026 C116.818375,68.7966884 116.818375,68.8931527 116.75958,68.9317385 L105.021199,76.6353817 C104.993912,76.6532894 104.960293,76.6532894 104.933006,76.6353817 L93.1946247,68.9317385 C93.1358299,68.8931527 93.1358299,68.7966884 93.1946247,68.7581026 L104.933006,61.0544594 C104.960293,61.0365517 104.993912,61.0365517 105.021199,61.0544594 Z" id="Polygon-5-Copy-26"></path>
                    <path d="M105.056479,76.4638236 L116.618476,84.0517095 L128.180473,76.4638236 L116.618476,68.8759376 L105.056479,76.4638236 Z M116.662572,68.6733624 L128.400954,76.3770056 C128.459748,76.4155914 128.459748,76.5120557 128.400954,76.5506415 L116.662572,84.2542847 C116.635285,84.2721924 116.601666,84.2721924 116.57438,84.2542847 L104.835998,76.5506415 C104.777203,76.5120557 104.777203,76.4155914 104.835998,76.3770056 L116.57438,68.6733624 C116.601666,68.6554547 116.635285,68.6554547 116.662572,68.6733624 Z" id="Polygon-5-Copy-27"></path>
                    <path d="M23.5668647,38.3693085 L35.1288619,45.9571944 L46.690859,38.3693085 L35.1288619,30.7814225 L23.5668647,38.3693085 Z M35.172958,30.5788474 L46.9113396,38.2824906 C46.9701344,38.3210763 46.9701344,38.4175407 46.9113396,38.4561264 L35.172958,46.1597696 C35.1456712,46.1776774 35.1120525,46.1776774 35.0847658,46.1597696 L23.3463842,38.4561264 C23.2875893,38.4175407 23.2875893,38.3210763 23.3463842,38.2824906 L35.0847658,30.5788474 C35.1120525,30.5609396 35.1456712,30.5609396 35.172958,30.5788474 Z" id="Polygon-5-Copy-21"></path>
                    <path d="M35.2082381,45.9882115 L46.7702353,53.5760975 L58.3322324,45.9882115 L46.7702353,38.4003256 L35.2082381,45.9882115 Z M46.8143314,38.1977504 L58.552713,45.9013936 C58.6115078,45.9399793 58.6115078,46.0364437 58.552713,46.0750295 L46.8143314,53.7786727 C46.7870446,53.7965804 46.7534259,53.7965804 46.7261392,53.7786727 L34.9877576,46.0750295 C34.9289628,46.0364437 34.9289628,45.9399793 34.9877576,45.9013936 L46.7261392,38.1977504 C46.7534259,38.1798427 46.7870446,38.1798427 46.8143314,38.1977504 Z" id="Polygon-5-Copy-22"></path>
                    <path d="M46.8496116,53.6071145 L58.4116087,61.1950005 L69.9736059,53.6071145 L58.4116087,46.0192286 L46.8496116,53.6071145 Z M58.4557048,45.8166534 L70.1940864,53.5202966 C70.2528812,53.5588823 70.2528812,53.6553467 70.1940864,53.6939325 L58.4557048,61.3975757 C58.4284181,61.4154834 58.3947994,61.4154834 58.3675126,61.3975757 L46.629131,53.6939325 C46.5703362,53.6553467 46.5703362,53.5588823 46.629131,53.5202966 L58.3675126,45.8166534 C58.3947994,45.7987457 58.4284181,45.7987457 58.4557048,45.8166534 Z" id="Polygon-5-Copy-23"></path>
                    <path d="M58.490985,61.2260175 L70.0529821,68.8139035 L81.6149793,61.2260175 L70.0529821,53.6381316 L58.490985,61.2260175 Z M70.0970782,53.4355564 L81.8354599,61.1391996 C81.8942547,61.1777853 81.8942547,61.2742497 81.8354599,61.3128355 L70.0970782,69.0164787 C70.0697915,69.0343864 70.0361728,69.0343864 70.008886,69.0164787 L58.2705044,61.3128355 C58.2117096,61.2742497 58.2117096,61.1777853 58.2705044,61.1391996 L70.008886,53.4355564 C70.0361728,53.4176487 70.0697915,53.4176487 70.0970782,53.4355564 Z" id="Polygon-5-Copy-24"></path>
                    <path d="M70.1323584,68.8449205 L81.6943556,76.4328065 L93.2563527,68.8449205 L81.6943556,61.2570346 L70.1323584,68.8449205 Z M81.7384517,61.0544594 L93.4768333,68.7581026 C93.5356281,68.7966884 93.5356281,68.8931527 93.4768333,68.9317385 L81.7384517,76.6353817 C81.7111649,76.6532894 81.6775462,76.6532894 81.6502594,76.6353817 L69.9118778,68.9317385 C69.853083,68.8931527 69.853083,68.7966884 69.9118778,68.7581026 L81.6502594,61.0544594 C81.6775462,61.0365517 81.7111649,61.0365517 81.7384517,61.0544594 Z" id="Polygon-5-Copy-25"></path>
                    <path d="M81.7737318,76.4638236 L93.335729,84.0517095 L104.897726,76.4638236 L93.335729,68.8759376 L81.7737318,76.4638236 Z M93.3798251,68.6733624 L105.118207,76.3770056 C105.177002,76.4155914 105.177002,76.5120557 105.118207,76.5506415 L93.3798251,84.2542847 C93.3525383,84.2721924 93.3189196,84.2721924 93.2916329,84.2542847 L81.5532513,76.5506415 C81.4944565,76.5120557 81.4944565,76.4155914 81.5532513,76.3770056 L93.2916329,68.6733624 C93.3189196,68.6554547 93.3525383,68.6554547 93.3798251,68.6733624 Z" id="Polygon-5-Copy-26"></path>
                    <path d="M93.4151052,84.0827266 L104.977102,91.6706125 L116.5391,84.0827266 L104.977102,76.4948406 L93.4151052,84.0827266 Z M105.021199,76.2922654 L116.75958,83.9959086 C116.818375,84.0344944 116.818375,84.1309588 116.75958,84.1695445 L105.021199,91.8731877 C104.993912,91.8910954 104.960293,91.8910954 104.933006,91.8731877 L93.1946247,84.1695445 C93.1358299,84.1309588 93.1358299,84.0344944 93.1946247,83.9959086 L104.933006,76.2922654 C104.960293,76.2743577 104.993912,76.2743577 105.021199,76.2922654 Z" id="Polygon-5-Copy-27"></path>
                    <path d="M11.9254913,45.9882115 L23.4874884,53.5760975 L35.0494856,45.9882115 L23.4874884,38.4003256 L11.9254913,45.9882115 Z M23.5315846,38.1977504 L35.2699662,45.9013936 C35.328761,45.9399793 35.328761,46.0364437 35.2699662,46.0750295 L23.5315846,53.7786727 C23.5042978,53.7965804 23.4706791,53.7965804 23.4433923,53.7786727 L11.7050107,46.0750295 C11.6462159,46.0364437 11.6462159,45.9399793 11.7050107,45.9013936 L23.4433923,38.1977504 C23.4706791,38.1798427 23.5042978,38.1798427 23.5315846,38.1977504 Z" id="Polygon-5-Copy-21"></path>
                    <path d="M23.5668647,53.6071145 L35.1288619,61.1950005 L46.690859,53.6071145 L35.1288619,46.0192286 L23.5668647,53.6071145 Z M35.172958,45.8166534 L46.9113396,53.5202966 C46.9701344,53.5588823 46.9701344,53.6553467 46.9113396,53.6939325 L35.172958,61.3975757 C35.1456712,61.4154834 35.1120525,61.4154834 35.0847658,61.3975757 L23.3463842,53.6939325 C23.2875893,53.6553467 23.2875893,53.5588823 23.3463842,53.5202966 L35.0847658,45.8166534 C35.1120525,45.7987457 35.1456712,45.7987457 35.172958,45.8166534 Z" id="Polygon-5-Copy-22"></path>
                    <path d="M35.2082381,61.2260175 L46.7702353,68.8139035 L58.3322324,61.2260175 L46.7702353,53.6381316 L35.2082381,61.2260175 Z M46.8143314,53.4355564 L58.552713,61.1391996 C58.6115078,61.1777853 58.6115078,61.2742497 58.552713,61.3128355 L46.8143314,69.0164787 C46.7870446,69.0343864 46.7534259,69.0343864 46.7261392,69.0164787 L34.9877576,61.3128355 C34.9289628,61.2742497 34.9289628,61.1777853 34.9877576,61.1391996 L46.7261392,53.4355564 C46.7534259,53.4176487 46.7870446,53.4176487 46.8143314,53.4355564 Z" id="Polygon-5-Copy-23"></path>
                    <path d="M46.8496116,68.8449205 L58.4116087,76.4328065 L69.9736059,68.8449205 L58.4116087,61.2570346 L46.8496116,68.8449205 Z M58.4557048,61.0544594 L70.1940864,68.7581026 C70.2528812,68.7966884 70.2528812,68.8931527 70.1940864,68.9317385 L58.4557048,76.6353817 C58.4284181,76.6532894 58.3947994,76.6532894 58.3675126,76.6353817 L46.629131,68.9317385 C46.5703362,68.8931527 46.5703362,68.7966884 46.629131,68.7581026 L58.3675126,61.0544594 C58.3947994,61.0365517 58.4284181,61.0365517 58.4557048,61.0544594 Z" id="Polygon-5-Copy-24"></path>
                    <path d="M58.490985,76.4638236 L70.0529821,84.0517095 L81.6149793,76.4638236 L70.0529821,68.8759376 L58.490985,76.4638236 Z M70.0970782,68.6733624 L81.8354599,76.3770056 C81.8942547,76.4155914 81.8942547,76.5120557 81.8354599,76.5506415 L70.0970782,84.2542847 C70.0697915,84.2721924 70.0361728,84.2721924 70.008886,84.2542847 L58.2705044,76.5506415 C58.2117096,76.5120557 58.2117096,76.4155914 58.2705044,76.3770056 L70.008886,68.6733624 C70.0361728,68.6554547 70.0697915,68.6554547 70.0970782,68.6733624 Z" id="Polygon-5-Copy-25"></path>
                    <path d="M70.1323584,84.0827266 L81.6943556,91.6706125 L93.2563527,84.0827266 L81.6943556,76.4948406 L70.1323584,84.0827266 Z M81.7384517,76.2922654 L93.4768333,83.9959086 C93.5356281,84.0344944 93.5356281,84.1309588 93.4768333,84.1695445 L81.7384517,91.8731877 C81.7111649,91.8910954 81.6775462,91.8910954 81.6502594,91.8731877 L69.9118778,84.1695445 C69.853083,84.1309588 69.853083,84.0344944 69.9118778,83.9959086 L81.6502594,76.2922654 C81.6775462,76.2743577 81.7111649,76.2743577 81.7384517,76.2922654 Z" id="Polygon-5-Copy-26"></path>
                    <path d="M81.7737318,91.7016296 L93.335729,99.2895155 L104.897726,91.7016296 L93.335729,84.1137436 L81.7737318,91.7016296 Z M93.3798251,83.9111684 L105.118207,91.6148116 C105.177002,91.6533974 105.177002,91.7498618 105.118207,91.7884475 L93.3798251,99.4920907 C93.3525383,99.5099984 93.3189196,99.5099984 93.2916329,99.4920907 L81.5532513,91.7884475 C81.4944565,91.7498618 81.4944565,91.6533974 81.5532513,91.6148116 L93.2916329,83.9111684 C93.3189196,83.8932607 93.3525383,83.8932607 93.3798251,83.9111684 Z" id="Polygon-5-Copy-27"></path>
                    <path d="M11.846115,46.0192286 L0.284117867,53.6071145 L11.846115,61.1950005 L23.4081122,53.6071145 L11.846115,46.0192286 Z M11.8902111,45.8166534 L23.6285927,53.5202966 C23.6873876,53.5588823 23.6873876,53.6553467 23.6285927,53.6939325 L11.8902111,61.3975757 C11.8629244,61.4154834 11.8293057,61.4154834 11.8020189,61.3975757 L0.0636373094,53.6939325 C0.00484249412,53.6553467 0.00484249412,53.5588823 0.0636373094,53.5202966 L11.8020189,45.8166534 C11.8293057,45.7987457 11.8629244,45.7987457 11.8902111,45.8166534 Z" id="Polygon-5-Copy-21"></path>
                    <path d="M11.9254913,61.2260175 L23.4874884,68.8139035 L35.0494856,61.2260175 L23.4874884,53.6381316 L11.9254913,61.2260175 Z M23.5315846,53.4355564 L35.2699662,61.1391996 C35.328761,61.1777853 35.328761,61.2742497 35.2699662,61.3128355 L23.5315846,69.0164787 C23.5042978,69.0343864 23.4706791,69.0343864 23.4433923,69.0164787 L11.7050107,61.3128355 C11.6462159,61.2742497 11.6462159,61.1777853 11.7050107,61.1391996 L23.4433923,53.4355564 C23.4706791,53.4176487 23.5042978,53.4176487 23.5315846,53.4355564 Z" id="Polygon-5-Copy-22"></path>
                    <path d="M23.5668647,68.8449205 L35.1288619,76.4328065 L46.690859,68.8449205 L35.1288619,61.2570346 L23.5668647,68.8449205 Z M35.172958,61.0544594 L46.9113396,68.7581026 C46.9701344,68.7966884 46.9701344,68.8931527 46.9113396,68.9317385 L35.172958,76.6353817 C35.1456712,76.6532894 35.1120525,76.6532894 35.0847658,76.6353817 L23.3463842,68.9317385 C23.2875893,68.8931527 23.2875893,68.7966884 23.3463842,68.7581026 L35.0847658,61.0544594 C35.1120525,61.0365517 35.1456712,61.0365517 35.172958,61.0544594 Z" id="Polygon-5-Copy-23"></path>
                    <path d="M35.2082381,76.4638236 L46.7702353,84.0517095 L58.3322324,76.4638236 L46.7702353,68.8759376 L35.2082381,76.4638236 Z M46.8143314,68.6733624 L58.552713,76.3770056 C58.6115078,76.4155914 58.6115078,76.5120557 58.552713,76.5506415 L46.8143314,84.2542847 C46.7870446,84.2721924 46.7534259,84.2721924 46.7261392,84.2542847 L34.9877576,76.5506415 C34.9289628,76.5120557 34.9289628,76.4155914 34.9877576,76.3770056 L46.7261392,68.6733624 C46.7534259,68.6554547 46.7870446,68.6554547 46.8143314,68.6733624 Z" id="Polygon-5-Copy-24"></path>
                    <path d="M46.8496116,84.0827266 L58.4116087,91.6706125 L69.9736059,84.0827266 L58.4116087,76.4948406 L46.8496116,84.0827266 Z M58.4557048,76.2922654 L70.1940864,83.9959086 C70.2528812,84.0344944 70.2528812,84.1309588 70.1940864,84.1695445 L58.4557048,91.8731877 C58.4284181,91.8910954 58.3947994,91.8910954 58.3675126,91.8731877 L46.629131,84.1695445 C46.5703362,84.1309588 46.5703362,84.0344944 46.629131,83.9959086 L58.3675126,76.2922654 C58.3947994,76.2743577 58.4284181,76.2743577 58.4557048,76.2922654 Z" id="Polygon-5-Copy-25"></path>
                    <path d="M58.490985,91.7016296 L70.0529821,99.2895155 L81.6149793,91.7016296 L70.0529821,84.1137436 L58.490985,91.7016296 Z M70.0970782,83.9111684 L81.8354599,91.6148116 C81.8942547,91.6533974 81.8942547,91.7498618 81.8354599,91.7884475 L70.0970782,99.4920907 C70.0697915,99.5099984 70.0361728,99.5099984 70.008886,99.4920907 L58.2705044,91.7884475 C58.2117096,91.7498618 58.2117096,91.6533974 58.2705044,91.6148116 L70.008886,83.9111684 C70.0361728,83.8932607 70.0697915,83.8932607 70.0970782,83.9111684 Z" id="Polygon-5-Copy-26"></path>
                    <path d="M70.1323584,99.3205326 L81.6943556,106.908419 L93.2563527,99.3205326 L81.6943556,91.7326466 L70.1323584,99.3205326 Z M81.7384517,91.5300714 L93.4768333,99.2337146 C93.5356281,99.2723004 93.5356281,99.3687648 93.4768333,99.4073505 L81.7384517,107.110994 C81.7111649,107.128901 81.6775462,107.128901 81.6502594,107.110994 L69.9118778,99.4073505 C69.853083,99.3687648 69.853083,99.2723004 69.9118778,99.2337146 L81.6502594,91.5300714 C81.6775462,91.5121637 81.7111649,91.5121637 81.7384517,91.5300714 Z" id="Polygon-5-Copy-27"></path>
                </g>
                <path d="M109.720902,60.1601807 C108.669616,57.6683556 107.25604,55.3420994 105.460767,53.1719126 C104.221867,51.6405829 102.442768,49.8195919 100.104061,47.7058895 C102.277797,48.3764156 104.034253,48.6089137 105.360491,48.3433059 C106.686729,48.0809227 107.699198,47.4451489 108.417307,46.4422592 C109.112773,45.4245246 109.465358,44.0949304 109.465358,42.4567885 C109.465358,40.1898323 108.808709,37.6826327 107.469532,34.9149997 C106.130356,32.1602654 104.221867,29.4450499 101.747302,26.8037208 C100.786588,25.7836887 99.6479644,24.7469841 98.3993601,23.689771 L98.3993601,14.9089434 L89.9437858,9.3654613 L84.9344924,12.3847949 L89.9437858,17.5529462 L84.5126805,13.9923087 L84.5126805,5.80482379 L76.0700452,0.269824457 L71.0624685,3.29955292 L76.0700452,8.45730933 L63.1699571,0 L58.1617316,3.02980586 L63.1699571,6.89115998 L65.1399053,8.18265982 C66.4564389,9.04578041 67.3395192,9.75049148 67.8085545,10.2837197 C68.274355,10.8406247 68.5913582,11.3644717 68.7919112,11.8990406 C68.9827601,12.4272473 69.0700977,13.4293398 69.0700977,14.9030226 L69.0700977,42.6546944 C69.0700977,44.1025797 68.9827601,44.9772561 68.7919112,45.2681203 C68.5913582,45.5526224 68.274355,45.6704884 67.8085545,45.5940621 C67.3395192,45.5122903 66.4564389,45.0462062 65.1399053,44.1830856 L63.1699571,42.8915858 L58.2365178,45.9640674 L63.1699571,49.769847 L76.0700452,58.2271563 L76.0700452,66.42754 L79.4868675,74.9315615 L84.5126805,71.9625393 L84.5126805,63.7621557 L89.9437858,67.3227932 L89.9437858,75.5231768 L93.3798676,84.0541391 L98.3993601,81.0666589 L98.3993601,72.1600684 C99.8258744,72.830868 101.077713,73.3129824 102.125765,73.5712022 C105.043488,74.3231761 107.307796,74.1082477 108.899281,72.9233669 C110.503706,71.7566429 111.299448,69.8340184 111.299448,67.2155711 C111.299448,64.9840864 110.768953,62.6466604 109.720902,60.1601807 Z M93.5472708,28.5446614 C94.7829362,29.7320533 95.730711,31.0209259 96.3905951,32.3854816 C97.0472446,33.7350179 97.3739519,35.0713992 97.3739519,36.3806229 C97.3739519,37.6414762 97.0343057,38.5409955 96.3388395,39.0427799 C95.6433734,39.5413395 94.6211999,39.603206 93.2432066,39.1673722 C91.8652132,38.7412125 89.7561717,37.59715 86.8869696,35.7160985 L81.4170476,32.1300127 L81.4170476,19.9890593 L86.8869696,23.5751451 C90.0828791,25.6703863 92.3083707,27.34225 93.5472708,28.5446614 Z M88.0611752,58.139694 L84.4091693,55.7454357 C83.2090859,54.9586599 82.4650989,54.3967335 82.1869124,54.0885914 C81.908726,53.7772245 81.7178771,53.4263757 81.5917228,53.0050764 C81.5043852,52.6833934 81.4396907,51.7445161 81.4170476,50.2076181 L81.4170476,39.4242588 L87.8865,43.6656376 C90.7168854,45.5212408 92.8259269,47.1812535 94.2039202,48.6006174 C95.5819136,50.0328801 96.617026,51.4918754 97.3124921,52.9571512 C97.9950193,54.4365171 98.3476045,55.902728 98.3476045,57.3893096 C98.3476045,59.1145181 97.8559261,60.2787548 96.8822735,60.8754831 C95.9086209,61.4818855 94.7214764,61.5226634 93.3176053,60.9827975 C91.9299077,60.4761079 90.1734514,59.5245042 88.0611752,58.139694 Z" id="bitcoin" fill="url(#linearGradient-3)"></path>
                <path d="M104.707413,63.1673496 C103.656127,60.6755245 102.242552,58.3492682 100.447279,56.1790815 C99.2083786,54.6477518 97.4292792,52.8267608 95.0905722,50.7130584 C97.2643082,51.3835845 99.0207645,51.6160825 100.347002,51.3504747 C101.67324,51.0880916 102.685709,50.4523178 103.403818,49.4494281 C104.099285,48.4316935 104.45187,47.1020993 104.45187,45.4639574 C104.45187,43.1970011 103.79522,40.6898016 102.456044,37.9221685 C101.116867,35.1674343 99.2083786,32.4522188 96.7338131,29.8108897 C95.7730994,28.7908576 94.6344758,27.754153 93.3858715,26.6969399 L93.3858715,17.9161123 L84.9302972,12.3726302 L84.9302972,20.5601151 L79.4991919,16.9994776 L79.4991919,8.81199268 L71.0565565,3.27699334 L71.0565565,11.4644782 L58.1564684,3.00716889 L58.1564684,9.89832886 L60.1264167,11.1898287 C61.4429502,12.0529493 62.3260305,12.7576604 62.7950658,13.2908885 C63.2608664,13.8477935 63.5778695,14.3716406 63.7784226,14.9062095 C63.9692714,15.4344162 64.056609,16.4365087 64.056609,17.9101914 L64.056609,45.6618633 C64.056609,47.1097486 63.9692714,47.984425 63.7784226,48.2752892 C63.5778695,48.5597913 63.2608664,48.6776573 62.7950658,48.601231 C62.3260305,48.5194592 61.4429502,48.0533751 60.1264167,47.1902545 L58.1564684,45.8987547 L58.1564684,52.7770159 L71.0565565,61.2343252 L71.0565565,69.4347089 L79.4991919,74.9697082 L79.4991919,66.7693246 L84.9302972,70.3299621 L84.9302972,78.5303457 L93.3858715,84.0738278 L93.3858715,75.1672373 C94.8123857,75.8380369 96.0642247,76.3201513 97.112276,76.5783711 C100.029999,77.330345 102.294307,77.1154165 103.885793,75.9305358 C105.490217,74.7638118 106.28596,72.8411873 106.28596,70.22274 C106.28596,67.9912553 105.755464,65.6538293 104.707413,63.1673496 Z M88.5337822,31.5518303 C89.7694476,32.7392222 90.7172223,34.0280948 91.3771065,35.3926505 C92.0337559,36.7421868 92.3604632,38.0785681 92.3604632,39.3877918 C92.3604632,40.6486451 92.020817,41.5481644 91.3253509,42.0499488 C90.6298847,42.5485084 89.6077113,42.6103749 88.2297179,42.1745411 C86.8517245,41.7483814 84.7426831,40.6043189 81.8734809,38.7232674 L76.4035589,35.1371816 L76.4035589,22.9962282 L81.8734809,26.582314 C85.0693904,28.6775551 87.294882,30.3494189 88.5337822,31.5518303 Z M83.0476865,61.1468629 L79.3956806,58.7526046 C78.1955972,57.9658288 77.4516102,57.4039024 77.1734237,57.0957603 C76.8952373,56.7843934 76.7043884,56.4335445 76.5782341,56.0122453 C76.4908965,55.6905622 76.426202,54.751685 76.4035589,53.214787 L76.4035589,42.4314277 L82.8730113,46.6728065 C85.7033967,48.5284097 87.8124382,50.1884224 89.1904316,51.6077863 C90.5684249,53.040049 91.6035373,54.4990443 92.2990035,55.9643201 C92.9815307,57.443686 93.3341158,58.9098969 93.3341158,60.3964784 C93.3341158,62.121687 92.8424375,63.2859237 91.8687849,63.882652 C90.8951323,64.4890544 89.7079878,64.5298323 88.3041166,63.9899664 C86.9164191,63.4832768 85.1599627,62.5316731 83.0476865,61.1468629 Z" id="bitcoin" fill="#00EBFF"></path>
            </g>
        </g>
    </g>
</svg>