<?xml version="1.0" encoding="UTF-8"?>
<svg width="1113px" height="754px" viewBox="0 0 1113 754" version="1.1" xmlns="http://www.w3.org/2000/svg" xmlns:xlink="http://www.w3.org/1999/xlink">
    <!-- Generator: Sketch 62 (91390) - https://sketch.com -->
    <title>Main Illustration</title>
    <desc>Created with Sketch.</desc>
    <defs>
        <linearGradient x1="108.043075%" y1="26.4367425%" x2="10.3729256%" y2="68.2870328%" id="linearGradient-1">
            <stop stop-color="#00EBFF" stop-opacity="0" offset="0%"></stop>
            <stop stop-color="#00EBFF" offset="100%"></stop>
        </linearGradient>
        <linearGradient x1="103.032643%" y1="73.4955057%" x2="10.4371329%" y2="32.5636631%" id="linearGradient-2">
            <stop stop-color="#00EBFF" stop-opacity="0" offset="0%"></stop>
            <stop stop-color="#00EBFF" offset="100%"></stop>
        </linearGradient>
        <linearGradient x1="40.9815641%" y1="71.7385472%" x2="119.469808%" y2="19.9332476%" id="linearGradient-3">
            <stop stop-color="#001C96" offset="0%"></stop>
            <stop stop-color="#157EFF" offset="100%"></stop>
        </linearGradient>
        <linearGradient x1="68.9102585%" y1="71.3469196%" x2="27.4463418%" y2="11.4640501%" id="linearGradient-4">
            <stop stop-color="#001C96" offset="0%"></stop>
            <stop stop-color="#157EFF" offset="100%"></stop>
        </linearGradient>
        <linearGradient x1="113.51601%" y1="84.8242347%" x2="18.4190271%" y2="39.4586387%" id="linearGradient-5">
            <stop stop-color="#093CC3" offset="0%"></stop>
            <stop stop-color="#2787FF" offset="100%"></stop>
            <stop stop-color="#2787FF" offset="100%"></stop>
        </linearGradient>
        <linearGradient x1="91.8150659%" y1="53.7372942%" x2="-15.5388327%" y2="16.7337234%" id="linearGradient-6">
            <stop stop-color="#001C96" offset="0%"></stop>
            <stop stop-color="#157EFF" offset="100%"></stop>
        </linearGradient>
        <polygon id="path-7" points="30 41.0058687 81 8.00114512 132 41.0058687 81 74.0105924"></polygon>
        <linearGradient x1="95.9659352%" y1="70.9402495%" x2="-15.5388327%" y2="16.7337234%" id="linearGradient-9">
            <stop stop-color="#001C96" offset="0%"></stop>
            <stop stop-color="#157EFF" offset="100%"></stop>
        </linearGradient>
        <linearGradient x1="96.2551054%" y1="21.2388968%" x2="1.77002106%" y2="21.2388968%" id="linearGradient-10">
            <stop stop-color="#245DF5" stop-opacity="0" offset="0%"></stop>
            <stop stop-color="#2A66F6" offset="6.36746008%"></stop>
            <stop stop-color="#00EBFF" offset="49.9581961%"></stop>
            <stop stop-color="#7AD3FF" offset="93.3668604%"></stop>
            <stop stop-color="#7DD7FF" stop-opacity="0" offset="100%"></stop>
        </linearGradient>
        <linearGradient x1="96.2551054%" y1="46.0074862%" x2="57.3730816%" y2="55.8091175%" id="linearGradient-11">
            <stop stop-color="#245DF5" stop-opacity="0" offset="0%"></stop>
            <stop stop-color="#2A66F6" offset="6.36746008%"></stop>
            <stop stop-color="#00EBFF" offset="49.9581961%"></stop>
            <stop stop-color="#7AD3FF" offset="93.3668604%"></stop>
            <stop stop-color="#7DD7FF" stop-opacity="0" offset="100%"></stop>
        </linearGradient>
        <linearGradient x1="77.2678977%" y1="75.618912%" x2="19.0006493%" y2="37.9490518%" id="linearGradient-12">
            <stop stop-color="#093CC3" offset="0%"></stop>
            <stop stop-color="#27A6FF" offset="100%"></stop>
        </linearGradient>
        <linearGradient x1="90.0770844%" y1="77.654245%" x2="-15.7108202%" y2="1.77554093%" id="linearGradient-13">
            <stop stop-color="#093CC3" offset="0%"></stop>
            <stop stop-color="#27A6FF" offset="100%"></stop>
        </linearGradient>
        <linearGradient x1="56.8169744%" y1="75.618912%" x2="42.2501623%" y2="37.9490518%" id="linearGradient-14">
            <stop stop-color="#093CC3" offset="0%"></stop>
            <stop stop-color="#27A6FF" offset="100%"></stop>
        </linearGradient>
        <linearGradient x1="112.726022%" y1="81.8818291%" x2="10.2938286%" y2="37.4570864%" id="linearGradient-15">
            <stop stop-color="#093CC3" offset="0%"></stop>
            <stop stop-color="#27A6FF" offset="100%"></stop>
        </linearGradient>
        <linearGradient x1="42.9147054%" y1="71.7385472%" x2="104.57865%" y2="19.9332476%" id="linearGradient-16">
            <stop stop-color="#001C96" offset="0%"></stop>
            <stop stop-color="#157EFF" offset="100%"></stop>
        </linearGradient>
        <linearGradient x1="64.8567616%" y1="71.3469196%" x2="32.2808175%" y2="11.4640501%" id="linearGradient-17">
            <stop stop-color="#001C96" offset="0%"></stop>
            <stop stop-color="#157EFF" offset="100%"></stop>
        </linearGradient>
        <linearGradient x1="113.51601%" y1="84.6692979%" x2="18.4190271%" y2="39.5055384%" id="linearGradient-18">
            <stop stop-color="#093CC3" offset="0%"></stop>
            <stop stop-color="#2787FF" offset="100%"></stop>
            <stop stop-color="#2787FF" offset="100%"></stop>
        </linearGradient>
        <linearGradient x1="95.7246094%" y1="71.1310481%" x2="4.51367188%" y2="28.8689519%" id="linearGradient-19">
            <stop stop-color="#093CC3" offset="0%"></stop>
            <stop stop-color="#2787FF" offset="100%"></stop>
        </linearGradient>
        <linearGradient x1="96.2551054%" y1="21.2388968%" x2="1.77002106%" y2="21.2388968%" id="linearGradient-20">
            <stop stop-color="#245DF5" stop-opacity="0" offset="0%"></stop>
            <stop stop-color="#2A66F6" offset="6.36746008%"></stop>
            <stop stop-color="#00EBFF" offset="49.9581961%"></stop>
            <stop stop-color="#7AD3FF" offset="93.3668604%"></stop>
            <stop stop-color="#7DD7FF" stop-opacity="0" offset="100%"></stop>
        </linearGradient>
        <linearGradient x1="85.5573719%" y1="85.3219167%" x2="22.8943478%" y2="37.9490518%" id="linearGradient-21">
            <stop stop-color="#093CC3" offset="0%"></stop>
            <stop stop-color="#27A6FF" offset="100%"></stop>
        </linearGradient>
        <linearGradient x1="62.1309184%" y1="101.196997%" x2="28.2679106%" y2="-46.1189921%" id="linearGradient-22">
            <stop stop-color="#093CC3" offset="0%"></stop>
            <stop stop-color="#27A6FF" offset="100%"></stop>
        </linearGradient>
        <linearGradient x1="57.800905%" y1="85.2957012%" x2="40.1884721%" y2="31.0478752%" id="linearGradient-23">
            <stop stop-color="#093CC3" offset="0%"></stop>
            <stop stop-color="#27A6FF" offset="100%"></stop>
        </linearGradient>
        <linearGradient x1="229.523026%" y1="125.347896%" x2="10.2938286%" y2="37.2730402%" id="linearGradient-24">
            <stop stop-color="#093CC3" offset="0%"></stop>
            <stop stop-color="#27A6FF" offset="100%"></stop>
        </linearGradient>
        <linearGradient x1="112.726022%" y1="82.3496413%" x2="10.2938286%" y2="37.2730402%" id="linearGradient-25">
            <stop stop-color="#093CC3" offset="0%"></stop>
            <stop stop-color="#27A6FF" offset="100%"></stop>
        </linearGradient>
        <linearGradient x1="147.115249%" y1="80.5690385%" x2="-32.2754599%" y2="37.9490518%" id="linearGradient-26">
            <stop stop-color="#093CC3" offset="0%"></stop>
            <stop stop-color="#27A6FF" offset="100%"></stop>
        </linearGradient>
        <linearGradient x1="78.8806093%" y1="79.8342996%" x2="-33.4081621%" y2="-43.2148737%" id="linearGradient-27">
            <stop stop-color="#093CC3" offset="0%"></stop>
            <stop stop-color="#27A6FF" offset="100%"></stop>
        </linearGradient>
        <linearGradient x1="74.9007393%" y1="88.7037219%" x2="10.1848376%" y2="19.3478777%" id="linearGradient-28">
            <stop stop-color="#093CC3" offset="0%"></stop>
            <stop stop-color="#27A6FF" offset="100%"></stop>
        </linearGradient>
        <linearGradient x1="132.220395%" y1="88.9570939%" x2="10.2938286%" y2="37.2730402%" id="linearGradient-29">
            <stop stop-color="#093CC3" offset="0%"></stop>
            <stop stop-color="#27A6FF" offset="100%"></stop>
        </linearGradient>
        <linearGradient x1="44.6095492%" y1="71.7385472%" x2="91.5231183%" y2="19.9332476%" id="linearGradient-30">
            <stop stop-color="#001C96" offset="0%"></stop>
            <stop stop-color="#157EFF" offset="100%"></stop>
        </linearGradient>
        <linearGradient x1="61.3029375%" y1="71.3469196%" x2="36.5193493%" y2="11.4640501%" id="linearGradient-31">
            <stop stop-color="#001C96" offset="0%"></stop>
            <stop stop-color="#157EFF" offset="100%"></stop>
        </linearGradient>
        <linearGradient x1="113.51601%" y1="85.1354103%" x2="18.4190271%" y2="39.3644453%" id="linearGradient-32">
            <stop stop-color="#093CC3" offset="0%"></stop>
            <stop stop-color="#2787FF" offset="100%"></stop>
            <stop stop-color="#2787FF" offset="100%"></stop>
        </linearGradient>
        <linearGradient x1="95.9659352%" y1="61.4157346%" x2="-15.5388327%" y2="31.864639%" id="linearGradient-33">
            <stop stop-color="#001C96" offset="0%"></stop>
            <stop stop-color="#157EFF" offset="100%"></stop>
        </linearGradient>
        <linearGradient x1="95.9659352%" y1="95.6629383%" x2="-15.5388327%" y2="-22.541444%" id="linearGradient-34">
            <stop stop-color="#001C96" offset="0%"></stop>
            <stop stop-color="#157EFF" offset="100%"></stop>
        </linearGradient>
        <linearGradient x1="122.716567%" y1="91.0422613%" x2="30.279182%" y2="45.7315972%" id="linearGradient-35">
            <stop stop-color="#093CC3" offset="0%"></stop>
            <stop stop-color="#2787FF" offset="100%"></stop>
            <stop stop-color="#2787FF" offset="100%"></stop>
        </linearGradient>
        <linearGradient x1="96.875%" y1="21.2388968%" x2="2.80975877%" y2="21.2388968%" id="linearGradient-36">
            <stop stop-color="#245DF5" stop-opacity="0" offset="0%"></stop>
            <stop stop-color="#2A66F6" offset="6.36746008%"></stop>
            <stop stop-color="#00EBFF" offset="49.9581961%"></stop>
            <stop stop-color="#7AD3FF" offset="81.6534314%"></stop>
            <stop stop-color="#7DD7FF" stop-opacity="0" offset="100%"></stop>
        </linearGradient>
        <linearGradient x1="120.496835%" y1="75.618912%" x2="-30.1439166%" y2="37.9490518%" id="linearGradient-37">
            <stop stop-color="#093CC3" offset="0%"></stop>
            <stop stop-color="#27A6FF" offset="100%"></stop>
        </linearGradient>
        <linearGradient x1="75.853585%" y1="79.8342996%" x2="-24.666015%" y2="-43.2148737%" id="linearGradient-38">
            <stop stop-color="#093CC3" offset="0%"></stop>
            <stop stop-color="#27A6FF" offset="100%"></stop>
        </linearGradient>
        <linearGradient x1="67.6242088%" y1="75.618912%" x2="29.9640209%" y2="37.9490518%" id="linearGradient-39">
            <stop stop-color="#093CC3" offset="0%"></stop>
            <stop stop-color="#27A6FF" offset="100%"></stop>
        </linearGradient>
        <linearGradient x1="103.325998%" y1="85.3219167%" x2="9.34919025%" y2="37.9490518%" id="linearGradient-40">
            <stop stop-color="#093CC3" offset="0%"></stop>
            <stop stop-color="#27A6FF" offset="100%"></stop>
        </linearGradient>
        <linearGradient x1="67.7803857%" y1="77.654245%" x2="20.8470877%" y2="1.77554093%" id="linearGradient-41">
            <stop stop-color="#093CC3" offset="0%"></stop>
            <stop stop-color="#27A6FF" offset="100%"></stop>
        </linearGradient>
        <linearGradient x1="61.6991505%" y1="85.2957012%" x2="35.285484%" y2="31.0478752%" id="linearGradient-42">
            <stop stop-color="#093CC3" offset="0%"></stop>
            <stop stop-color="#27A6FF" offset="100%"></stop>
        </linearGradient>
        <linearGradient x1="34.2589336%" y1="79.181241%" x2="115.433882%" y2="-30.373809%" id="linearGradient-43">
            <stop stop-color="#001C96" offset="0%"></stop>
            <stop stop-color="#157EFF" offset="100%"></stop>
        </linearGradient>
        <linearGradient x1="92.0682584%" y1="83.6417814%" x2="-48.4666306%" y2="6.12376774%" id="linearGradient-44">
            <stop stop-color="#001C96" offset="0%"></stop>
            <stop stop-color="#157EFF" offset="100%"></stop>
        </linearGradient>
        <linearGradient x1="68.0473622%" y1="175.861565%" x2="40.6863174%" y2="-3.27571358%" id="linearGradient-45">
            <stop stop-color="#093CC3" offset="0%"></stop>
            <stop stop-color="#27A6FF" offset="100%"></stop>
        </linearGradient>
        <linearGradient x1="50%" y1="4.96506628%" x2="50%" y2="82.8906011%" id="linearGradient-46">
            <stop stop-color="#00EBFF" stop-opacity="0" offset="0%"></stop>
            <stop stop-color="#00EBFF" offset="100%"></stop>
        </linearGradient>
        <linearGradient x1="50%" y1="4.96506628%" x2="50%" y2="82.8906011%" id="linearGradient-47">
            <stop stop-color="#00EBFF" stop-opacity="0" offset="0%"></stop>
            <stop stop-color="#00EBFF" offset="100%"></stop>
        </linearGradient>
        <linearGradient x1="50%" y1="4.96506628%" x2="50%" y2="82.8906011%" id="linearGradient-48">
            <stop stop-color="#00EBFF" stop-opacity="0" offset="0%"></stop>
            <stop stop-color="#00EBFF" offset="100%"></stop>
        </linearGradient>
        <linearGradient x1="50%" y1="4.96506628%" x2="50%" y2="82.8906011%" id="linearGradient-49">
            <stop stop-color="#00EBFF" stop-opacity="0" offset="0%"></stop>
            <stop stop-color="#00EBFF" offset="100%"></stop>
        </linearGradient>
        <linearGradient x1="51.4177303%" y1="54.6068717%" x2="30.1794602%" y2="-46.36317%" id="linearGradient-50">
            <stop stop-color="#001C96" offset="0%"></stop>
            <stop stop-color="#157EFF" offset="100%"></stop>
        </linearGradient>
        <linearGradient x1="56.6030487%" y1="63.1403647%" x2="20.786418%" y2="-42.8698081%" id="linearGradient-51">
            <stop stop-color="#001C96" offset="0%"></stop>
            <stop stop-color="#157EFF" offset="100%"></stop>
        </linearGradient>
        <linearGradient x1="74.4883781%" y1="175.861565%" x2="37.3623093%" y2="-3.27571358%" id="linearGradient-52">
            <stop stop-color="#093CC3" offset="0%"></stop>
            <stop stop-color="#27A6FF" offset="100%"></stop>
        </linearGradient>
        <linearGradient x1="59.6678835%" y1="23.1082115%" x2="37.9229997%" y2="100%" id="linearGradient-53">
            <stop stop-color="#001C96" offset="0%"></stop>
            <stop stop-color="#157EFF" offset="100%"></stop>
        </linearGradient>
        <linearGradient x1="-3.99710562%" y1="133.184834%" x2="24.4065529%" y2="44.9350852%" id="linearGradient-54">
            <stop stop-color="#093CC3" offset="0%"></stop>
            <stop stop-color="#27A6FF" offset="100%"></stop>
        </linearGradient>
        <linearGradient x1="59.8652553%" y1="83.6417814%" x2="26.908993%" y2="6.12376774%" id="linearGradient-55">
            <stop stop-color="#001C96" offset="0%"></stop>
            <stop stop-color="#157EFF" offset="100%"></stop>
        </linearGradient>
        <path d="M22.5471606,67.3076539 C17.0955656,70.9016338 12.4933333,72.454133 8.74046353,71.9651516 C3.1111589,71.2316795 0.109318592,67.9646683 0.109318592,60.5310139 C0.109318592,53.0973595 0.623156165,44.130337 0.623156165,38.084159 C0.623156165,32.0379809 2.19742427,23.5525817 6.68631896,14.2283553 C9.67891542,8.01220436 11.9268459,3.27557334 13.4301106,0.0184622251 C17.9795592,4.14222764 21.0185758,6.8565092 22.5471606,8.1613069 C24.8400377,10.1185034 30.9502235,13.1178123 26.4544964,23.0896213 C24.5380033,27.340525 19.4210396,35.1545088 18.8904135,46.0223138 C18.690943,50.1076868 19.9098587,57.2028002 22.5471606,67.3076539 Z" id="path-56"></path>
        <linearGradient x1="59.8987154%" y1="83.6417814%" x2="26.8306749%" y2="6.12376774%" id="linearGradient-58">
            <stop stop-color="#001C96" offset="0%"></stop>
            <stop stop-color="#157EFF" offset="100%"></stop>
        </linearGradient>
        <linearGradient x1="53.5265824%" y1="83.6417814%" x2="41.7455416%" y2="6.12376774%" id="linearGradient-59">
            <stop stop-color="#001C96" offset="0%"></stop>
            <stop stop-color="#157EFF" offset="100%"></stop>
        </linearGradient>
        <path d="M0.774072089,53.0893325 C-0.14602606,58.8693468 -0.14602606,62.7425343 0.774072089,64.7088951 C2.15421931,67.6584362 5.13917955,65.8186353 5.13917955,60.9460126 C5.13917955,56.0733899 5.55856907,48.9774738 6.46788273,44.6844045 C7.37719638,40.3913351 8.92594342,33.9207265 8.92594342,26.7409277 C8.92594342,19.5611289 10.8149044,10.3474752 15.3974433,2.25560229 L13.338074,0.128633547 C7.56910678,0.169571524 4.50383221,2.44664618 4.14225025,6.95985753 C3.59987731,13.7296745 4.31205579,32.5481002 3.0741835,39.781279 C2.2489353,44.6033981 1.4822315,49.0394159 0.774072089,53.0893325 Z" id="path-60"></path>
        <linearGradient x1="57.1998241%" y1="83.6417814%" x2="33.1478067%" y2="6.12376774%" id="linearGradient-62">
            <stop stop-color="#001C96" offset="0%"></stop>
            <stop stop-color="#157EFF" offset="100%"></stop>
        </linearGradient>
        <linearGradient x1="114.484312%" y1="175.861565%" x2="16.7216511%" y2="-3.27571358%" id="linearGradient-63">
            <stop stop-color="#093CC3" offset="0%"></stop>
            <stop stop-color="#27A6FF" offset="100%"></stop>
        </linearGradient>
    </defs>
    <g id="Example-Usage" stroke="none" stroke-width="1" fill="none" fill-rule="evenodd">
        <g id="Cloud-Data-Storage" transform="translate(-164.000000, -135.000000)">
            <g id="Main-Illustration" transform="translate(164.000000, 136.000000)">
                <path d="M556.626572,752.350352 L556.626572,731.131006 C927.021854,491.005488 1112.2195,370.94273 1112.2195,370.94273 L1112.2195,390.329887 C1112.48623,390.503553 927.288584,511.177042 556.626572,752.350352 Z" id="Base" fill="url(#linearGradient-1)" fill-rule="nonzero"></path>
                <path d="M556.626572,752.350352 L0.433360513,391.502136 C0.166437942,391.328469 0.166437942,384.475334 0.433360513,370.94273 C0.488366549,370.906947 185.886104,490.969706 556.626572,731.131006 L556.626572,752.350352 Z" id="Base" fill="url(#linearGradient-2)" fill-rule="nonzero"></path>
                <g id="Radar" opacity="0.100000001" transform="translate(0.000000, 9.001288)" fill="#00EBFF" fill-rule="nonzero">
                    <path d="M477.590821,53.2918511 L556.326284,104.519117 L635.061747,53.2918511 L556.326284,2.06458506 L477.590821,53.2918511 Z M556.626572,0.696961247 L636.563186,52.7057266 C636.96357,52.9662264 636.96357,53.6174758 636.563186,53.8779756 L556.626572,105.886741 C556.440753,106.007639 556.211815,106.007639 556.025996,105.886741 L476.089381,53.8779756 C475.688997,53.6174758 475.688997,52.9662264 476.089381,52.7057266 L556.025996,0.696961247 C556.211815,0.576062881 556.440753,0.576062881 556.626572,0.696961247 Z" id="Polygon-5-Copy-21"></path>
                    <path d="M556.866824,104.728519 L635.602287,155.955785 L714.33775,104.728519 L635.602287,53.5012532 L556.866824,104.728519 Z M635.902575,52.1336294 L715.83919,104.142395 C716.239574,104.402895 716.239574,105.054144 715.83919,105.314644 L635.902575,157.323409 C635.716756,157.444308 635.487818,157.444308 635.301999,157.323409 L555.365385,105.314644 C554.965001,105.054144 554.965001,104.402895 555.365385,104.142395 L635.301999,52.1336294 C635.487818,52.0127311 635.716756,52.0127311 635.902575,52.1336294 Z" id="Polygon-5-Copy-22"></path>
                    <path d="M714.878291,104.937921 L636.142828,156.165187 L714.878291,207.392454 L793.613754,156.165187 L714.878291,104.937921 Z M715.178579,103.570298 L795.115193,155.579063 C795.515577,155.839563 795.515577,156.490812 795.115193,156.751312 L715.178579,208.760077 C714.99276,208.880976 714.763822,208.880976 714.578003,208.760077 L634.641388,156.751312 C634.241004,156.490812 634.241004,155.839563 634.641388,155.579063 L714.578003,103.570298 C714.763822,103.449399 714.99276,103.449399 715.178579,103.570298 Z" id="Polygon-5-Copy-23"></path>
                    <path d="M794.154294,156.37459 L715.418831,207.601856 L794.154294,258.829122 L872.889757,207.601856 L794.154294,156.37459 Z M794.454582,155.006966 L874.391197,207.015731 C874.79158,207.276231 874.79158,207.92748 874.391197,208.18798 L794.454582,260.196746 C794.268763,260.317644 794.039825,260.317644 793.854006,260.196746 L713.917392,208.18798 C713.517008,207.92748 713.517008,207.276231 713.917392,207.015731 L793.854006,155.006966 C794.039825,154.886067 794.268763,154.886067 794.454582,155.006966 Z" id="Polygon-5-Copy-24"></path>
                    <path d="M794.694835,259.038524 L873.430298,310.26579 L952.165761,259.038524 L873.430298,207.811258 L794.694835,259.038524 Z M873.730586,206.443634 L953.6672,258.452399 C954.067584,258.712899 954.067584,259.364149 953.6672,259.624648 L873.730586,311.633414 C873.544767,311.754312 873.315829,311.754312 873.13001,311.633414 L793.193395,259.624648 C792.793011,259.364149 792.793011,258.712899 793.193395,258.452399 L873.13001,206.443634 C873.315829,206.322736 873.544767,206.322736 873.730586,206.443634 Z" id="Polygon-5-Copy-25"></path>
                    <path d="M873.970838,310.475192 L952.706301,361.702458 L1031.44176,310.475192 L952.706301,259.247926 L873.970838,310.475192 Z M953.006589,257.880302 L1032.9432,309.889068 C1033.34359,310.149567 1033.34359,310.800817 1032.9432,311.061317 L953.006589,363.070082 C952.82077,363.19098 952.591832,363.19098 952.406013,363.070082 L872.469399,311.061317 C872.069015,310.800817 872.069015,310.149567 872.469399,309.889068 L952.406013,257.880302 C952.591832,257.759404 952.82077,257.759404 953.006589,257.880302 Z" id="Polygon-5-Copy-26"></path>
                    <path d="M953.246842,361.91186 L1031.9823,413.139126 L1110.71777,361.91186 L1031.9823,310.684594 L953.246842,361.91186 Z M1032.28259,309.31697 L1112.21921,361.325736 C1112.61959,361.586236 1112.61959,362.237485 1112.21921,362.497985 L1032.28259,414.50675 C1032.09677,414.627648 1031.86784,414.627648 1031.68202,414.50675 L951.745402,362.497985 C951.345018,362.237485 951.345018,361.586236 951.745402,361.325736 L1031.68202,309.31697 C1031.86784,309.196072 1032.09677,309.196072 1032.28259,309.31697 Z" id="Polygon-5-Copy-27"></path>
                    <path d="M398.314817,104.728519 L477.05028,155.955785 L555.785743,104.728519 L477.05028,53.5012532 L398.314817,104.728519 Z M477.350568,52.1336294 L557.287183,104.142395 C557.687567,104.402895 557.687567,105.054144 557.287183,105.314644 L477.350568,157.323409 C477.164749,157.444308 476.935811,157.444308 476.749992,157.323409 L396.813378,105.314644 C396.412994,105.054144 396.412994,104.402895 396.813378,104.142395 L476.749992,52.1336294 C476.935811,52.0127311 477.164749,52.0127311 477.350568,52.1336294 Z" id="Polygon-5-Copy-21"></path>
                    <path d="M477.590821,156.165187 L556.326284,207.392454 L635.061747,156.165187 L556.326284,104.937921 L477.590821,156.165187 Z M556.626572,103.570298 L636.563186,155.579063 C636.96357,155.839563 636.96357,156.490812 636.563186,156.751312 L556.626572,208.760077 C556.440753,208.880976 556.211815,208.880976 556.025996,208.760077 L476.089381,156.751312 C475.688997,156.490812 475.688997,155.839563 476.089381,155.579063 L556.025996,103.570298 C556.211815,103.449399 556.440753,103.449399 556.626572,103.570298 Z" id="Polygon-5-Copy-22"></path>
                    <path d="M556.866824,207.601856 L635.602287,258.829122 L714.33775,207.601856 L635.602287,156.37459 L556.866824,207.601856 Z M635.902575,155.006966 L715.83919,207.015731 C716.239574,207.276231 716.239574,207.92748 715.83919,208.18798 L635.902575,260.196746 C635.716756,260.317644 635.487818,260.317644 635.301999,260.196746 L555.365385,208.18798 C554.965001,207.92748 554.965001,207.276231 555.365385,207.015731 L635.301999,155.006966 C635.487818,154.886067 635.716756,154.886067 635.902575,155.006966 Z" id="Polygon-5-Copy-23"></path>
                    <path d="M636.142828,259.038524 L714.878291,310.26579 L793.613754,259.038524 L714.878291,207.811258 L636.142828,259.038524 Z M715.178579,206.443634 L795.115193,258.452399 C795.515577,258.712899 795.515577,259.364149 795.115193,259.624648 L715.178579,311.633414 C714.99276,311.754312 714.763822,311.754312 714.578003,311.633414 L634.641388,259.624648 C634.241004,259.364149 634.241004,258.712899 634.641388,258.452399 L714.578003,206.443634 C714.763822,206.322736 714.99276,206.322736 715.178579,206.443634 Z" id="Polygon-5-Copy-24"></path>
                    <path d="M715.418831,310.475192 L794.154294,361.702458 L872.889757,310.475192 L794.154294,259.247926 L715.418831,310.475192 Z M794.454582,257.880302 L874.391197,309.889068 C874.79158,310.149567 874.79158,310.800817 874.391197,311.061317 L794.454582,363.070082 C794.268763,363.19098 794.039825,363.19098 793.854006,363.070082 L713.917392,311.061317 C713.517008,310.800817 713.517008,310.149567 713.917392,309.889068 L793.854006,257.880302 C794.039825,257.759404 794.268763,257.759404 794.454582,257.880302 Z" id="Polygon-5-Copy-25"></path>
                    <path d="M794.694835,361.91186 L873.430298,413.139126 L952.165761,361.91186 L873.430298,310.684594 L794.694835,361.91186 Z M873.730586,309.31697 L953.6672,361.325736 C954.067584,361.586236 954.067584,362.237485 953.6672,362.497985 L873.730586,414.50675 C873.544767,414.627648 873.315829,414.627648 873.13001,414.50675 L793.193395,362.497985 C792.793011,362.237485 792.793011,361.586236 793.193395,361.325736 L873.13001,309.31697 C873.315829,309.196072 873.544767,309.196072 873.730586,309.31697 Z" id="Polygon-5-Copy-26"></path>
                    <path d="M873.970838,413.348528 L952.706301,464.575794 L1031.44176,413.348528 L952.706301,362.121262 L873.970838,413.348528 Z M953.006589,360.753639 L1032.9432,412.762404 C1033.34359,413.022904 1033.34359,413.674153 1032.9432,413.934653 L953.006589,465.943418 C952.82077,466.064317 952.591832,466.064317 952.406013,465.943418 L872.469399,413.934653 C872.069015,413.674153 872.069015,413.022904 872.469399,412.762404 L952.406013,360.753639 C952.591832,360.63274 952.82077,360.63274 953.006589,360.753639 Z" id="Polygon-5-Copy-27"></path>
                    <path d="M319.038814,156.165187 L397.774277,207.392454 L476.50974,156.165187 L397.774277,104.937921 L319.038814,156.165187 Z M398.074565,103.570298 L478.011179,155.579063 C478.411563,155.839563 478.411563,156.490812 478.011179,156.751312 L398.074565,208.760077 C397.888746,208.880976 397.659808,208.880976 397.473989,208.760077 L317.537374,156.751312 C317.136991,156.490812 317.136991,155.839563 317.537374,155.579063 L397.473989,103.570298 C397.659808,103.449399 397.888746,103.449399 398.074565,103.570298 Z" id="Polygon-5-Copy-21"></path>
                    <path d="M477.05028,156.37459 L398.314817,207.601856 L477.05028,258.829122 L555.785743,207.601856 L477.05028,156.37459 Z M477.350568,155.006966 L557.287183,207.015731 C557.687567,207.276231 557.687567,207.92748 557.287183,208.18798 L477.350568,260.196746 C477.164749,260.317644 476.935811,260.317644 476.749992,260.196746 L396.813378,208.18798 C396.412994,207.92748 396.412994,207.276231 396.813378,207.015731 L476.749992,155.006966 C476.935811,154.886067 477.164749,154.886067 477.350568,155.006966 Z" id="Polygon-5-Copy-22"></path>
                    <path d="M477.590821,259.038524 L556.326284,310.26579 L635.061747,259.038524 L556.326284,207.811258 L477.590821,259.038524 Z M556.626572,206.443634 L636.563186,258.452399 C636.96357,258.712899 636.96357,259.364149 636.563186,259.624648 L556.626572,311.633414 C556.440753,311.754312 556.211815,311.754312 556.025996,311.633414 L476.089381,259.624648 C475.688997,259.364149 475.688997,258.712899 476.089381,258.452399 L556.025996,206.443634 C556.211815,206.322736 556.440753,206.322736 556.626572,206.443634 Z" id="Polygon-5-Copy-23"></path>
                    <path d="M556.866824,310.475192 L635.602287,361.702458 L714.33775,310.475192 L635.602287,259.247926 L556.866824,310.475192 Z M635.902575,257.880302 L715.83919,309.889068 C716.239574,310.149567 716.239574,310.800817 715.83919,311.061317 L635.902575,363.070082 C635.716756,363.19098 635.487818,363.19098 635.301999,363.070082 L555.365385,311.061317 C554.965001,310.800817 554.965001,310.149567 555.365385,309.889068 L635.301999,257.880302 C635.487818,257.759404 635.716756,257.759404 635.902575,257.880302 Z" id="Polygon-5-Copy-24"></path>
                    <path d="M636.142828,361.91186 L714.878291,413.139126 L793.613754,361.91186 L714.878291,310.684594 L636.142828,361.91186 Z M715.178579,309.31697 L795.115193,361.325736 C795.515577,361.586236 795.515577,362.237485 795.115193,362.497985 L715.178579,414.50675 C714.99276,414.627648 714.763822,414.627648 714.578003,414.50675 L634.641388,362.497985 C634.241004,362.237485 634.241004,361.586236 634.641388,361.325736 L714.578003,309.31697 C714.763822,309.196072 714.99276,309.196072 715.178579,309.31697 Z" id="Polygon-5-Copy-25"></path>
                    <path d="M715.418831,413.348528 L794.154294,464.575794 L872.889757,413.348528 L794.154294,362.121262 L715.418831,413.348528 Z M794.454582,360.753639 L874.391197,412.762404 C874.79158,413.022904 874.79158,413.674153 874.391197,413.934653 L794.454582,465.943418 C794.268763,466.064317 794.039825,466.064317 793.854006,465.943418 L713.917392,413.934653 C713.517008,413.674153 713.517008,413.022904 713.917392,412.762404 L793.854006,360.753639 C794.039825,360.63274 794.268763,360.63274 794.454582,360.753639 Z" id="Polygon-5-Copy-26"></path>
                    <path d="M794.694835,464.785197 L873.430298,516.012463 L952.165761,464.785197 L873.430298,413.557931 L794.694835,464.785197 Z M873.730586,412.190307 L953.6672,464.199072 C954.067584,464.459572 954.067584,465.110821 953.6672,465.371321 L873.730586,517.380086 C873.544767,517.500985 873.315829,517.500985 873.13001,517.380086 L793.193395,465.371321 C792.793011,465.110821 792.793011,464.459572 793.193395,464.199072 L873.13001,412.190307 C873.315829,412.069408 873.544767,412.069408 873.730586,412.190307 Z" id="Polygon-5-Copy-27"></path>
                    <path d="M318.498273,156.37459 L239.76281,207.601856 L318.498273,258.829122 L397.233736,207.601856 L318.498273,156.37459 Z M318.798561,155.006966 L398.735176,207.015731 C399.13556,207.276231 399.13556,207.92748 398.735176,208.18798 L318.798561,260.196746 C318.612742,260.317644 318.383804,260.317644 318.197985,260.196746 L238.261371,208.18798 C237.860987,207.92748 237.860987,207.276231 238.261371,207.015731 L318.197985,155.006966 C318.383804,154.886067 318.612742,154.886067 318.798561,155.006966 Z" id="Polygon-5-Copy-21"></path>
                    <path d="M319.038814,259.038524 L397.774277,310.26579 L476.50974,259.038524 L397.774277,207.811258 L319.038814,259.038524 Z M398.074565,206.443634 L478.011179,258.452399 C478.411563,258.712899 478.411563,259.364149 478.011179,259.624648 L398.074565,311.633414 C397.888746,311.754312 397.659808,311.754312 397.473989,311.633414 L317.537374,259.624648 C317.136991,259.364149 317.136991,258.712899 317.537374,258.452399 L397.473989,206.443634 C397.659808,206.322736 397.888746,206.322736 398.074565,206.443634 Z" id="Polygon-5-Copy-22"></path>
                    <path d="M398.314817,310.475192 L477.05028,361.702458 L555.785743,310.475192 L477.05028,259.247926 L398.314817,310.475192 Z M477.350568,257.880302 L557.287183,309.889068 C557.687567,310.149567 557.687567,310.800817 557.287183,311.061317 L477.350568,363.070082 C477.164749,363.19098 476.935811,363.19098 476.749992,363.070082 L396.813378,311.061317 C396.412994,310.800817 396.412994,310.149567 396.813378,309.889068 L476.749992,257.880302 C476.935811,257.759404 477.164749,257.759404 477.350568,257.880302 Z" id="Polygon-5-Copy-23"></path>
                    <path d="M477.590821,361.91186 L556.326284,413.139126 L635.061747,361.91186 L556.326284,310.684594 L477.590821,361.91186 Z M556.626572,309.31697 L636.563186,361.325736 C636.96357,361.586236 636.96357,362.237485 636.563186,362.497985 L556.626572,414.50675 C556.440753,414.627648 556.211815,414.627648 556.025996,414.50675 L476.089381,362.497985 C475.688997,362.237485 475.688997,361.586236 476.089381,361.325736 L556.025996,309.31697 C556.211815,309.196072 556.440753,309.196072 556.626572,309.31697 Z" id="Polygon-5-Copy-24"></path>
                    <path d="M556.866824,413.348528 L635.602287,464.575794 L714.33775,413.348528 L635.602287,362.121262 L556.866824,413.348528 Z M635.902575,360.753639 L715.83919,412.762404 C716.239574,413.022904 716.239574,413.674153 715.83919,413.934653 L635.902575,465.943418 C635.716756,466.064317 635.487818,466.064317 635.301999,465.943418 L555.365385,413.934653 C554.965001,413.674153 554.965001,413.022904 555.365385,412.762404 L635.301999,360.753639 C635.487818,360.63274 635.716756,360.63274 635.902575,360.753639 Z" id="Polygon-5-Copy-25"></path>
                    <path d="M636.142828,464.785197 L714.878291,516.012463 L793.613754,464.785197 L714.878291,413.557931 L636.142828,464.785197 Z M715.178579,412.190307 L795.115193,464.199072 C795.515577,464.459572 795.515577,465.110821 795.115193,465.371321 L715.178579,517.380086 C714.99276,517.500985 714.763822,517.500985 714.578003,517.380086 L634.641388,465.371321 C634.241004,465.110821 634.241004,464.459572 634.641388,464.199072 L714.578003,412.190307 C714.763822,412.069408 714.99276,412.069408 715.178579,412.190307 Z" id="Polygon-5-Copy-26"></path>
                    <path d="M715.418831,516.221865 L794.154294,567.449131 L872.889757,516.221865 L794.154294,464.994599 L715.418831,516.221865 Z M794.454582,463.626975 L874.391197,515.63574 C874.79158,515.89624 874.79158,516.54749 874.391197,516.807989 L794.454582,568.816755 C794.268763,568.937653 794.039825,568.937653 793.854006,568.816755 L713.917392,516.807989 C713.517008,516.54749 713.517008,515.89624 713.917392,515.63574 L793.854006,463.626975 C794.039825,463.506077 794.268763,463.506077 794.454582,463.626975 Z" id="Polygon-5-Copy-27"></path>
                    <path d="M160.486807,259.038524 L239.22227,310.26579 L317.957733,259.038524 L239.22227,207.811258 L160.486807,259.038524 Z M239.522558,206.443634 L319.459172,258.452399 C319.859556,258.712899 319.859556,259.364149 319.459172,259.624648 L239.522558,311.633414 C239.336739,311.754312 239.107801,311.754312 238.921982,311.633414 L158.985367,259.624648 C158.584984,259.364149 158.584984,258.712899 158.985367,258.452399 L238.921982,206.443634 C239.107801,206.322736 239.336739,206.322736 239.522558,206.443634 Z" id="Polygon-5-Copy-21"></path>
                    <path d="M239.76281,310.475192 L318.498273,361.702458 L397.233736,310.475192 L318.498273,259.247926 L239.76281,310.475192 Z M318.798561,257.880302 L398.735176,309.889068 C399.13556,310.149567 399.13556,310.800817 398.735176,311.061317 L318.798561,363.070082 C318.612742,363.19098 318.383804,363.19098 318.197985,363.070082 L238.261371,311.061317 C237.860987,310.800817 237.860987,310.149567 238.261371,309.889068 L318.197985,257.880302 C318.383804,257.759404 318.612742,257.759404 318.798561,257.880302 Z" id="Polygon-5-Copy-22"></path>
                    <path d="M319.038814,361.91186 L397.774277,413.139126 L476.50974,361.91186 L397.774277,310.684594 L319.038814,361.91186 Z M398.074565,309.31697 L478.011179,361.325736 C478.411563,361.586236 478.411563,362.237485 478.011179,362.497985 L398.074565,414.50675 C397.888746,414.627648 397.659808,414.627648 397.473989,414.50675 L317.537374,362.497985 C317.136991,362.237485 317.136991,361.586236 317.537374,361.325736 L397.473989,309.31697 C397.659808,309.196072 397.888746,309.196072 398.074565,309.31697 Z" id="Polygon-5-Copy-23"></path>
                    <path d="M398.314817,413.348528 L477.05028,464.575794 L555.785743,413.348528 L477.05028,362.121262 L398.314817,413.348528 Z M477.350568,360.753639 L557.287183,412.762404 C557.687567,413.022904 557.687567,413.674153 557.287183,413.934653 L477.350568,465.943418 C477.164749,466.064317 476.935811,466.064317 476.749992,465.943418 L396.813378,413.934653 C396.412994,413.674153 396.412994,413.022904 396.813378,412.762404 L476.749992,360.753639 C476.935811,360.63274 477.164749,360.63274 477.350568,360.753639 Z" id="Polygon-5-Copy-24"></path>
                    <path d="M477.590821,464.785197 L556.326284,516.012463 L635.061747,464.785197 L556.326284,413.557931 L477.590821,464.785197 Z M556.626572,412.190307 L636.563186,464.199072 C636.96357,464.459572 636.96357,465.110821 636.563186,465.371321 L556.626572,517.380086 C556.440753,517.500985 556.211815,517.500985 556.025996,517.380086 L476.089381,465.371321 C475.688997,465.110821 475.688997,464.459572 476.089381,464.199072 L556.025996,412.190307 C556.211815,412.069408 556.440753,412.069408 556.626572,412.190307 Z" id="Polygon-5-Copy-25"></path>
                    <path d="M556.866824,516.221865 L635.602287,567.449131 L714.33775,516.221865 L635.602287,464.994599 L556.866824,516.221865 Z M635.902575,463.626975 L715.83919,515.63574 C716.239574,515.89624 716.239574,516.54749 715.83919,516.807989 L635.902575,568.816755 C635.716756,568.937653 635.487818,568.937653 635.301999,568.816755 L555.365385,516.807989 C554.965001,516.54749 554.965001,515.89624 555.365385,515.63574 L635.301999,463.626975 C635.487818,463.506077 635.716756,463.506077 635.902575,463.626975 Z" id="Polygon-5-Copy-26"></path>
                    <path d="M636.142828,567.658533 L714.878291,618.885799 L793.613754,567.658533 L714.878291,516.431267 L636.142828,567.658533 Z M715.178579,515.063643 L795.115193,567.072408 C795.515577,567.332908 795.515577,567.984158 795.115193,568.244657 L715.178579,620.253423 C714.99276,620.374321 714.763822,620.374321 714.578003,620.253423 L634.641388,568.244657 C634.241004,567.984158 634.241004,567.332908 634.641388,567.072408 L714.578003,515.063643 C714.763822,514.942745 714.99276,514.942745 715.178579,515.063643 Z" id="Polygon-5-Copy-27"></path>
                    <path d="M81.2108034,310.475192 L159.946266,361.702458 L238.681729,310.475192 L159.946266,259.247926 L81.2108034,310.475192 Z M160.246554,257.880302 L240.183169,309.889068 C240.583553,310.149567 240.583553,310.800817 240.183169,311.061317 L160.246554,363.070082 C160.060736,363.19098 159.831797,363.19098 159.645979,363.070082 L79.709364,311.061317 C79.3089801,310.800817 79.3089801,310.149567 79.709364,309.889068 L159.645979,257.880302 C159.831797,257.759404 160.060736,257.759404 160.246554,257.880302 Z" id="Polygon-5-Copy-21"></path>
                    <path d="M160.486807,361.91186 L239.22227,413.139126 L317.957733,361.91186 L239.22227,310.684594 L160.486807,361.91186 Z M239.522558,309.31697 L319.459172,361.325736 C319.859556,361.586236 319.859556,362.237485 319.459172,362.497985 L239.522558,414.50675 C239.336739,414.627648 239.107801,414.627648 238.921982,414.50675 L158.985367,362.497985 C158.584984,362.237485 158.584984,361.586236 158.985367,361.325736 L238.921982,309.31697 C239.107801,309.196072 239.336739,309.196072 239.522558,309.31697 Z" id="Polygon-5-Copy-22"></path>
                    <path d="M239.76281,413.348528 L318.498273,464.575794 L397.233736,413.348528 L318.498273,362.121262 L239.76281,413.348528 Z M318.798561,360.753639 L398.735176,412.762404 C399.13556,413.022904 399.13556,413.674153 398.735176,413.934653 L318.798561,465.943418 C318.612742,466.064317 318.383804,466.064317 318.197985,465.943418 L238.261371,413.934653 C237.860987,413.674153 237.860987,413.022904 238.261371,412.762404 L318.197985,360.753639 C318.383804,360.63274 318.612742,360.63274 318.798561,360.753639 Z" id="Polygon-5-Copy-23"></path>
                    <path d="M319.038814,464.785197 L397.774277,516.012463 L476.50974,464.785197 L397.774277,413.557931 L319.038814,464.785197 Z M398.074565,412.190307 L478.011179,464.199072 C478.411563,464.459572 478.411563,465.110821 478.011179,465.371321 L398.074565,517.380086 C397.888746,517.500985 397.659808,517.500985 397.473989,517.380086 L317.537374,465.371321 C317.136991,465.110821 317.136991,464.459572 317.537374,464.199072 L397.473989,412.190307 C397.659808,412.069408 397.888746,412.069408 398.074565,412.190307 Z" id="Polygon-5-Copy-24"></path>
                    <path d="M398.314817,516.221865 L477.05028,567.449131 L555.785743,516.221865 L477.05028,464.994599 L398.314817,516.221865 Z M477.350568,463.626975 L557.287183,515.63574 C557.687567,515.89624 557.687567,516.54749 557.287183,516.807989 L477.350568,568.816755 C477.164749,568.937653 476.935811,568.937653 476.749992,568.816755 L396.813378,516.807989 C396.412994,516.54749 396.412994,515.89624 396.813378,515.63574 L476.749992,463.626975 C476.935811,463.506077 477.164749,463.506077 477.350568,463.626975 Z" id="Polygon-5-Copy-25"></path>
                    <path d="M477.590821,567.658533 L556.326284,618.885799 L635.061747,567.658533 L556.326284,516.431267 L477.590821,567.658533 Z M556.626572,515.063643 L636.563186,567.072408 C636.96357,567.332908 636.96357,567.984158 636.563186,568.244657 L556.626572,620.253423 C556.440753,620.374321 556.211815,620.374321 556.025996,620.253423 L476.089381,568.244657 C475.688997,567.984158 475.688997,567.332908 476.089381,567.072408 L556.025996,515.063643 C556.211815,514.942745 556.440753,514.942745 556.626572,515.063643 Z" id="Polygon-5-Copy-26"></path>
                    <path d="M556.866824,619.095201 L635.602287,670.322467 L714.33775,619.095201 L635.602287,567.867935 L556.866824,619.095201 Z M635.902575,566.500311 L715.83919,618.509077 C716.239574,618.769576 716.239574,619.420826 715.83919,619.681326 L635.902575,671.690091 C635.716756,671.810989 635.487818,671.810989 635.301999,671.690091 L555.365385,619.681326 C554.965001,619.420826 554.965001,618.769576 555.365385,618.509077 L635.301999,566.500311 C635.487818,566.379413 635.716756,566.379413 635.902575,566.500311 Z" id="Polygon-5-Copy-27"></path>
                    <path d="M80.670263,310.684594 L1.93479997,361.91186 L80.670263,413.139126 L159.405726,361.91186 L80.670263,310.684594 Z M80.9705509,309.31697 L160.907165,361.325736 C161.307549,361.586236 161.307549,362.237485 160.907165,362.497985 L80.9705509,414.50675 C80.7847321,414.627648 80.5557939,414.627648 80.3699751,414.50675 L0.433360513,362.497985 C0.0329766572,362.237485 0.0329766572,361.586236 0.433360513,361.325736 L80.3699751,309.31697 C80.5557939,309.196072 80.7847321,309.196072 80.9705509,309.31697 Z" id="Polygon-5-Copy-21"></path>
                    <path d="M81.2108034,413.348528 L159.946266,464.575794 L238.681729,413.348528 L159.946266,362.121262 L81.2108034,413.348528 Z M160.246554,360.753639 L240.183169,412.762404 C240.583553,413.022904 240.583553,413.674153 240.183169,413.934653 L160.246554,465.943418 C160.060736,466.064317 159.831797,466.064317 159.645979,465.943418 L79.709364,413.934653 C79.3089801,413.674153 79.3089801,413.022904 79.709364,412.762404 L159.645979,360.753639 C159.831797,360.63274 160.060736,360.63274 160.246554,360.753639 Z" id="Polygon-5-Copy-22"></path>
                    <path d="M160.486807,464.785197 L239.22227,516.012463 L317.957733,464.785197 L239.22227,413.557931 L160.486807,464.785197 Z M239.522558,412.190307 L319.459172,464.199072 C319.859556,464.459572 319.859556,465.110821 319.459172,465.371321 L239.522558,517.380086 C239.336739,517.500985 239.107801,517.500985 238.921982,517.380086 L158.985367,465.371321 C158.584984,465.110821 158.584984,464.459572 158.985367,464.199072 L238.921982,412.190307 C239.107801,412.069408 239.336739,412.069408 239.522558,412.190307 Z" id="Polygon-5-Copy-23"></path>
                    <path d="M239.76281,516.221865 L318.498273,567.449131 L397.233736,516.221865 L318.498273,464.994599 L239.76281,516.221865 Z M318.798561,463.626975 L398.735176,515.63574 C399.13556,515.89624 399.13556,516.54749 398.735176,516.807989 L318.798561,568.816755 C318.612742,568.937653 318.383804,568.937653 318.197985,568.816755 L238.261371,516.807989 C237.860987,516.54749 237.860987,515.89624 238.261371,515.63574 L318.197985,463.626975 C318.383804,463.506077 318.612742,463.506077 318.798561,463.626975 Z" id="Polygon-5-Copy-24"></path>
                    <path d="M319.038814,567.658533 L397.774277,618.885799 L476.50974,567.658533 L397.774277,516.431267 L319.038814,567.658533 Z M398.074565,515.063643 L478.011179,567.072408 C478.411563,567.332908 478.411563,567.984158 478.011179,568.244657 L398.074565,620.253423 C397.888746,620.374321 397.659808,620.374321 397.473989,620.253423 L317.537374,568.244657 C317.136991,567.984158 317.136991,567.332908 317.537374,567.072408 L397.473989,515.063643 C397.659808,514.942745 397.888746,514.942745 398.074565,515.063643 Z" id="Polygon-5-Copy-25"></path>
                    <path d="M398.314817,619.095201 L477.05028,670.322467 L555.785743,619.095201 L477.05028,567.867935 L398.314817,619.095201 Z M477.350568,566.500311 L557.287183,618.509077 C557.687567,618.769576 557.687567,619.420826 557.287183,619.681326 L477.350568,671.690091 C477.164749,671.810989 476.935811,671.810989 476.749992,671.690091 L396.813378,619.681326 C396.412994,619.420826 396.412994,618.769576 396.813378,618.509077 L476.749992,566.500311 C476.935811,566.379413 477.164749,566.379413 477.350568,566.500311 Z" id="Polygon-5-Copy-26"></path>
                    <path d="M477.590821,670.531869 L556.326284,721.759135 L635.061747,670.531869 L556.326284,619.304603 L477.590821,670.531869 Z M556.626572,617.936979 L636.563186,669.945745 C636.96357,670.206245 636.96357,670.857494 636.563186,671.117994 L556.626572,723.126759 C556.440753,723.247658 556.211815,723.247658 556.025996,723.126759 L476.089381,671.117994 C475.688997,670.857494 475.688997,670.206245 476.089381,669.945745 L556.025996,617.936979 C556.211815,617.816081 556.440753,617.816081 556.626572,617.936979 Z" id="Polygon-5-Copy-27"></path>
                </g>
                <g id="Storage" transform="translate(674.000000, 203.029057)">
                    <polygon id="Base" fill="url(#linearGradient-3)" points="17 161.796122 17 41.2323001 144 41.2323001 144 161.796122 80.5 203.029057"></polygon>
                    <polygon id="Base" fill="url(#linearGradient-4)" points="17 161.796122 17 41.2323001 80.5 55.8883916 80.5 203.029057"></polygon>
                    <polygon id="Base" fill="url(#linearGradient-5)" points="17 41.2329354 80.5 0 144 41.2329354 80.5 82.4658707"></polygon>
                    <mask id="mask-8" fill="white">
                        <use xlink:href="#path-7"></use>
                    </mask>
                    <use id="Base" fill="url(#linearGradient-6)" xlink:href="#path-7"></use>
                    <polygon id="Base" fill="url(#linearGradient-9)" mask="url(#mask-8)" points="30 46.0065844 81 13.0018608 132 46.0065844 81 79.0113081"></polygon>
                    <path d="M0.958648682,31.0043153 L80.4648437,82.510344 L140.999649,43.3533153 L140.999649,44.0033153 L80.4648437,83.1810303 L0.958648682,31.6357137 L0.958648682,31.0043153 Z" id="Storage-Line" fill="url(#linearGradient-10)" mask="url(#mask-8)"></path>
                    <path d="M0.958648682,61.0086095 L80.4648437,112.514638 L140.999649,73.3576095 L140.999649,74.0076095 L80.4648437,113.185324 L0.958648682,61.6400079 L0.958648682,61.0086095 Z" id="Storage-Line" fill="url(#linearGradient-11)" mask="url(#mask-8)"></path>
                    <path d="M0.958648682,91.0129037 L80.4648437,142.518932 L140.999649,103.361904 L140.999649,104.011904 L80.4648437,143.189619 L0.958648682,91.6443021 L0.958648682,91.0129037 Z" id="Storage-Line" fill="url(#linearGradient-10)" mask="url(#mask-8)"></path>
                    <path d="M0.958648682,121.017198 L80.4648437,172.523227 L140.999649,133.366198 L140.999649,134.016198 L80.4648437,173.193913 L0.958648682,121.648596 L0.958648682,121.017198 Z" id="Storage-Line" fill="url(#linearGradient-10)" mask="url(#mask-8)"></path>
                    <path d="M0.958648682,151.021492 L80.4648437,202.527521 L140.999649,163.370492 L140.999649,164.020492 L80.4648437,203.198207 L0.958648682,151.65289 L0.958648682,151.021492 Z" id="Storage-Line" fill="url(#linearGradient-10)" mask="url(#mask-8)"></path>
                </g>
                <g id="Storage" transform="translate(477.000000, 58.008302)">
                    <polygon id="Base" fill="url(#linearGradient-12)" points="0 319.545733 0 106.514451 159 106.514451 159 319.545733 79.5 371.053105"></polygon>
                    <path d="M155.140625,187.324173 L155.140625,206.326893 L82.7973633,253.360968 L82.7973633,234.358248 L155.140625,187.324173 Z M155.140625,157.319879 L155.140625,176.322598 L82.7973633,223.356674 L82.7973633,204.353954 L155.140625,157.319879 Z M155.140625,117.314153 L155.140625,136.316873 L82.7973633,183.350948 L82.7973633,164.348228 L155.140625,117.314153 Z" id="Airflow" fill="url(#linearGradient-13)"></path>
                    <polygon id="Base" fill="url(#linearGradient-14)" points="0 319.545733 0 106.514451 79.5 124.822552 79.5 371.053105"></polygon>
                    <polygon id="Base" fill="url(#linearGradient-15)" points="0 106.515244 79.5 55.0078727 159 106.515244 79.5 158.022616"></polygon>
                    <path d="M1.83910159,106.515244 L17.2874217,96.5064096 L79.4997853,136.821909 L141.736937,96.5221913 L157.160898,106.515244 L79.5,156.831078 L1.83910159,106.515244 Z" id="Base" stroke="#00EBFF" stroke-width="2"></path>
                    <path d="M1.83910159,86.5123816 L79.5,36.1965481 L157.160898,86.5123816 L79.5,136.828215 L1.83910159,86.5123816 Z" id="Base" stroke="#00EBFF" stroke-width="2" fill="url(#linearGradient-15)"></path>
                    <g id="Cloud-connect" transform="translate(63.000000, 61.008732)">
                        <path d="M0.605714879,9.44215384 C0.605714879,17.0939154 0.605714879,21.9340716 0.605714879,23.9626224 C0.864497024,26.4323166 2.44660621,28.8544264 5.35204244,30.7422894 C11.7310851,34.8871949 22.0735568,34.8871949 28.4525995,30.7422894 C31.3767422,28.8422715 32.9604627,26.4011052 33.2037609,23.9149136 C33.2037609,21.9551573 33.2037609,17.130904 33.2037609,9.44215384 C33.0194915,11.2874173 32.5139925,12.8423609 31.687264,14.1069848 C31.4131219,14.5263323 30.6484619,15.2573144 29.393284,16.2999309 C28.6066368,15.7743786 28.123586,15.4465113 27.9441317,15.3163289 C25.3205852,14.1129802 22.8222494,13.2862749 20.4491244,12.8362131 L16.9047379,12.5679442 L9.58792083,13.6468121 L6.66453821,14.8341308 C5.5195422,15.8113308 4.70656692,16.2490969 4.22561236,16.1474291 C3.7446578,16.0457613 2.71380351,14.8525996 1.13304948,12.5679442 L0.605714879,9.44215384 Z" id="Oval-2" fill="#00EBFF" opacity="0.400000006"></path>
                        <path d="M5.91641416,17.2335755 C11.9838282,21.1759943 21.8210499,21.1759943 27.8884639,17.2335755 C33.9558779,13.2911567 33.9558779,6.89923291 27.8884639,2.95681411 C21.8210499,-0.985604702 11.9838282,-0.985604702 5.91641416,2.95681411 C-0.15099984,6.89923291 -0.15099984,13.2911567 5.91641416,17.2335755 Z" id="Oval-2" fill="#00EBFF" opacity="0.600000024"></path>
                        <path d="M5.91641416,17.2335755 C11.9838282,21.1759943 21.8210499,21.1759943 27.8884639,17.2335755 C33.9558779,13.2911567 33.9558779,6.89923291 27.8884639,2.95681411 C21.8210499,-0.985604702 11.9838282,-0.985604702 5.91641416,2.95681411 C-0.15099984,6.89923291 -0.15099984,13.2911567 5.91641416,17.2335755 Z" id="Oval-2" stroke="#00EBFF" stroke-width="2"></path>
                    </g>
                    <line x1="79.5768229" y1="69.585914" x2="79.5768229" y2="0.350663251" id="Line" stroke="#00EBFF" stroke-width="2" stroke-linecap="round" stroke-linejoin="round"></line>
                </g>
                <g id="Stotrage" transform="translate(343.000000, 160.022902)">
                    <polygon id="Base" fill="url(#linearGradient-16)" points="0 228.532707 0 51.5065781 159 51.5065781 159 228.532707 79.5 280.040079"></polygon>
                    <polygon id="Base" fill="url(#linearGradient-17)" points="0 228.532707 0 51.5065781 79.5 69.8146793 79.5 280.040079"></polygon>
                    <polygon id="Base" fill="url(#linearGradient-18)" points="0 51.5073717 79.5 0 159 51.5073717 79.5 103.014743"></polygon>
                    <polygon id="Base" fill="#00EBFF" points="29 53.507658 29 48.5452779 129 48.5452779 129 53.507658 79 86.01231"></polygon>
                    <polygon id="Base" fill="#00EBFF" points="29 53.507658 29 48.5452779 79 68.5098051 79 86.01231"></polygon>
                    <polygon id="Base" fill="url(#linearGradient-19)" points="29 48.5069423 79 16.0022902 129 48.5069423 79 81.0115943"></polygon>
                    <g id="Line" transform="translate(0.000000, 51.007300)" fill="url(#linearGradient-20)">
                        <polygon id="Rectangle" points="0 0.631398421 0 0 79.5061951 51.5060287 159.00676 0.0815601308 159.00676 0.72525272 79.5061951 52.176715"></polygon>
                        <polygon id="Rectangle" points="0 30.6356926 0 30.0042942 79.5061951 81.5103229 159.00676 30.0858543 159.00676 30.7295469 79.5061951 82.1810092"></polygon>
                        <polygon id="Rectangle" points="0 60.6399868 0 60.0085884 79.5061951 111.514617 159.00676 60.0901485 159.00676 60.7338411 79.5061951 112.185303"></polygon>
                        <polygon id="Rectangle" points="0 90.644281 0 90.0128826 79.5061951 141.518911 159.00676 90.0944427 159.00676 90.7381353 79.5061951 142.189598"></polygon>
                        <polygon id="Rectangle" points="0 120.648575 0 120.017177 79.5061951 171.523206 159.00676 120.098737 159.00676 120.74243 79.5061951 172.193892"></polygon>
                        <polygon id="Rectangle" points="0 150.652869 0 150.021471 79.5061951 201.5275 159.00676 150.103031 159.00676 150.746724 79.5061951 202.198186"></polygon>
                    </g>
                </g>
                <g id="Storage" transform="translate(628.000000, 171.024477)">
                    <polygon id="Base" fill="url(#linearGradient-21)" points="0 189.031684 0 51.0021922 95 51.0021922 95 189.031684 47.5 220.031491"></polygon>
                    <path d="M93.7729492,182.026051 L93.7729492,191.02734 L50,219.366845 L50,210.365557 L93.7729492,182.026051 Z M93.7729492,162.023189 L93.7729492,171.024477 L50,199.363982 L50,190.362694 L93.7729492,162.023189 Z M93.7729492,142.020326 L93.7729492,151.021614 L50,179.361119 L50,170.359831 L93.7729492,142.020326 Z M93.7729492,122.017463 L93.7729492,131.018751 L50,159.358256 L50,150.356968 L93.7729492,122.017463 Z M93.7729492,102.0146 L93.7729492,111.015889 L50,139.355394 L50,130.354105 L93.7729492,102.0146 Z M93.7729492,82.0117375 L93.7729492,91.0130257 L50,119.352531 L50,110.351243 L93.7729492,82.0117375 Z M93.7729492,62.0088747 L93.7729492,71.0101629 L50,99.3496681 L50,90.3483798 L93.7729492,62.0088747 Z" id="Airflow" fill="url(#linearGradient-22)"></path>
                    <polygon id="Base" fill="url(#linearGradient-23)" points="0 189.031684 0 51.0021922 47.5 62.0209568 47.5 220.031491"></polygon>
                    <polygon id="Base" fill="url(#linearGradient-24)" points="0 51.0026698 47.5 20.0028628 95 51.0026698 47.5 82.0024769"></polygon>
                    <path d="M1.82971145,30.999807 L47.5,1.19412004 L93.1702885,30.999807 L47.5,60.8054941 L1.82971145,30.999807 Z" id="Base" stroke="#00EBFF" stroke-width="2" fill="url(#linearGradient-25)"></path>
                    <path d="M1.82971145,51.0026698 L17.1617516,40.9965586 L47.4998856,60.8137364 L77.8444862,41.0006295 L93.1702885,51.0026698 L47.5,80.8083569 L1.82971145,51.0026698 Z" id="Base" stroke="#00EBFF" stroke-width="2"></path>
                </g>
                <g id="Storage" transform="translate(675.000000, 222.031777)">
                    <polygon id="Base" fill="url(#linearGradient-26)" points="0 228.037266 0 162.018081 95 162.018081 95 228.037266 47.5 259.037073"></polygon>
                    <path d="M92.7729492,212.130458 L92.7729492,221.131746 L49,249.471251 L49,240.469963 L92.7729492,212.130458 Z M92.7729492,192.127595 L92.7729492,201.128883 L49,229.468388 L49,220.4671 L92.7729492,192.127595 Z M92.7729492,172.124732 L92.7729492,181.12602 L49,209.465525 L49,200.464237 L92.7729492,172.124732 Z" id="Airflow" fill="url(#linearGradient-27)"></path>
                    <polygon id="Base" fill="url(#linearGradient-28)" points="0 228.037266 0 162.018081 47.5 173.036845 47.5 259.037073"></polygon>
                    <polygon id="Base" fill="url(#linearGradient-29)" points="0 162.018558 47.5 131.018751 95 162.018558 47.5 193.018365"></polygon>
                    <path d="M1.82971145,162.018558 L13.3253765,154.516171 L47.4997421,176.851566 L81.6904954,154.526529 L93.1702885,162.018558 L47.5,191.824245 L1.82971145,162.018558 Z" id="Base" stroke="#00EBFF" stroke-width="2"></path>
                    <path d="M1.82971145,147.016411 L47.5,117.210724 L93.1702885,147.016411 L47.5,176.822098 L1.82971145,147.016411 Z" id="Base" stroke="#00EBFF" stroke-width="2" fill="url(#linearGradient-25)"></path>
                    <g id="Cloud-Connect" transform="translate(33.000000, 136.019467)">
                        <path d="M15,20.0027197 C10.9645817,20.0027197 6.93498938,19.0134745 3.85829154,17.0646203 C0.561073988,14.9760836 -1,12.214112 -1,9.50135983 C-1,6.78860768 0.561073988,4.0266361 3.85829154,1.93809941 C6.93498938,-0.0107548063 10.9645817,-1 15,-1 C19.0354183,-1 23.0650106,-0.0107548063 26.1417085,1.93809941 C29.438926,4.0266361 31,6.78860768 31,9.50135983 C31,12.214112 29.438926,14.9760836 26.1417085,17.0646203 C23.0650106,19.0134745 19.0354183,20.0027197 15,20.0027197 Z" id="Oval-2" stroke="#00EBFF" stroke-width="2"></path>
                        <path d="M9.34314575,13.5374714 C12.4673401,15.4903723 17.5326599,15.4903723 20.6568542,13.5374714 C23.7810486,11.5845704 23.7810486,8.41829237 20.6568542,6.46539142 C17.5326599,4.51249046 12.4673401,4.51249046 9.34314575,6.46539142 C6.21895142,8.41829237 6.21895142,11.5845704 9.34314575,13.5374714 Z" id="Oval-2" fill="#00EBFF"></path>
                    </g>
                    <line x1="47.4931641" y1="146.352733" x2="47.4931641" y2="100.120775" id="Line" stroke="#00EBFF" stroke-width="2"></line>
                    <line x1="46.9830322" y1="52.2367241" x2="46.9830322" y2="0.00390680914" id="Line" stroke="#00EBFF" stroke-width="2"></line>
                </g>
                <g id="Connected-Line" transform="translate(768.103293, 383.218563)">
                    <polyline id="Path-2" stroke="#00EBFF" stroke-width="2" transform="translate(46.499009, 45.706106) scale(-1, 1) translate(-46.499009, -45.706106) " points="0.87839604 47.7300501 67.0739679 90.5863084 92.1196222 74.4039233 92.1196222 0.825903342"></polyline>
                    <g id="Group-5" transform="translate(85.896707, 26.840125)">
                        <path d="M5.41852455,20.4882136 C12.6432239,25.1751759 24.3567761,25.1751759 31.5814755,20.4882136 C38.8061748,15.8012513 38.8061748,8.20218402 31.5814755,3.51522172 C24.3567761,-1.17174057 12.6432239,-1.17174057 5.41852455,3.51522172 C-1.80617485,8.20218402 -1.80617485,15.8012513 5.41852455,20.4882136 Z" id="Oval-2" stroke="#00EBFF" stroke-width="2"></path>
                        <path d="M11.9289322,17.0986412 C15.8341751,19.6374125 22.1658249,19.6374125 26.0710678,17.0986412 C29.9763107,14.55987 29.9763107,10.4437085 26.0710678,7.90493727 C22.1658249,5.36616603 15.8341751,5.36616603 11.9289322,7.90493727 C8.02368927,10.4437085 8.02368927,14.55987 11.9289322,17.0986412 Z" id="Oval-2" fill="#00EBFF"></path>
                    </g>
                </g>
                <g id="Storage" transform="translate(561.000000, 261.037360)">
                    <polygon id="Base" fill="url(#linearGradient-30)" points="0 187.85497 0 37.176664 114 37.176664 114 187.85497 57 225.032207"></polygon>
                    <polygon id="Base" fill="url(#linearGradient-31)" points="0 187.85497 0 37.176664 57 50.3911728 57 225.032207"></polygon>
                    <polygon id="Base" fill="url(#linearGradient-32)" points="0 37.1772368 57 0 114 37.1772368 57 74.3544736"></polygon>
                    <polygon id="Base" fill="url(#linearGradient-33)" points="23 37.5053678 23 27.5166335 91 27.5166335 91 37.5053678 57 60.0085884"></polygon>
                    <polygon id="Base" fill="url(#linearGradient-34)" points="23 37.5053678 23 27.5166335 57 31.0044373 57 60.0085884"></polygon>
                    <polygon id="Base" fill="url(#linearGradient-35)" points="23 27.5039364 57 5.0007157 91 27.5039364 57 50.007157"></polygon>
                    <g id="Line" transform="translate(0.000000, 36.655689)" fill="url(#linearGradient-36)">
                        <polygon id="Combined-Shape" points="0 0.781028139 56.9944458 37.7034033 114 0.829698734 114 1.48102929 56.9944458 38.3740896 0 1.4235507"></polygon>
                        <polygon id="Combined-Shape" points="0 30.7853223 56.9944458 67.7076975 114 30.8339929 114 31.4853235 56.9944458 68.3783838 0 31.4278449"></polygon>
                        <polygon id="Combined-Shape" points="0 60.7896165 56.9944458 97.7119917 114 60.8382871 114 61.4896177 56.9944458 98.382678 0 61.4321391"></polygon>
                        <polygon id="Combined-Shape" points="0 90.7939107 56.9944458 127.716286 114 90.8425813 114 91.4939119 56.9944458 128.386972 0 91.4364333"></polygon>
                        <polygon id="Combined-Shape" points="0 120.798205 56.9944458 157.72058 114 120.846876 114 121.498206 56.9944458 158.391266 0 121.440728"></polygon>
                        <polygon id="Combined-Shape" points="0 150.802499 56.9944458 187.724874 114 150.85117 114 151.5025 56.9944458 188.395561 0 151.445022"></polygon>
                    </g>
                </g>
                <g id="Storage" transform="translate(423.000000, 301.043085)">
                    <polygon id="Base" fill="url(#linearGradient-37)" points="0 209.529988 0 96.5130194 159 96.5130194 159 209.529988 79.5 261.03736"></polygon>
                    <path d="M156.06543,191.382371 L156.06543,200.383659 L83,247.825996 L83,238.824708 L156.06543,191.382371 Z M156.06543,171.379508 L156.06543,180.380796 L83,227.823133 L83,218.821845 L156.06543,171.379508 Z M156.06543,151.376645 L156.06543,160.377934 L83,207.82027 L83,198.818982 L156.06543,151.376645 Z M156.06543,131.373783 L156.06543,140.375071 L83,187.817408 L83,178.816119 L156.06543,131.373783 Z M156.06543,111.37092 L156.06543,120.372208 L83,167.814545 L83,158.813257 L156.06543,111.37092 Z" id="Airflow" fill="url(#linearGradient-38)"></path>
                    <polygon id="Base" fill="url(#linearGradient-39)" points="0 209.529988 0 96.5130194 79.5 114.821121 79.5 261.03736"></polygon>
                    <polygon id="Base" fill="url(#linearGradient-15)" points="0 96.513813 79.5 45.0064413 159 96.513813 79.5 148.021185"></polygon>
                    <path d="M1.83910159,76.5109502 L79.5,26.1951167 L157.160898,76.5109502 L79.5,126.826784 L1.83910159,76.5109502 Z" id="Base" stroke="#00EBFF" stroke-width="2" fill="url(#linearGradient-15)"></path>
                    <path d="M1.83910159,96.513813 L17.2614002,86.5218374 L79.5001298,126.851626 L141.72388,86.5123008 L157.160898,96.513813 L79.5,146.829646 L1.83910159,96.513813 Z" id="Base" stroke="#00EAFF" stroke-width="2"></path>
                    <line x1="79.4645996" y1="65.0210245" x2="79.4645996" y2="0.188503541" id="Line" stroke="#00EBFF" stroke-width="2" stroke-linecap="round" stroke-linejoin="round"></line>
                    <g id="Cloud-connect" transform="translate(63.000000, 56.008016)">
                        <path d="M0.605714879,9.44215384 C0.605714879,17.0939154 0.605714879,21.9340716 0.605714879,23.9626224 C0.864497024,26.4323166 2.44660621,28.8544264 5.35204244,30.7422894 C11.7310851,34.8871949 22.0735568,34.8871949 28.4525995,30.7422894 C31.3767422,28.8422715 32.9604627,26.4011052 33.2037609,23.9149136 C33.2037609,21.9551573 33.2037609,17.130904 33.2037609,9.44215384 C33.0194915,11.2874173 32.5139925,12.8423609 31.687264,14.1069848 C31.4131219,14.5263323 30.6484619,15.2573144 29.393284,16.2999309 C28.6066368,15.7743786 28.123586,15.4465113 27.9441317,15.3163289 C25.3205852,14.1129802 22.8222494,13.2862749 20.4491244,12.8362131 L16.9047379,12.5679442 L9.58792083,13.6468121 L6.66453821,14.8341308 C5.5195422,15.8113308 4.70656692,16.2490969 4.22561236,16.1474291 C3.7446578,16.0457613 2.71380351,14.8525996 1.13304948,12.5679442 L0.605714879,9.44215384 Z" id="Oval-2" fill="#00EBFF" opacity="0.400000006"></path>
                        <path d="M5.91641416,17.2335755 C11.9838282,21.1759943 21.8210499,21.1759943 27.8884639,17.2335755 C33.9558779,13.2911567 33.9558779,6.89923291 27.8884639,2.95681411 C21.8210499,-0.985604702 11.9838282,-0.985604702 5.91641416,2.95681411 C-0.15099984,6.89923291 -0.15099984,13.2911567 5.91641416,17.2335755 Z" id="Oval-2" fill="#00EBFF" opacity="0.600000024"></path>
                        <path d="M5.91641416,17.2335755 C11.9838282,21.1759943 21.8210499,21.1759943 27.8884639,17.2335755 C33.9558779,13.2911567 33.9558779,6.89923291 27.8884639,2.95681411 C21.8210499,-0.985604702 11.9838282,-0.985604702 5.91641416,2.95681411 C-0.15099984,6.89923291 -0.15099984,13.2911567 5.91641416,17.2335755 Z" id="Oval-2" stroke="#00EBFF" stroke-width="2"></path>
                    </g>
                </g>
                <g id="Group-4" transform="translate(295.621257, 269.038505)">
                    <polygon id="Rectangle" fill="url(#linearGradient-40)" points="0.378742515 159.02739 0.378742515 52.0023354 95.3787425 52.0023354 95.3787425 159.02739 47.8787425 190.027197"></polygon>
                    <path d="M92.3960765,139.083138 L92.3960765,148.084426 L51.3787425,174.878788 L51.3787425,165.8775 L92.3960765,139.083138 Z M92.3960765,119.080275 L92.3960765,128.081563 L51.3787425,154.875926 L51.3787425,145.874637 L92.3960765,119.080275 Z M92.3960765,99.0774123 L92.3960765,108.078701 L51.3787425,134.873063 L51.3787425,125.871774 L92.3960765,99.0774123 Z M92.3960765,79.0745495 L92.3960765,88.0758378 L51.3787425,114.8702 L51.3787425,105.868912 L92.3960765,79.0745495 Z M92.3960765,59.0716867 L92.3960765,68.072975 L51.3787425,94.8673371 L51.3787425,85.8660489 L92.3960765,59.0716867 Z" id="Combined-Shape" fill="url(#linearGradient-41)"></path>
                    <polygon id="Rectangle" fill="url(#linearGradient-42)" points="0.378742515 159.02739 0.378742515 52.0023354 47.8787425 63.0211 47.8787425 190.027197"></polygon>
                    <polygon id="Rectangle" fill="url(#linearGradient-24)" points="0.378742515 52.002813 47.8787425 21.0030059 95.3787425 52.002813 47.8787425 83.00262"></polygon>
                    <path d="M2.20845397,37.0006659 L47.8787425,7.19497888 L93.5490311,37.0006659 L47.8787425,66.8063529 L2.20845397,37.0006659 Z" id="Rectangle" stroke="#00EBFF" stroke-width="2" fill="url(#linearGradient-25)"></path>
                    <g id="Group-5" transform="translate(32.378743, 27.003865)">
                        <path d="M15,20.0027197 C10.9645817,20.0027197 6.93498938,19.0134745 3.85829154,17.0646203 C0.561073988,14.9760836 -1,12.214112 -1,9.50135983 C-1,6.78860768 0.561073988,4.0266361 3.85829154,1.93809941 C6.93498938,-0.0107548063 10.9645817,-1 15,-1 C19.0354183,-1 23.0650106,-0.0107548063 26.1417085,1.93809941 C29.438926,4.0266361 31,6.78860768 31,9.50135983 C31,12.214112 29.438926,14.9760836 26.1417085,17.0646203 C23.0650106,19.0134745 19.0354183,20.0027197 15,20.0027197 Z" id="Oval-2" stroke="#00EBFF" stroke-width="2"></path>
                        <path d="M9.34314575,13.5374714 C12.4673401,15.4903723 17.5326599,15.4903723 20.6568542,13.5374714 C23.7810486,11.5845704 23.7810486,8.41829237 20.6568542,6.46539142 C17.5326599,4.51249046 12.4673401,4.51249046 9.34314575,6.46539142 C6.21895142,8.41829237 6.21895142,11.5845704 9.34314575,13.5374714 Z" id="Oval-2" fill="#00EBFF"></path>
                    </g>
                    <path d="M2.20845397,52.002813 L13.680584,44.5157852 L47.8792826,66.8403084 L82.0436703,44.4940979 L93.5490311,52.002813 L47.8787425,81.8085 L2.20845397,52.002813 Z" id="Rectangle" stroke="#00EAFF" stroke-width="2"></path>
                    <line x1="47.8946117" y1="35.0653213" x2="47.8946117" y2="0.835080454" id="Path-2" stroke="#00EBFF" stroke-width="2"></line>
                </g>
                <g id="Connected-Line" transform="translate(143.000000, 320.689702)">
                    <polyline id="Path-2" stroke="#00EBFF" stroke-width="2" points="31.0896506 59.3272734 96.4355469 101.633436 154.025513 64.1275796 154.025513 0.350141287"></polyline>
                    <g id="Group-5" transform="translate(0.000000, 38.361685)">
                        <path d="M5.41852455,20.4882136 C12.6432239,25.1751759 24.3567761,25.1751759 31.5814755,20.4882136 C38.8061748,15.8012513 38.8061748,8.20218402 31.5814755,3.51522172 C24.3567761,-1.17174057 12.6432239,-1.17174057 5.41852455,3.51522172 C-1.80617485,8.20218402 -1.80617485,15.8012513 5.41852455,20.4882136 Z" id="Oval-2" stroke="#00EBFF" stroke-width="2"></path>
                        <path d="M11.9289322,17.0986412 C15.8341751,19.6374125 22.1658249,19.6374125 26.0710678,17.0986412 C29.9763107,14.55987 29.9763107,10.4437085 26.0710678,7.90493727 C22.1658249,5.36616603 15.8341751,5.36616603 11.9289322,7.90493727 C8.02368927,10.4437085 8.02368927,14.55987 11.9289322,17.0986412 Z" id="Oval-2" fill="#00EBFF"></path>
                    </g>
                </g>
                <g id="Women" transform="translate(867.342814, 294.336373) scale(-1, 1) translate(-867.342814, -294.336373) translate(835.685629, 206.029487)">
                    <path d="M33.3590204,165.252972 L34.562128,164.598976 C36.481143,166.782706 38.0018407,168.756396 39.1242211,170.520046 C40.8077916,173.165522 40.5239461,176.420223 36.2416207,175.417723 C31.9592954,174.415223 29.4631929,173.689245 28.7717518,170.101314 C28.310791,167.70936 27.6498442,166.093246 26.7889114,165.252972 L26.7889114,169.605331 L25.7900449,169.605331 C25.5554277,165.791384 25.2142576,163.238491 24.7665347,161.946653 C24.0949504,160.008896 23.5538534,157.645209 25.2858247,156.04314 C26.4404723,154.975095 29.1315375,158.045038 33.3590204,165.252972 Z" id="Shoes" fill="#000000"></path>
                    <path d="M9.82413737,147.269072 C11.620466,152.939019 12.95477,156.441975 13.8270496,157.777939 C15.135469,159.781885 13.9642741,163.808037 10.3911191,162.613465 C6.8179641,161.418892 4.40288435,158.840484 4.40288435,155.704467 C4.40288435,152.568451 3.44018555,148.581276 2.4427374,149.544097 L1.20807175,153.184348 L0.00780087426,153.184348 C0.807981461,150.418314 1.20807175,148.446556 1.20807175,147.269072 C1.20807175,145.502846 2.7898763,140.880812 6.30700684,140.880812 C8.65176053,140.880812 9.82413737,143.010232 9.82413737,147.269072 Z" id="Shoes" fill="#000000"></path>
                    <path d="M22.9090962,128.721938 C19.8186063,133.032301 17.1929402,136.384864 15.0320981,138.779628 C11.7908348,142.371773 9.74648321,144.896079 10.5106143,148.992107 C11.2747454,153.088136 12.1601446,157.169416 9.8450579,157.169416 C7.52997117,157.169416 5.25069754,152.173421 5.25069754,147.702728 C5.25069754,143.232035 4.51670619,141.823268 6.62294224,139.890602 C8.72917829,137.957937 9.49508231,134.609482 11.4594843,130.929553 C13.4238863,127.249623 14.9675636,119.040966 20.2445004,116.831955 C23.7624583,115.359281 24.6506569,119.322609 22.9090962,128.721938 Z" id="Foot" fill="#BBFAFF"></path>
                    <path d="M20.18228,118.373549 C19.8858468,129.37284 20.5641683,137.395999 22.2172445,142.443027 C24.6968587,150.013569 25.4053199,154.0643 25.4053199,157.458403 C25.4053199,160.852506 28.962164,169.465578 32.5796422,170.273547 C36.1971203,171.081516 38.2235747,170.665066 35.0337263,165.504035 C31.8438779,160.343005 29.5493571,152.716983 29.5493571,145.945631 C29.5493571,139.17428 31.8858422,119.076879 28.3681181,116.890692 C26.0229688,115.433234 23.2943561,115.92752 20.18228,118.373549 Z" id="Foot" fill="#BBFAFF"></path>
                    <path d="M39.6834019,53.5544701 C44.1514118,54.2464467 47.7667624,54.2464467 50.5294538,53.5544701 C53.2921453,52.8624935 52.6810768,54.635742 48.6962484,58.8742155 C44.1102799,60.0303969 40.0573711,60.0303969 36.5375221,58.8742155 C33.0176731,57.7180341 34.0662997,55.9447856 39.6834019,53.5544701 Z" id="Hand" fill="#00EBFF"></path>
                    <path d="M16.0719285,120.303756 C21.4351477,123.321205 27.0137184,123.321205 32.8076404,120.303756 C41.8923495,96.050399 43.0610623,78.4103807 36.3137788,67.3837014 L16.8974028,67.8352652 C9.7347819,74.3823561 7.89188446,82.8525144 11.3687105,93.2457403 C14.8455365,103.638966 16.4132758,112.658305 16.0719285,120.303756 Z" id="Skirt" fill="url(#linearGradient-43)"></path>
                    <path d="M37.7874349,68.5593124 C36.9640881,62.4139238 37.5370977,58.2553928 39.5064639,56.0837194 C42.4605132,52.8262092 44.6263195,47.7712221 41.7428327,42.3025941 C38.8593459,36.833966 39.0681966,33.3071328 38.4278158,31.2118905 C37.7874349,29.1166482 33.9976283,28.8160738 29.5337553,28.966361 C25.0698823,29.1166482 19.0075393,31.6149973 15.4769345,34.2889155 C11.9463298,36.9628338 8.38203939,39.0924876 8.38203939,51.8461822 C10.3197293,53.1669305 12.8086809,53.394351 15.8488944,52.528444 C17.3480806,55.2645137 17.8601016,58.0483382 17.3849574,60.8799176 C16.9098133,63.7114969 16.3977923,66.2712952 15.8488944,68.5593124 C18.3513744,70.5909987 21.6489255,71.800319 25.7415478,72.1872735 C29.8341701,72.5742279 33.8494658,71.3649075 37.7874349,68.5593124 Z" id="Body" fill="url(#linearGradient-44)"></path>
                    <polygon id="Papper" fill="#00EBFF" points="34.4619141 74.7133297 40.996582 42.5505234 62.7589867 30.2369447 56.1484375 62.0528263"></polygon>
                    <path d="M18.1441473,68.871192 C16.0376667,69.280936 14.5659022,69.5262409 12.9633949,68.4183278 C11.3608876,67.3104147 9.79698142,66.2877573 9.42452822,64.224144 C9.05207502,62.1605308 9.19248979,61.5374835 9.72876022,61.5374835 C10.2650307,61.5374835 10.7563096,63.3368781 12.5721161,64.224144 C14.3879226,65.1114099 17.024197,64.4822085 16.6046798,63.279029 C16.3250017,62.4769093 16.098988,61.7505816 15.9266388,61.1000457 C18.0740061,60.9282763 19.5495327,61.3247683 20.3532188,62.289522 C21.1569048,63.2542756 22.0374537,64.6152345 23.4912849,65.0665396 L35.486902,65.8576543 L37.3775502,55.8266861 L44.2387737,61.1000457 L42.3892573,68.871192 C40.5569975,71.8808697 37.5001185,72.9965302 33.2186205,72.2181736 C26.7963735,71.0506387 19.5484677,68.5980293 18.1441473,68.871192 Z" id="Arm" fill="#BBFAFF" transform="translate(26.727229, 64.142381) scale(-1, 1) translate(-26.727229, -64.142381) "></path>
                    <path d="M41.04347,16.9227833 C43.464484,15.1590357 44.4590486,12.7452625 44.0271639,9.68146373 C43.3793367,5.08576551 37.7468915,1.166505 29.4634268,2.67218608 C21.1799621,4.17786716 17.5167425,11.6543041 18.6670168,16.9227833 C19.8172912,22.1912625 23.9794122,27.7504843 26.7214195,27.7504843 C28.5494244,27.7504843 33.3234412,24.1412506 41.04347,16.9227833 Z" id="Hair" fill="#000000"></path>
                    <path d="M7.76330403,60.9677021 C8.22874134,52.589995 8.75073591,46.7770795 9.32928775,43.5289555 C10.1971155,38.6567696 15.5612742,35.748318 17.2078486,42.6692964 C18.3055649,47.2832821 17.9924102,54.1584152 16.2683845,63.2946957 L7.76330403,60.9677021 Z" id="Path-16" fill="url(#linearGradient-45)" transform="translate(12.805852, 50.931116) scale(-1, 1) translate(-12.805852, -50.931116) "></path>
                    <path d="M37.2587484,9.17445006 C38.7196394,9.17445006 34.5042,8.5378363 36.0051591,9.17445006 C37.5061182,9.81106382 42.8593235,14.1094966 41.176019,16.781308 C39.4927144,19.4531194 40.189395,21.7810177 38.9121791,24.7730673 C37.6349633,27.7651168 37.6658122,30.83231 31.8662168,30.3638915 C31.8924561,30.9589539 32.1783699,32.0299257 32.7239583,33.576807 C33.542341,35.897129 35.9680583,38.2406261 35.4929141,44.0421332 C30.2452896,41.5073828 27.0773073,39.4147155 25.9889672,37.7641314 C24.3564569,35.2882551 21.6009754,34.0733166 22.6051607,29.4231919 C23.6093459,24.7730673 23.7206857,24.3566172 23.1629232,21.6138759 C22.6051607,18.8711345 21.7410366,16.4057924 24.2054036,15.6367995 C26.6697707,14.8678066 27.7005499,14.2652533 29.465675,12.5035924 C31.2308001,10.7419315 35.7978574,9.17445006 37.2587484,9.17445006 Z" id="Face" fill="#BBFAFF"></path>
                    <path d="M58.2200521,49.261102 C56.5267896,48.9338411 55.3648139,50.0145277 54.734125,52.503162 C53.7880918,56.2361134 55.4425863,56.6883795 56.4770886,56.6883795 C57.5115909,56.6883795 58.3767787,56.9036273 59.3593343,53.6580559 C60.0143714,51.4943416 59.6346106,50.0286903 58.2200521,49.261102 Z" id="Hand" fill="#BBFAFF"></path>
                    <path d="M42.7632543,11.4910977 C40.9231064,15.0337923 38.1402845,16.8051395 34.4147885,16.8051395 C28.8265445,16.8051395 25.9197484,15.7327204 25.9197484,19.9184757 C25.9197484,24.104231 29.8796065,34.8838988 22.3749229,34.8838988 C14.8702393,34.8838988 9.88004986,37.6264788 8.66160182,43.2483772 C7.44315378,48.8702755 2.48862819,46.2386489 7.00068745,40.1995033 C11.5127467,34.1603578 19.0354582,28.6642587 18.2132311,20.5396584 C17.3910041,12.4150581 17.4247083,4.31077321 25.9197484,1.87800315 C34.4147885,-0.554766898 39.1502364,0.420763344 42.1177786,4.31194525 C44.09614,6.90606652 44.3112986,9.29911734 42.7632543,11.4910977 Z" id="Hair" fill="#000000"></path>
                </g>
                <g id="Cloud-" transform="translate(468.000000, 244.034926)">
                    <path d="M33.719764,14.043106 C42.237425,19.4949371 49.6021008,29.1481608 53.1088442,38.5649302 C53.8555899,38.9331064 54.6195363,39.3652205 55.3967552,39.8626887 C64.0141893,45.3783808 71,56.8395877 71,65.4620109 C71,74.0494803 64.070713,76.5824178 55.5014749,71.153928 L14.660767,45.0136874 C14.3493449,44.8036144 14.0350709,44.6132031 13.7182891,44.4104431 C6.14188723,39.5610762 0,29.4844446 0,21.9036565 C0,14.5814563 5.73002231,12.2659189 12.9481683,16.4863205 C15.4957767,9.03660035 23.8306934,7.71348782 33.719764,14.043106 Z" id="Combined-Shape" fill="url(#linearGradient-46)" opacity="0.600000024"></path>
                    <path d="M33.719764,14.043106 C42.237425,19.4949371 49.6021008,29.1481608 53.1088442,38.5649302 C53.8555899,38.9331064 54.6195363,39.3652205 55.3967552,39.8626887 C64.0141893,45.3783808 71,56.8395877 71,65.4620109 C71,74.0494803 64.070713,76.5824178 55.5014749,71.153928 L14.660767,45.0136874 C14.3493449,44.8036144 14.0350709,44.6132031 13.7182891,44.4104431 C6.14188723,39.5610762 0,29.4844446 0,21.9036565 C0,14.5814563 5.73002231,12.2659189 12.9481683,16.4863205 C15.4957767,9.03660035 23.8306934,7.71348782 33.719764,14.043106 Z" id="Combined-Shape" stroke="#00EBFF" stroke-width="2"></path>
                    <path d="M2.40893555,15.8091474 C9.2902801,10.143359 13.1538314,6.88773521 13.9995894,6.04227607 C16.2829362,3.75973603 20.3080765,3.77185849 24.9481683,6.48488907 C27.4957767,-0.964831048 35.8306934,-2.28794359 45.719764,4.04167464 C54.237425,9.49350571 61.6021008,19.1467294 65.1088442,28.5634988 C65.8555899,28.931675 66.6195363,29.3637891 67.3967552,29.8612573 C76.0141893,35.3769494 83,46.8381563 83,55.4605795 C83,58.9046383 81.8854507,61.3748489 79.9975587,62.7482005 C78.2136081,64.0459397 74.7321801,66.7744815 69.5532747,70.9342044 C69.4435181,71.0219752 74.4877264,55.6871381 58.7739258,42.7531891 C57.6693448,41.8440141 54.5153015,40.7068901 53.3500977,38.3008918 C45.719764,22.5452188 38.1970365,14.6906505 24.9481683,10.4678067 C19.6713867,8.78592541 15.371582,12.3469819 12.230957,15.8091474 C8.97509766,14.0932442 5.70109049,14.0932442 2.40893555,15.8091474 Z" id="Combined-Shape" fill="url(#linearGradient-47)" opacity="0.600000024"></path>
                    <path d="M2.40893555,15.8091474 C9.2902801,10.143359 13.1538314,6.88773521 13.9995894,6.04227607 C16.2829362,3.75973603 20.3080765,3.77185849 24.9481683,6.48488907 C27.4957767,-0.964831048 35.8306934,-2.28794359 45.719764,4.04167464 C54.237425,9.49350571 61.6021008,19.1467294 65.1088442,28.5634988 C65.8555899,28.931675 66.6195363,29.3637891 67.3967552,29.8612573 C76.0141893,35.3769494 83,46.8381563 83,55.4605795 C83,58.9046383 81.8854507,61.3748489 79.9975587,62.7482005 C78.2136081,64.0459397 74.7321801,66.7744815 69.5532747,70.9338261" id="Combined-Shape" stroke="#00EBFF" stroke-width="2"></path>
                </g>
                <g id="Cloud" transform="translate(690.000000, 273.039077)">
                    <path d="M26.8133063,11.1965305 C33.5863862,15.5432607 39.4426343,23.2397498 42.2311291,30.7477147 C42.8249269,31.0412605 43.4324024,31.3857839 44.0504318,31.782414 C50.9028493,36.1800604 56.4578313,45.3180497 56.4578313,52.1926844 C56.4578313,59.0394505 50.9477958,61.0589547 44.133703,56.7308345 L11.6579593,35.8892913 C11.4103225,35.7218007 11.1604178,35.5699863 10.908519,35.4083262 C4.88391033,31.5419392 0,23.507868 0,17.4637261 C0,11.6257557 4.55640328,9.77958395 10.2961338,13.1444988 C12.3219429,7.20485704 18.949708,6.14994299 26.8133063,11.1965305 Z" id="Combined-Shape" fill="url(#linearGradient-48)" opacity="0.600000024"></path>
                    <path d="M26.8133063,11.1965305 C33.5863862,15.5432607 39.4426343,23.2397498 42.2311291,30.7477147 C42.8249269,31.0412605 43.4324024,31.3857839 44.0504318,31.782414 C50.9028493,36.1800604 56.4578313,45.3180497 56.4578313,52.1926844 C56.4578313,59.0394505 50.9477958,61.0589547 44.133703,56.7308345 L11.6579593,35.8892913 C11.4103225,35.7218007 11.1604178,35.5699863 10.908519,35.4083262 C4.88391033,31.5419392 0,23.507868 0,17.4637261 C0,11.6257557 4.55640328,9.77958395 10.2961338,13.1444988 C12.3219429,7.20485704 18.949708,6.14994299 26.8133063,11.1965305 Z" id="Combined-Shape" stroke="#00EBFF" stroke-width="2"></path>
                    <path d="M1.91553911,12.6045905 C7.38745165,8.0872727 10.4596731,5.49157267 11.1322036,4.81749038 C12.947877,2.99762738 16.148591,3.00729258 19.8383025,5.17038453 C21.8641116,-0.769257187 28.4918767,-1.82417124 36.355475,3.22241627 C43.1285548,7.56914645 48.984803,15.2656356 51.7732978,22.7736004 C52.3670956,23.0671463 52.9745711,23.4116697 53.5926005,23.8082997 C60.445018,28.2059461 66,37.3439355 66,44.2185701 C66,46.9645089 65.1137319,48.9340011 63.6125165,50.0289707 C62.1939534,51.0636546 59.425589,53.2391137 55.3074233,56.5556495 C55.2201469,56.6256289 59.2312041,44.3992047 46.7358928,34.0870021 C45.8575512,33.3621194 43.3495168,32.4554935 42.4229692,30.5371975 C36.355475,17.9752421 30.3735471,11.712816 19.8383025,8.34595402 C15.6423075,7.00499458 12.2231857,9.84421533 9.72582125,12.6045905 C7.13682464,11.2365055 4.53339726,11.2365055 1.91553911,12.6045905 Z" id="Combined-Shape" fill="url(#linearGradient-49)" opacity="0.600000024"></path>
                    <path d="M1.91553911,12.6045905 C7.38745165,8.0872727 10.4596731,5.49157267 11.1322036,4.81749038 C12.947877,2.99762738 16.148591,3.00729258 19.8383025,5.17038453 C21.8641116,-0.769257187 28.4918767,-1.82417124 36.355475,3.22241627 C43.1285548,7.56914645 48.984803,15.2656356 51.7732978,22.7736004 C52.3670956,23.0671463 52.9745711,23.4116697 53.5926005,23.8082997 C60.445018,28.2059461 66,37.3439355 66,44.2185701 C66,46.9645089 65.1137319,48.9340011 63.6125165,50.0289707 C62.1939534,51.0636546 59.425589,53.2391137 55.3074233,56.5553479" id="Combined-Shape" stroke="#00EBFF" stroke-width="2"></path>
                </g>
                <g id="Cloud" transform="translate(311.000000, 220.031491)">
                    <path d="M26.8133063,11.1965305 C33.5863862,15.5432607 39.4426343,23.2397498 42.2311291,30.7477147 C42.8249269,31.0412605 43.4324024,31.3857839 44.0504318,31.782414 C50.9028493,36.1800604 56.4578313,45.3180497 56.4578313,52.1926844 C56.4578313,59.0394505 50.9477958,61.0589547 44.133703,56.7308345 L11.6579593,35.8892913 C11.4103225,35.7218007 11.1604178,35.5699863 10.908519,35.4083262 C4.88391033,31.5419392 0,23.507868 0,17.4637261 C0,11.6257557 4.55640328,9.77958395 10.2961338,13.1444988 C12.3219429,7.20485704 18.949708,6.14994299 26.8133063,11.1965305 Z" id="Combined-Shape" fill="url(#linearGradient-48)" opacity="0.600000024"></path>
                    <path d="M26.8133063,11.1965305 C33.5863862,15.5432607 39.4426343,23.2397498 42.2311291,30.7477147 C42.8249269,31.0412605 43.4324024,31.3857839 44.0504318,31.782414 C50.9028493,36.1800604 56.4578313,45.3180497 56.4578313,52.1926844 C56.4578313,59.0394505 50.9477958,61.0589547 44.133703,56.7308345 L11.6579593,35.8892913 C11.4103225,35.7218007 11.1604178,35.5699863 10.908519,35.4083262 C4.88391033,31.5419392 0,23.507868 0,17.4637261 C0,11.6257557 4.55640328,9.77958395 10.2961338,13.1444988 C12.3219429,7.20485704 18.949708,6.14994299 26.8133063,11.1965305 Z" id="Combined-Shape" stroke="#00EBFF" stroke-width="2"></path>
                    <path d="M1.91553911,12.6045905 C7.38745165,8.0872727 10.4596731,5.49157267 11.1322036,4.81749038 C12.947877,2.99762738 16.148591,3.00729258 19.8383025,5.17038453 C21.8641116,-0.769257187 28.4918767,-1.82417124 36.355475,3.22241627 C43.1285548,7.56914645 48.984803,15.2656356 51.7732978,22.7736004 C52.3670956,23.0671463 52.9745711,23.4116697 53.5926005,23.8082997 C60.445018,28.2059461 66,37.3439355 66,44.2185701 C66,46.9645089 65.1137319,48.9340011 63.6125165,50.0289707 C62.1939534,51.0636546 59.425589,53.2391137 55.3074233,56.5556495 C55.2201469,56.6256289 59.2312041,44.3992047 46.7358928,34.0870021 C45.8575512,33.3621194 43.3495168,32.4554935 42.4229692,30.5371975 C36.355475,17.9752421 30.3735471,11.712816 19.8383025,8.34595402 C15.6423075,7.00499458 12.2231857,9.84421533 9.72582125,12.6045905 C7.13682464,11.2365055 4.53339726,11.2365055 1.91553911,12.6045905 Z" id="Combined-Shape" fill="url(#linearGradient-49)" opacity="0.600000024"></path>
                    <path d="M1.91553911,12.6045905 C7.38745165,8.0872727 10.4596731,5.49157267 11.1322036,4.81749038 C12.947877,2.99762738 16.148591,3.00729258 19.8383025,5.17038453 C21.8641116,-0.769257187 28.4918767,-1.82417124 36.355475,3.22241627 C43.1285548,7.56914645 48.984803,15.2656356 51.7732978,22.7736004 C52.3670956,23.0671463 52.9745711,23.4116697 53.5926005,23.8082997 C60.445018,28.2059461 66,37.3439355 66,44.2185701 C66,46.9645089 65.1137319,48.9340011 63.6125165,50.0289707 C62.1939534,51.0636546 59.425589,53.2391137 55.3074233,56.5553479" id="Combined-Shape" stroke="#00EBFF" stroke-width="2"></path>
                </g>
                <g id="Cloud" transform="translate(522.000000, 0.000000)">
                    <path d="M33.719764,14.043106 C42.237425,19.4949371 49.6021008,29.1481608 53.1088442,38.5649302 C53.8555899,38.9331064 54.6195363,39.3652205 55.3967552,39.8626887 C64.0141893,45.3783808 71,56.8395877 71,65.4620109 C71,74.0494803 64.070713,76.5824178 55.5014749,71.153928 L14.660767,45.0136874 C14.3493449,44.8036144 14.0350709,44.6132031 13.7182891,44.4104431 C6.14188723,39.5610762 0,29.4844446 0,21.9036565 C0,14.5814563 5.73002231,12.2659189 12.9481683,16.4863205 C15.4957767,9.03660035 23.8306934,7.71348782 33.719764,14.043106 Z" id="Combined-Shape" fill="url(#linearGradient-46)" opacity="0.600000024"></path>
                    <path d="M33.719764,14.043106 C42.237425,19.4949371 49.6021008,29.1481608 53.1088442,38.5649302 C53.8555899,38.9331064 54.6195363,39.3652205 55.3967552,39.8626887 C64.0141893,45.3783808 71,56.8395877 71,65.4620109 C71,74.0494803 64.070713,76.5824178 55.5014749,71.153928 L14.660767,45.0136874 C14.3493449,44.8036144 14.0350709,44.6132031 13.7182891,44.4104431 C6.14188723,39.5610762 0,29.4844446 0,21.9036565 C0,14.5814563 5.73002231,12.2659189 12.9481683,16.4863205 C15.4957767,9.03660035 23.8306934,7.71348782 33.719764,14.043106 Z" id="Combined-Shape" stroke="#00EBFF" stroke-width="1.2"></path>
                    <path d="M2.40893555,15.8091474 C9.2902801,10.143359 13.1538314,6.88773521 13.9995894,6.04227607 C16.2829362,3.75973603 20.3080765,3.77185849 24.9481683,6.48488907 C27.4957767,-0.964831048 35.8306934,-2.28794359 45.719764,4.04167464 C54.237425,9.49350571 61.6021008,19.1467294 65.1088442,28.5634988 C65.8555899,28.931675 66.6195363,29.3637891 67.3967552,29.8612573 C76.0141893,35.3769494 83,46.8381563 83,55.4605795 C83,58.9046383 81.8854507,61.3748489 79.9975587,62.7482005 C78.2136081,64.0459397 74.7321801,66.7744815 69.5532747,70.9342044 C69.4435181,71.0219752 74.4877264,55.6871381 58.7739258,42.7531891 C57.6693448,41.8440141 54.5153015,40.7068901 53.3500977,38.3008918 C45.719764,22.5452188 38.1970365,14.6906505 24.9481683,10.4678067 C19.6713867,8.78592541 15.371582,12.3469819 12.230957,15.8091474 C8.97509766,14.0932442 5.70109049,14.0932442 2.40893555,15.8091474 Z" id="Combined-Shape" fill="url(#linearGradient-47)" opacity="0.600000024"></path>
                    <path d="M2.40893555,15.8091474 C9.2902801,10.143359 13.1538314,6.88773521 13.9995894,6.04227607 C16.2829362,3.75973603 20.3080765,3.77185849 24.9481683,6.48488907 C27.4957767,-0.964831048 35.8306934,-2.28794359 45.719764,4.04167464 C54.237425,9.49350571 61.6021008,19.1467294 65.1088442,28.5634988 C65.8555899,28.931675 66.6195363,29.3637891 67.3967552,29.8612573 C76.0141893,35.3769494 83,46.8381563 83,55.4605795 C83,58.9046383 81.8854507,61.3748489 79.9975587,62.7482005 C78.2136081,64.0459397 74.7321801,66.7744815 69.5532747,70.9338261" id="Combined-Shape" stroke="#00EBFF" stroke-width="1.2"></path>
                </g>
                <g id="Men" transform="translate(235.842066, 301.671494) scale(-1, 1) translate(-235.842066, -301.671494) translate(206.684132, 215.030775)">
                    <path d="M28.3875131,143.330938 C28.1783135,145.872377 28.3493679,147.655238 28.9006763,148.679521 C29.4519847,149.703803 29.7167944,150.656875 29.6951052,151.538735 C27.279537,152.434573 24.8729849,152.882491 22.4754489,152.882491 L22.282327,152.229691 C20.4474485,152.360024 18.6823662,152.941425 16.9870802,153.973893 C14.4441511,155.522594 9.78274503,156.483095 7.22052271,155.677294 C4.65830038,154.871493 4.71239721,152.683338 6.24734732,151.166623 C7.78229742,149.649908 13.0353639,147.384497 15.6883781,146.404919 C17.4570542,145.751866 19.418537,143.18606 21.5728264,138.7075 L28.3875131,143.330938 Z" id="Shoes" fill="#000000"></path>
                    <path d="M39.1879019,156.667031 C38.3075925,158.443953 37.0167355,160.228635 35.315331,162.021076 C32.7632241,164.709738 29.5947935,169.213919 32.1850815,171.986664 C34.7753695,174.75941 43.0078231,170.587549 44.0656412,167.312109 C45.1234594,164.03667 45.6969801,162.277942 46.3380211,161.675512 L46.6494987,162.484438 C48.5380577,160.726781 49.4823373,159.546001 49.4823373,158.942099 C49.4823373,158.338197 49.4823373,155.603981 49.4823373,150.739453 L39.1879019,156.667031 Z" id="Shoes" fill="#000000"></path>
                    <path d="M31.7638834,102.104935 C29.4349687,129.894865 28.2705113,144.416341 28.2705113,145.669364 C28.2705113,147.548899 21.8026286,148.996177 16.9258941,146.871015 C17.6206566,132.427133 17.6114127,121.626999 16.8981625,114.470612 C15.8282872,103.736032 13.3396816,88.804507 15.118922,79.0448129 C16.3050824,72.5383502 23.7122208,71.1762928 37.3403373,74.9586408 L31.7638834,102.104935 Z" id="Foot" fill="url(#linearGradient-50)"></path>
                    <path d="M46.9129484,89.8038753 C48.7191167,124.743235 49.6222008,144.920039 49.6222008,150.334287 C49.6222008,158.455659 46.0263425,160.266964 43.063889,160.266964 C41.0889201,160.266964 39.3025793,160.060535 37.7048666,159.647677 C37.6544943,144.995092 36.9869275,133.881769 35.7021661,126.307708 C33.775024,114.946616 30.6180477,105.462652 27.574811,92.612943 C25.5459866,84.0464705 23.8983035,78.507803 22.6317619,75.9969403 L41.1954253,79.0725062 L46.9129484,89.8038753 Z" id="Foot" fill="url(#linearGradient-51)"></path>
                    <path d="M15.7157533,78.6908198 C22.3480159,80.3149605 27.6239776,81.1270308 31.5436386,81.1270308 C37.4231301,81.1270308 43.0112393,40.969283 43.0112393,39.9217524 C43.0112393,39.2233987 42.7538181,34.4531209 42.2389758,25.6109191 L41.4282297,24.273361 L39.5671008,23.6741414 L30.8394983,25.6109191 L25.5232789,26.367469 C22.3652308,33.3013724 20.1467735,40.4036432 18.8679067,47.6742816 C17.5890399,54.9449199 16.5383221,65.2837659 15.7157533,78.6908198 Z" id="Cloth" fill="url(#linearGradient-52)"></path>
                    <path d="M23.8107549,11.6340113 C20.9253335,10.7321717 19.8452096,8.91685339 20.570383,6.18805624 C21.5072273,6.8038651 22.5592847,6.29936473 23.7265554,4.67455514 C25.4774615,2.23734074 32.8315483,-3.60735825 41.0830924,3.91178429 C43.1297347,3.91178429 43.9965803,4.93784252 43.683629,6.98995898 C43.2142021,10.0681337 41.5406631,15.6244607 41.8199882,18.646446 C42.0993132,21.6684314 40.8863591,21.9421539 38.4841635,21.8052926 C36.8826997,21.7140518 31.9915635,18.3236247 23.8107549,11.6340113 Z" id="Hair" fill="#000000"></path>
                    <path d="M11.8033936,76.9912917 C11.8003124,78.9885566 11.4409409,80.8038081 10.7252792,82.4370461 C9.65178672,84.8869031 8.6196906,86.4618112 8.6196906,87.5874049 C8.6196906,88.7129986 7.78694015,88.6044327 6.24422171,88.2727146 C4.70150327,87.9409966 2.40500903,88.4847446 2.40500903,85.6149569 C2.40500903,82.7451692 1.37532435,81.6666495 3.17003822,79.6069074 C4.96475209,77.5471652 6.7773508,75.6479641 7.6985207,73.4553742 C8.31263397,71.9936476 9.68092495,73.1722868 11.8033936,76.9912917 Z" id="Hand" fill="#BBFAFF"></path>
                    <path d="M13.2231287,78.9372504 L6.23839407,74.4613648 C12.8047439,60.5413822 16.6275454,50.899552 17.7067986,45.5358743 L18.5664768,55.0190363 L13.2231287,78.9372504 Z" id="Arm" fill="url(#linearGradient-53)"></path>
                    <path d="M31.02538,35.5897518 L28.2773437,38.2681792 L26.6450001,72.7825064 L23.3951835,76.0916596 L19.5073401,70.2531816 C21.6311485,57.2817292 23.2133877,49.0580788 24.2540578,45.5822305 C25.294728,42.1063822 26.0917087,39.5468221 26.6450001,37.9035502 L25.2663601,34.1860207 L27.7343679,31.1349373 L31.02538,32.2179876 L31.02538,35.5897518 Z" id="Tie" fill="#000000"></path>
                    <path d="M38.8265879,31.3619023 C36.1165987,34.7865781 33.4245279,36.8080914 30.7503755,37.4264422 L28.6672936,32.2489921 L25.3838173,36.0457888 C24.6722417,34.3645892 24.3164538,32.8032937 24.3164538,31.3619023 C24.3164538,29.9205109 25.6203058,27.7906657 28.2280097,24.9723669 L39.7946804,23.7451307 L41.5249887,24.324383 L38.8265879,31.3619023 Z" id="Neck" fill="url(#linearGradient-54)"></path>
                    <g id="Suit" transform="translate(27.985560, 24.248126)">
                        <mask id="mask-57" fill="white">
                            <use xlink:href="#path-56"></use>
                        </mask>
                        <use id="Mask" fill="url(#linearGradient-55)" xlink:href="#path-56"></use>
                        <path d="M13.7580663,-0.498279403 C15.1435723,4.43728879 14.9830106,9.10174321 13.2763813,13.4950839 L10.5938558,13.7429192 L12.9671142,17.1817093 C3.5909014,31.5105365 -1.46756191,40.2012277 -2.20827575,43.2537827 C-2.94898959,46.3063377 -2.56322625,38.7081287 -1.05098573,20.4591556 L7.70133405,4.06971659 L13.7580663,-0.498279403 Z" id="Path-21" fill="url(#linearGradient-58)" mask="url(#mask-57)"></path>
                    </g>
                    <g id="Suit" transform="translate(12.346570, 24.453619)">
                        <mask id="mask-61" fill="white">
                            <use xlink:href="#path-60"></use>
                        </mask>
                        <use id="Mask" fill="url(#linearGradient-59)" xlink:href="#path-60"></use>
                        <path d="M13.0060991,-1.15288569 C10.4869486,3.97586694 8.73403303,7.63091928 7.74735235,9.81227131 L9.0680174,11.6029065 L6.77714985,12.5665544 C6.43164415,23.3084924 7.38342594,30.8198085 9.63249521,35.1005028 C11.8815645,39.3811972 14.8229848,29.6780269 18.4567563,5.99099206 C18.8542419,2.03164747 19.0529847,0.0519751773 19.0529847,0.0519751773 C19.0529847,0.0519751773 17.0373562,-0.349645112 13.0060991,-1.15288569 Z" id="Path-18" fill="url(#linearGradient-62)" mask="url(#mask-61)"></path>
                    </g>
                    <polygon id="Papper" fill="#00EBFF" points="24.9801021 82.5875534 15.7738288 53.9177245 0.053252623 47.4021644 9.02983628 75.839008"></polygon>
                    <path d="M26.7265872,73.7779615 C24.8750705,72.7758841 23.1323366,72.4418583 21.4983853,72.7758841 C19.0474585,73.2769228 17.335035,73.5768838 15.4704898,72.2221177 C13.6059447,70.8673516 11.7863126,69.6168368 11.3529568,67.0934319 C10.9196011,64.570027 11.0829761,63.8081592 11.7069361,63.8081592 C12.330896,63.8081592 12.9025077,66.0084752 15.0152301,67.0934319 C17.1279526,68.1783887 20.1953037,67.4089955 19.7071881,65.9377368 C19.3817778,64.9568976 19.1188069,64.0687375 18.9182756,63.2732564 C21.4167748,63.0632151 23.1335758,63.5480492 24.0686784,64.7277586 C25.0037811,65.9074681 26.3171113,66.7732528 28.0086692,67.3251128 L26.7265872,73.7779615 Z" id="Hand" fill="#BBFAFF"></path>
                    <path d="M10.4510784,82.4998578 C10.2663354,84.4544455 10.356061,85.7969704 10.7202554,86.5274323 C11.2665469,87.6231253 9.26515258,87.8382503 8.9247377,84.9872413 C8.69779445,83.0865686 9.2065747,82.2574407 10.4510784,82.4998578 Z" id="Hand" fill="#BBFAFF"></path>
                    <path d="M40.1159042,23.8570077 L39.6426592,20.558089 C41.515276,19.0804421 42.2389758,17.5936979 41.8137586,16.0978563 C41.1759328,13.8540939 38.8822519,15.9066117 38.3804716,16.6760049 C37.8786912,17.445398 36.2005302,18.2123831 36.2005302,16.396864 C36.2005302,14.581345 36.6514694,10.0223795 33.392007,10.8555877 C30.1325446,11.688796 26.0184278,12.9883761 23.4968658,10.8555877 C22.9356703,13.724457 22.9356703,16.4277682 23.4968658,18.9655215 C24.3386592,22.7721513 24.3386592,27.4760052 27.3045289,27.4760052 C27.4237611,30.3240041 28.5549942,31.5511401 30.6982281,31.157413 C32.841462,30.763686 35.9806873,28.3302176 40.1159042,23.8570077 Z" id="Face" fill="#BBFAFF"></path>
                    <path d="M26.4426402,66.3672845 C37.0218933,65.0883072 43.3089181,64.3171079 45.3037145,64.0536868 C45.5457962,52.3515793 46.0133475,44.5617243 46.7063685,40.6841219 C47.7458998,34.8677183 54.1713814,31.3956159 56.143738,39.657863 C58.1160946,47.9201101 55.6763207,60.1998979 54.4989353,64.6523043 C53.3215499,69.1047107 52.344515,71.9647502 45.6352874,72.7154805 C41.162469,73.2159673 34.7649199,73.7281603 26.4426402,74.2520594 L26.4426402,66.3672845 Z" id="Path-16" fill="url(#linearGradient-63)"></path>
                </g>
            </g>
        </g>
    </g>
</svg>