<?xml version="1.0" encoding="UTF-8"?>
<svg width="150px" height="150px" viewBox="0 0 150 150" version="1.1" xmlns="http://www.w3.org/2000/svg" xmlns:xlink="http://www.w3.org/1999/xlink">
    <!-- Generator: Sketch 62 (91390) - https://sketch.com -->
    <title>cryptocurrency</title>
    <desc>Created with Sketch.</desc>
    <g id="Page-1" stroke="none" stroke-width="1" fill="none" fill-rule="evenodd">
        <g id="cryptocurrency" transform="translate(-8.000000, -8.000000)" fill-rule="nonzero">
            <circle id="Oval" fill="#00EBFF" transform="translate(83.000212, 82.999758) rotate(-9.217470) translate(-83.000212, -82.999758) " cx="83.0002124" cy="82.9997582" r="72.25229"></circle>
            <path d="M83.00024,8.74756 C52.9678468,8.74756 25.8925467,26.8383484 14.3995699,54.5846297 C2.90659301,82.330911 9.2592978,114.26832 30.4954138,135.504422 C51.7315299,156.740523 83.668943,163.093207 111.415217,151.600211 C139.16149,140.107215 157.25224,113.031903 157.25224,82.99951 C157.20564,42.0105886 123.989161,8.79413209 83.00024,8.74756 Z M83.00024,153.25244 C44.2008953,153.25244 12.74736,121.799801 12.74736,83.0004567 C12.74736,44.2011119 44.1999819,12.74756 82.9993267,12.74756 C121.798671,12.74756 153.25224,44.2001653 153.25224,82.99951 C153.208418,121.780603 121.781332,153.208105 83.00024,153.25244 Z" id="Shape" fill="#00EBFF"></path>
            <path d="M109.58765,76.17407 C112.323969,73.3282077 113.852511,69.5336484 113.85291,65.58569 L113.85291,64.46826 C113.843431,55.9969894 106.978471,49.1320335 98.5072,49.12256 L98.5072,50.07178 L98.50671,50.07104 L98.50671,49.12549 L93.298,49.12549 C93.2803,49.12476 93.26321,49.12256 93.24551,49.12256 L93.24551,49.12549 L92.43558,49.12549 L92.43558,37.02612 L84.4169,37.02612 L84.4169,49.12549 L78.1188,49.12549 L78.1188,37.02612 L70.1,37.02612 L70.1,49.12549 L47.47827,49.12549 L47.47827,54.90749 C52.7133771,54.90749 56.95727,59.1513829 56.95727,64.38649 L56.95727,98.58249 C56.95727,103.817597 52.7133771,108.06149 47.47827,108.06149 L47.47827,113.84372 L70.1,113.84372 L70.1,125.94287 L78.11879,125.94287 L78.11879,113.84375 L84.41689,113.84375 L84.41689,125.94287 L92.43557,125.94287 L92.43557,113.84375 L92.70949,113.84375 L92.70949,113.84668 L103.52761,113.84668 C113.825008,113.846553 122.17261,105.498818 122.17261,95.20142 L122.17261,93.78809 C122.159175,85.8350062 117.107165,78.7641691 109.58765,76.17407 L109.58765,76.17407 Z M69.43372,54.90747 L93.24548,54.90747 L93.24548,54.91089 C98.52146,54.9167537 102.797045,59.1922801 102.80298,64.46826 L102.80298,65.58569 C102.797172,70.861802 98.5215918,75.1375428 93.24548,75.14355 L84.60376,75.14355 L84.60376,75.14648 L69.43372,75.14648 L69.43372,54.90747 Z M111.44507,95.20117 C111.437057,102.29854 105.6855,108.050097 98.58813,108.05811 L92.70947,108.05811 L92.70947,108.06152 L69.43372,108.06152 L69.43372,80.92822 L84.60372,80.92822 L84.60372,80.93115 L98.58809,80.93115 C105.68546,80.9391629 111.437017,86.6907198 111.44507,93.78809 L111.44507,95.20117 Z" id="Shape" fill="#FFFFFF"></path>
            <path d="M112.81274,75.36963 C114.796096,72.492599 115.856449,69.0798735 115.85274,65.58545 L115.85274,64.46826 C115.84189,55.6661059 109.249152,48.263226 100.50704,47.23682 L100.50704,47.12549 L98.82833,47.12549 C98.72188,47.12354 98.61446,47.12256 98.50704,47.12256 L94.43575,47.12549 L94.43575,35.02588 L82.4172,35.02688 L82.4172,47.12549 L80.1189,47.12549 L80.1189,35.02588 L68.0999,35.02688 L68.0999,47.12549 L45.47827,47.12549 L45.47827,56.90771 L47.47827,56.90771 C51.6067927,56.9121188 54.9525963,60.2577076 54.95727,64.38623 L54.95727,98.58252 C54.9526963,102.711241 51.6069907,106.057166 47.47827,106.06201 L45.47827,106.06201 L45.47827,115.84326 L68.09985,115.84326 L68.09985,127.94287 L80.11885,127.94187 L80.11885,115.84326 L82.41719,115.84326 L82.41719,127.94287 L94.43574,127.94187 L94.43574,115.84617 L103.52754,115.84617 C114.924154,115.833616 124.159956,106.598253 124.17305,95.20164 L124.17305,93.78855 C124.164033,85.9974754 119.770873,78.8746709 112.81274,75.36963 Z M120.1731,95.20163 C120.162529,104.390151 112.716111,111.83613 103.52759,111.84616 L90.43579,111.84323 L90.43579,123.94186 L86.41724,123.94289 L86.41724,111.84326 L76.1189,111.84326 L76.1189,123.94189 L72.0999,123.94289 L72.0999,111.84326 L49.47827,111.84326 L49.47827,109.88726 C54.9577806,108.91027 58.9505379,104.148493 58.95727,98.58257 L58.95727,64.38623 C58.9504888,58.8205218 54.9576437,54.059053 49.47827,53.08252 L49.47827,51.12552 L72.09985,51.12552 L72.09985,39.02686 L76.11885,39.02586 L76.11885,51.12549 L86.41719,51.12549 L86.41719,39.02686 L90.43574,39.02586 L90.43574,51.12549 L98.50703,51.12549 L98.50703,51.12256 C105.874072,51.1312059 111.844084,57.1012176 111.85273,64.46826 L111.85273,65.58545 C111.853001,69.0188766 110.522926,72.3188577 108.1418,74.79245 L105.9875,77.04733 L108.93574,78.06491 C115.65016,80.3750204 120.161785,86.6878412 120.1731,93.78854 L120.1731,95.20163 Z M98.5881,78.93112 L67.43381,78.92819 L67.43381,110.062 L92.7092,110.062 L98.5881,110.0581 C106.789111,110.048501 113.434951,103.402661 113.44455,95.20165 L113.44455,93.78856 C113.435364,85.5872334 106.789456,78.9408823 98.58813,78.93115 L98.5881,78.93112 Z M109.44455,95.20163 C109.437821,101.194692 104.581162,106.051351 98.5881,106.05808 L71.43381,106.06198 L71.43381,82.92822 L98.5881,82.93115 C104.581349,82.9383418 109.437894,87.7953205 109.44455,93.78857 L109.44455,95.20163 Z M93.24533,77.14304 C99.6254903,77.1359638 104.79588,71.9656102 104.803,65.58545 L104.803,64.46826 C104.79582,58.8590683 100.76858,54.0619374 95.24538,53.0835 L95.24538,52.90771 L67.43384,52.90771 L67.43384,77.146 L84.60376,77.146 L93.24533,77.14304 Z M71.43381,56.90768 L93.24533,56.91061 C97.417246,56.9155363 100.798024,60.296314 100.80295,64.46823 L100.80295,65.58542 C100.798024,69.757336 97.417246,73.1381137 93.24533,73.14304 L71.43381,73.14597 L71.43381,56.90768 Z" id="Shape" fill="#00EBFF"></path>
        </g>
    </g>
</svg>