<svg width="119" height="46" viewBox="0 0 119 46" fill="none" xmlns="http://www.w3.org/2000/svg">
<path d="M0 5.72814C2.75014 5.29982 6.03326 5 9.61483 5C16.1171 5 20.7433 6.52053 23.8132 9.39025C26.9258 12.26 28.7592 16.329 28.7592 22.0256C28.7592 27.7651 26.9898 32.4766 23.7066 35.7104C20.4235 39.0084 15.0298 40.7859 8.20778 40.7859C4.98863 40.7859 2.28112 40.636 0 40.3576V5.72814V5.72814ZM4.54093 36.8668C5.69215 37.081 7.35503 37.1238 9.1245 37.1238C18.8033 37.1238 24.0477 31.6842 24.0477 22.1755C24.0904 13.8662 19.4215 8.59786 9.84934 8.59786C7.50426 8.59786 5.73479 8.81203 4.54093 9.06902V36.8668Z" fill="#150650"/>
<path d="M37.2444 28.664C37.351 34.8747 41.295 37.4446 45.8786 37.4446C49.1617 37.4446 51.123 36.8663 52.8499 36.1382L53.6387 39.4362C52.0184 40.1644 49.2683 40.9996 45.2603 40.9996C37.5216 40.9996 32.874 35.8812 32.874 28.2571C32.874 20.6331 37.351 14.6152 44.6847 14.6152C52.8925 14.6152 55.0883 21.8752 55.0883 26.5225C55.0883 27.4648 54.9817 28.1929 54.9391 28.664H37.2444ZM50.654 25.366C50.6966 22.432 49.4601 17.8919 44.301 17.8919C39.6748 17.8919 37.6495 22.175 37.287 25.366H50.654Z" fill="#150650"/>
<path d="M68.6045 40.4645L57.1562 5.25684H62.0383L67.4959 22.6037C69.0096 27.358 70.31 31.6412 71.2481 35.7745H71.3547C72.3353 31.7054 73.8063 27.2509 75.3626 22.6679L81.2893 5.27825H86.1287L73.5931 40.4859H68.6045V40.4645Z" fill="#150650"/>
<path d="M116.891 20.4622C116.913 20.5479 116.977 20.5907 116.977 20.6764C116.977 20.9976 116.998 21.2974 116.955 21.6401C116.955 21.7257 116.934 21.79 116.934 21.8756C116.934 22.1112 117.105 22.3254 117.083 22.5395C117.083 22.6895 116.998 22.8394 116.998 22.9893C116.998 23.0749 116.998 23.1392 116.998 23.2248C117.019 23.4604 117.062 23.696 117.083 23.953C117.083 24.0387 117.105 24.1243 117.147 24.2314C117.168 24.2956 117.211 24.3171 117.211 24.3813C117.211 24.4456 117.211 24.467 117.211 24.5312C117.211 24.9809 117.211 25.4307 117.211 25.8804C117.19 25.9018 117.126 25.8804 117.147 25.859C117.168 25.6877 116.977 25.5592 116.87 25.4093C116.806 25.3236 116.806 25.1737 116.806 25.088C116.785 24.9381 116.742 24.8096 116.678 24.6597C116.465 24.0387 116.252 23.3962 116.017 22.7751C115.996 22.7109 115.953 22.6466 115.932 22.6038C115.953 22.7323 115.953 22.8394 115.932 22.9679C115.761 22.9893 115.57 22.9464 115.463 22.8179C115.442 22.7965 115.399 22.7323 115.399 22.668C115.42 22.6038 115.484 22.6038 115.527 22.5824C115.591 22.561 115.612 22.5181 115.591 22.4539C115.463 22.4753 115.378 22.4753 115.271 22.4325C115.101 22.3468 114.973 22.1112 114.759 22.1326C114.695 22.1326 114.632 22.1541 114.589 22.1969C114.376 22.3254 114.141 22.3682 113.907 22.4325C113.843 22.4325 113.757 22.4539 113.694 22.4325C113.63 22.411 113.566 22.304 113.544 22.2611C113.48 22.1969 113.416 22.1326 113.331 22.1755C113.203 22.1969 113.182 22.4539 113.054 22.411C113.033 22.411 112.99 22.3896 112.969 22.3468C112.905 22.3254 112.841 22.3468 112.798 22.3468C112.628 22.3682 112.5 22.2183 112.372 22.1112C112.244 21.9613 112.095 21.79 111.988 21.6401C111.924 21.7686 111.69 21.7686 111.69 21.8756C111.69 21.8971 111.711 21.9613 111.753 22.0041C112.031 22.3254 112.329 22.668 112.585 22.9893C112.606 23.0535 112.67 23.0749 112.734 23.1178C112.798 23.1178 112.819 23.1178 112.883 23.1178C113.161 23.0321 113.267 22.668 113.331 22.3896C113.459 22.5181 113.502 22.6895 113.48 22.8608C113.651 22.8608 113.8 22.9893 113.864 23.1392C113.949 23.0749 114.077 23.1392 114.141 23.2248C114.205 23.3105 114.205 23.439 114.205 23.5247C114.205 23.696 114.205 23.9102 114.077 24.1029C114.013 24.1886 113.949 24.2528 113.928 24.3385C113.907 24.4027 113.928 24.4884 113.907 24.5526C113.843 24.7668 113.523 24.7882 113.438 24.9809C113.523 24.9167 113.523 24.9809 113.502 25.0452C113.48 25.1309 113.416 25.1951 113.331 25.2594C112.969 25.5806 112.606 25.9232 112.222 26.2445C112.137 26.3087 112.009 26.3944 111.924 26.373C111.796 26.3516 111.775 26.2017 111.753 26.0732C111.753 25.9447 111.753 25.7948 111.668 25.7091C111.54 25.5806 111.306 25.5592 111.306 25.3878C111.306 25.2594 111.455 25.1737 111.434 25.0666C111.412 25.0024 111.37 24.9809 111.306 24.9381C111.029 24.7668 110.794 24.5526 110.581 24.3171C110.453 24.1671 110.346 24.0172 110.219 23.8459C110.091 23.696 109.984 23.5461 109.899 23.3748C109.835 23.2463 109.771 23.1392 109.686 23.0107C109.536 22.8394 109.323 22.6894 109.217 22.4753C109.238 22.561 109.238 22.6466 109.217 22.7537C109.067 22.7323 108.918 22.6252 108.854 22.4753C108.833 22.561 108.875 22.6895 108.939 22.7537C109.025 22.8179 109.11 22.8822 109.174 22.9679C109.259 23.0964 109.259 23.2034 109.344 23.3319C109.43 23.4604 109.579 23.4818 109.643 23.6318C109.664 23.696 109.643 23.7602 109.664 23.8031C109.686 24.1029 110.027 24.2528 110.176 24.5312C110.197 24.5955 110.24 24.6597 110.197 24.7025C110.197 24.7668 110.133 24.831 110.112 24.8525C110.091 24.8739 110.091 25.0024 110.112 25.0238C110.133 25.0024 110.176 24.9381 110.197 24.8953C110.496 25.0666 110.709 25.345 110.815 25.6448C110.837 25.7305 110.879 25.7948 110.901 25.859C110.965 25.9447 111.071 25.9875 111.199 26.0089C111.498 26.1374 111.732 26.3944 111.796 26.7371C111.817 26.8013 111.817 26.887 111.881 26.9084C111.945 26.9298 112.009 26.9084 112.052 26.9084C112.478 26.7585 112.883 26.5229 113.224 26.1802C113.352 26.2445 113.395 26.3944 113.374 26.5015C113.374 26.6514 113.288 26.7799 113.288 26.887C113.267 27.1011 113.288 27.3153 113.267 27.508C113.246 27.8721 113.033 28.1719 112.819 28.4717C112.457 28.9857 112.073 29.4997 111.711 30.0351C111.647 30.1208 111.583 30.185 111.54 30.2707C111.327 30.5705 111.093 30.8917 110.965 31.2344C110.943 31.2986 110.943 31.3629 110.943 31.4485C110.943 31.5128 111.007 31.577 111.007 31.6199C111.029 31.7484 111.007 31.8983 111.007 32.0482C111.007 32.1981 111.093 32.348 111.242 32.348C111.114 32.7763 111.263 33.2475 111.071 33.6115C110.986 33.7615 110.858 33.8471 110.751 33.9756C110.389 34.2754 110.069 34.5538 109.707 34.8537C109.92 35.1321 109.792 35.6032 109.472 35.7531C109.323 35.8174 109.174 35.8174 109.046 35.9245C108.961 35.9887 108.918 36.0958 108.897 36.2243C108.662 36.8239 108.065 37.2094 107.426 37.4664C106.765 37.7448 106.083 37.8947 105.4 37.9161C105.571 37.2522 104.74 36.7383 104.74 36.053C104.74 35.9245 104.761 35.7745 104.718 35.6675C104.697 35.5818 104.59 35.4961 104.548 35.4319C104.313 35.1963 104.164 34.8965 104.121 34.5538C104.1 34.2326 104.207 33.8685 104.484 33.6544C104.548 33.633 104.569 33.5687 104.612 33.5259C104.676 33.3974 104.633 33.2903 104.612 33.1618C104.59 32.9905 104.526 32.8406 104.484 32.6478C104.42 32.4123 104.334 32.1981 104.334 31.9839C104.015 31.6627 103.716 31.2986 103.439 30.8917C103.418 30.8703 103.375 30.8061 103.375 30.7632C103.354 30.6776 103.396 30.5491 103.439 30.4634C103.567 30.1636 103.61 29.8424 103.588 29.5211C103.567 29.5854 103.439 29.5425 103.418 29.4997C103.396 29.4355 103.354 29.3498 103.269 29.3284C103.247 29.3284 103.205 29.3284 103.183 29.3284C102.97 29.3498 102.757 29.3926 102.565 29.4569C102.544 29.0928 102.139 28.7716 101.798 28.8572C101.67 28.8786 101.52 28.9429 101.414 28.9215C101.35 28.9001 101.286 28.8572 101.243 28.8572C101.115 28.8572 101.094 28.9857 101.009 29.0714C100.923 29.1999 100.732 29.2213 100.582 29.1999C100.433 29.1785 100.284 29.1142 100.135 29.0714C99.8149 28.9857 99.4098 29.05 99.154 29.2213C99.09 29.2427 99.0261 29.2855 98.9834 29.2855C98.9621 29.2855 98.9195 29.2641 98.8982 29.2213C98.621 29.0071 98.5144 28.6216 98.1733 28.4717C98.0881 28.4503 98.0241 28.4075 97.9601 28.3432C97.9388 28.3218 97.8962 28.2576 97.8749 28.2147C97.8109 28.0648 97.7256 27.9149 97.6617 27.765C97.5338 27.4652 97.4272 27.0797 97.0861 26.994C97.0647 26.994 97.0221 26.9726 97.0008 26.9726C96.9795 26.9512 96.9795 26.887 97.0008 26.8227C97.0221 26.6942 97.0221 26.5871 97.0008 26.5015C96.9795 26.4158 96.8515 26.2873 96.7236 26.3301C97.1074 26.0946 97.3206 25.602 97.2353 25.1523C97.214 25.0238 97.2353 24.8739 97.3206 24.8739C97.1927 24.7882 97.15 24.5955 97.1713 24.4241C97.1927 24.2956 97.2992 24.1886 97.3419 24.1029C97.5764 23.8031 97.8109 23.5033 98.0667 23.2034C98.1946 23.0535 98.3439 22.8822 98.5144 22.8179C98.685 22.7537 98.9408 22.6894 98.9834 22.5181C99.0474 22.4967 99.1327 22.4325 99.1327 22.3468C99.154 22.2611 99.1114 22.1969 99.1114 22.1112C99.09 21.8328 99.3885 21.6829 99.6443 21.5972C99.8788 21.5116 100.177 21.3188 100.156 21.0618C100.284 20.9334 100.454 21.1261 100.604 21.2118C100.774 21.3402 101.03 21.2974 101.222 21.2118C101.435 21.1261 101.606 20.9976 101.819 20.9333C101.989 20.8691 102.203 20.8691 102.416 20.8691C102.885 20.8691 103.375 20.8477 103.844 20.8477C103.695 20.9334 103.972 21.1475 103.908 21.2974C103.844 21.4259 103.631 21.4473 103.674 21.5758C103.674 21.5972 103.738 21.6401 103.759 21.6615C104.079 21.8328 104.484 21.9613 104.867 21.9613C104.867 22.0898 104.889 22.1969 104.953 22.2825C105.123 22.2183 105.315 22.3468 105.486 22.411C105.656 22.4967 105.933 22.4753 105.933 22.2611C105.933 22.1969 105.912 22.1112 105.912 22.047C105.912 21.8328 106.147 21.7472 106.338 21.7686C106.509 21.79 106.701 21.9185 106.871 21.9827C106.893 21.9827 106.935 21.9827 106.957 22.0041C107.021 22.0256 107.021 22.0898 107.042 22.1541C107.255 21.9827 107.618 22.2397 107.873 22.1541C108.044 22.0898 108.172 21.9185 108.321 21.9185C108.449 21.9185 108.556 22.0041 108.684 22.0041C108.748 22.0041 108.811 22.0041 108.854 21.9827C109.003 21.8971 109.025 21.6615 109.025 21.4687C109.025 21.1689 109.025 20.8691 109.025 20.5693C108.875 20.5693 108.726 20.5907 108.577 20.5907C108.577 20.7192 108.364 20.7406 108.278 20.6549C108.151 20.5907 108.001 20.505 107.916 20.5907C107.916 20.7406 107.703 20.8263 107.596 20.7406C107.468 20.6549 107.383 20.5264 107.298 20.3765C107.213 20.2266 107.063 20.0767 106.914 19.9268C107.063 19.9054 107.191 19.7983 107.276 19.6912C107.298 19.6698 107.34 19.6056 107.404 19.5627C107.468 19.5413 107.49 19.5627 107.554 19.5627C107.831 19.5627 108.001 19.2415 108.278 19.2415C108.492 19.2415 108.641 19.3914 108.854 19.4771C109.174 19.6056 109.579 19.3914 109.664 19.0487C109.28 18.8774 108.897 18.6847 108.534 18.4705C108.513 18.4705 108.47 18.4491 108.47 18.4491C108.406 18.3849 108.47 18.2778 108.534 18.2135C108.598 18.1493 108.662 18.0422 108.556 17.978C108.278 18.1064 108.023 18.2135 107.788 18.342C107.724 18.3634 107.703 18.4063 107.639 18.3634C107.575 18.342 107.511 18.2349 107.468 18.2349C107.383 18.2135 107.319 18.3206 107.298 18.4491C107.277 18.5348 107.17 18.6633 107.085 18.599C107.234 18.8132 107.213 19.1344 107.021 19.3272C107.106 19.4128 107.191 19.4985 107.298 19.627C107.234 19.627 107.213 19.627 107.149 19.6484C107.17 19.7126 107.085 19.7983 107.021 19.7983C106.999 19.7983 106.957 19.7769 106.893 19.7769C106.68 19.6912 106.445 19.7126 106.275 19.8411C106.211 19.991 106.296 20.1624 106.445 20.2695C106.424 20.2909 106.36 20.3337 106.317 20.3551C106.445 20.4836 106.466 20.6549 106.381 20.8049C106.168 20.6549 106.083 20.3337 105.869 20.2266C105.72 20.1624 105.571 20.0767 105.55 19.9268C105.55 19.8626 105.55 19.7983 105.55 19.7555C105.528 19.5841 105.315 19.4557 105.123 19.4342C105.145 19.4342 105.209 19.4557 105.251 19.4557C104.953 19.37 104.676 19.1558 104.484 18.9203C104.462 18.8988 104.42 18.8346 104.356 18.7918C104.228 18.7275 104.079 18.7703 103.972 18.8132C103.887 19.0273 104.271 19.1772 104.271 19.3914C104.633 19.6056 104.953 19.8197 105.315 20.0125C105.315 20.0767 105.23 20.0981 105.187 20.0981C105.187 19.9696 105.017 19.9482 104.953 20.0339C105.102 20.2052 105.017 20.505 104.804 20.6121C104.74 20.6335 104.676 20.6121 104.676 20.5479C104.825 20.4622 104.825 20.248 104.697 20.1195C104.612 19.991 104.462 19.9054 104.313 19.8411C104.079 19.6912 103.844 19.5413 103.631 19.3272C103.482 19.1772 103.311 19.0059 103.119 19.0916C103.055 19.3057 102.821 19.3914 102.65 19.3272C102.565 19.3057 102.48 19.1987 102.373 19.1987C102.224 19.1987 102.16 19.4342 102.288 19.5199C101.968 19.6912 101.67 19.9054 101.392 20.1838C101.456 20.248 101.52 20.2695 101.542 20.3337C101.563 20.4836 101.414 20.5693 101.265 20.6335C101.243 20.6549 101.201 20.6549 101.137 20.6978C100.987 20.762 100.838 20.8477 100.689 20.8477C100.561 20.8477 100.454 20.7834 100.369 20.8477C100.305 20.8691 100.241 20.9762 100.156 20.9333C100.092 20.9119 100.092 20.8049 100.071 20.7834C99.9854 20.6121 99.6443 20.7834 99.5377 20.6335C99.623 20.5693 99.6657 20.4622 99.623 20.3551C99.5591 20.3337 99.5377 20.3337 99.4738 20.2909C99.7083 19.9696 99.8575 19.5199 99.8575 19.0916C100.284 19.113 100.689 19.1558 101.137 19.1772C101.158 19.1772 101.201 19.1772 101.222 19.1772C101.286 19.113 101.222 19.0273 101.243 18.9631C101.265 18.8988 101.329 18.8774 101.371 18.8132C101.392 18.7918 101.371 18.7275 101.35 18.6847C101.265 18.5134 101.115 18.3206 100.902 18.2349C100.902 18.1707 100.923 18.1493 100.923 18.085C101.009 18.085 101.137 18.085 101.222 18.1065C101.158 18.0422 101.222 17.9351 101.307 17.8923C101.392 17.8709 101.478 17.9137 101.542 17.9565C101.67 17.8066 101.819 17.721 101.968 17.6567C102.117 17.4854 102.331 17.3569 102.565 17.2926C102.629 17.2712 102.693 17.2712 102.714 17.207C102.714 17.1856 102.714 17.1213 102.714 17.0785C102.736 16.9286 103.077 17.0785 103.162 16.9286C103.162 16.7573 103.162 16.5645 103.162 16.3932C103.29 16.3932 103.375 16.4146 103.46 16.4788C103.311 16.5645 103.311 16.8001 103.46 16.9286C103.61 17.0571 103.823 16.7787 103.972 16.8643C103.993 16.8857 104.036 16.9286 104.1 16.9286C104.164 16.9286 104.228 16.9072 104.249 16.8429C104.398 16.693 104.633 16.6716 104.825 16.7573C104.889 16.693 104.974 16.6716 105.038 16.6716C105.017 16.5003 105.017 16.2861 105.038 16.0934C105.123 16.0934 105.209 16.1576 105.273 16.2433C105.358 16.179 105.422 16.0719 105.422 15.9434C105.336 15.9434 105.209 15.922 105.145 15.815C105.23 15.7507 105.379 15.7507 105.507 15.7507C105.635 15.7507 105.742 15.7507 105.827 15.665C105.912 15.6008 105.955 15.4295 105.848 15.3652C105.635 15.3438 105.4 15.3866 105.23 15.5365C105.145 15.6008 104.995 15.7079 104.91 15.6008C104.889 15.5794 104.889 15.4723 104.846 15.4509C104.782 15.3652 104.633 15.3224 104.633 15.2153C104.633 15.1296 104.761 15.0868 104.804 15.044C104.889 14.9797 104.974 14.8941 104.974 14.7656C104.974 14.6371 104.825 14.5514 104.74 14.6157C104.654 14.6799 104.654 14.8298 104.612 14.9155C104.548 15.0011 104.462 15.0654 104.398 15.1296C104.313 15.1939 104.249 15.301 104.313 15.408C104.441 15.408 104.526 15.5365 104.526 15.6436C104.526 15.7721 104.398 15.8578 104.292 15.8578C104.356 15.922 104.377 16.0077 104.441 16.0719C104.377 16.1576 104.356 16.2861 104.292 16.3718C104.228 16.4574 104.143 16.5431 104.015 16.5431C103.865 16.5217 103.802 16.3718 103.78 16.2433C103.716 16.0719 103.652 15.922 103.61 15.7293C103.396 15.9006 103.141 16.1148 102.863 16.0077C102.693 15.922 102.629 15.6865 102.693 15.4723C102.778 15.301 102.97 15.1511 103.162 15.1082C103.247 15.0868 103.333 15.0868 103.396 15.044C103.46 15.0226 103.524 14.9155 103.546 14.8727C103.716 14.5514 103.844 14.1873 104.164 13.9946C104.462 13.8233 104.889 13.8661 105.209 13.9304C105.443 13.9946 105.72 14.016 105.955 14.0803C106.04 14.1017 106.168 14.1017 106.232 14.1659C106.317 14.2302 106.36 14.3373 106.296 14.4443C106.147 14.4229 105.976 14.4443 105.827 14.4658C105.976 14.5514 106.104 14.6371 106.253 14.7442C106.232 14.7227 106.253 14.6799 106.275 14.6585C106.296 14.6585 106.338 14.6585 106.402 14.6371C106.573 14.5728 106.402 14.1873 106.616 14.1231C106.53 14.1017 106.466 14.0374 106.445 13.9518C106.573 13.9518 106.658 13.9732 106.744 14.0374C106.722 14.1017 106.722 14.1659 106.68 14.2088C106.744 14.273 106.85 14.1873 106.893 14.0803C106.914 13.9946 106.978 13.9089 107.021 13.8019C107.106 13.8019 107.234 13.8019 107.319 13.7376C107.298 13.6734 107.255 13.6091 107.255 13.5663C107.319 13.5663 107.383 13.5449 107.468 13.5449C107.383 13.395 107.298 13.245 107.255 13.0737C107.319 13.138 107.426 13.1594 107.532 13.138C107.468 12.9666 107.298 12.8596 107.149 12.7525C106.999 12.624 106.85 12.4527 106.935 12.2813C107.085 12.3028 107.234 12.3027 107.383 12.3027C107.362 12.2385 107.319 12.1743 107.298 12.0886C107.362 11.9173 114.184 13.4592 116.891 20.4622Z" fill="#150650"/>
<path d="M112.927 33.0549C112.905 33.1191 112.841 33.2048 112.841 33.2904C112.841 33.3118 112.863 33.3547 112.863 33.3761C112.863 33.4618 112.735 33.5046 112.692 33.5474C112.628 33.6117 112.628 33.6973 112.607 33.783C112.479 34.3826 112.074 34.8752 111.647 35.3249C111.583 35.3892 111.562 35.4106 111.498 35.4534C111.37 35.4749 111.264 35.3678 111.264 35.2393C111.264 35.175 111.328 35.1108 111.328 35.068C111.328 34.9823 111.264 34.8966 111.264 34.8324C111.264 34.7681 111.328 34.7467 111.392 34.7039C111.562 34.554 111.69 34.3398 111.69 34.1042C111.69 33.9757 111.669 33.8687 111.754 33.783C111.818 33.6545 111.989 33.6331 112.031 33.5046C112.052 33.4832 112.052 33.4189 112.095 33.3761C112.159 33.3119 112.244 33.3547 112.308 33.3118C112.543 33.2904 112.543 32.9264 112.735 32.7765C112.799 32.7122 112.884 32.7122 112.948 32.648C113.012 32.6265 113.012 32.5623 113.033 32.498C113.033 32.6265 113.012 32.8621 112.927 33.0549Z" fill="#150650"/>
<path d="M92.4811 35.7964C92.6943 36.032 92.2679 35.1753 92.1826 34.8327C92.1187 34.6185 92.0974 34.383 92.204 34.2116C92.3745 34.1902 92.5664 34.1902 92.7796 34.1474C92.6516 33.8261 92.6303 33.4621 92.6516 33.098C92.673 32.9481 92.673 32.7768 92.6303 32.6269C92.5664 32.5412 92.4811 32.4769 92.4811 32.3484C92.4811 32.2628 92.5664 32.1771 92.6303 32.1129C93.0141 31.6845 93.0993 30.9992 92.8009 30.4853C92.673 30.3139 92.5664 30.164 92.4171 30.0355C92.1187 29.7571 91.7989 29.5644 91.3938 29.4359C91.5431 29.3502 91.4791 29.1146 91.3725 29.0076C91.2446 28.8791 91.074 28.8362 90.9888 28.6863C90.7543 28.7077 90.5624 28.6221 90.4558 28.4722C90.4558 28.4507 90.4345 28.3865 90.4558 28.3437C90.4771 28.3223 90.5197 28.3223 90.5411 28.2794C90.669 28.2152 90.5624 28.001 90.5197 27.8939C90.4345 27.6798 90.4558 27.4228 90.4558 27.1658C90.4345 26.8017 90.2213 26.4805 89.9441 26.2663C89.8802 26.2021 89.8162 26.1807 89.7736 26.1164C89.6457 25.9451 89.7736 25.6881 89.6883 25.5168C89.667 25.4954 89.6243 25.4311 89.6243 25.3883C89.6243 25.324 89.6457 25.3026 89.6883 25.2384C89.7736 25.067 89.7096 24.7886 89.5604 24.6601C89.5391 24.7458 89.3898 24.7244 89.3472 24.6387C89.3259 24.5531 89.3259 24.4674 89.3472 24.3603C89.3685 24.1462 89.3472 23.932 89.2832 23.7393L88.9848 24.189C88.8995 24.189 87.8549 30.6566 92.4811 35.7964Z" fill="#150650"/>
<path d="M101.712 15.686C101.734 15.6646 101.776 15.6646 101.798 15.686C101.819 15.7074 101.798 15.7716 101.734 15.7716C101.648 15.8359 101.563 15.9001 101.499 15.9216C101.627 15.943 101.734 15.943 101.862 15.9216C101.798 16.0501 101.712 16.1357 101.585 16.2428C101.606 16.2642 101.67 16.2642 101.712 16.2642C101.734 16.2642 101.734 16.2856 101.734 16.3285C101.755 16.3927 101.798 16.4784 101.819 16.5426C101.84 16.5426 101.84 16.5426 101.883 16.5426C101.883 16.6711 101.947 16.7782 102.011 16.8639C102.075 16.8424 102.16 16.7996 102.181 16.8639C102.203 16.8853 102.203 16.9495 102.16 17.0138C102.139 17.0352 102.075 17.078 102.011 17.078C102.011 17.1637 102.011 17.2493 101.947 17.2922C101.926 17.2922 101.883 17.2922 101.862 17.2922C101.734 17.2922 101.627 17.4207 101.499 17.3564C101.478 17.3564 101.414 17.335 101.371 17.2922C101.35 17.2708 101.286 17.2708 101.243 17.2922C101.222 17.3136 101.222 17.3564 101.179 17.3778C101.116 17.4421 101.03 17.3564 100.945 17.3993C101.03 17.3778 101.073 17.1851 101.179 17.2279C101.201 17.2279 101.201 17.2279 101.243 17.2493C101.307 17.2493 101.371 17.1851 101.414 17.1208C101.35 17.1208 101.286 17.0994 101.201 17.0994C101.137 17.0994 101.073 17.0994 101.052 17.1208C101.03 17.0994 101.052 17.0566 101.052 17.0566L101.116 17.0352C101.179 17.0138 101.243 16.9495 101.243 16.8639C101.222 16.8424 101.222 16.7996 101.222 16.7782C101.307 16.7996 101.393 16.7782 101.499 16.7139C101.478 16.6497 101.478 16.5854 101.499 16.5426C101.478 16.5426 101.478 16.5212 101.435 16.5212C101.435 16.4998 101.435 16.457 101.435 16.457C101.35 16.457 101.265 16.5212 101.201 16.5854C101.201 16.4998 101.265 16.3713 101.35 16.3499C101.265 16.3285 101.179 16.3285 101.073 16.3499C101.137 16.2856 101.158 16.2642 101.222 16.2C101.158 16.1785 101.073 16.1357 100.988 16.1357C101.009 16.0715 101.073 16.0501 101.137 16.0715C101.137 16.0072 101.073 15.9858 101.052 15.943C101.03 15.9216 100.924 15.9644 100.902 16.0072C100.988 15.9216 101.073 15.7931 101.201 15.7288C101.201 15.7502 101.222 15.8145 101.222 15.8573C101.307 15.8787 101.307 15.7931 101.393 15.7288C101.563 15.7502 101.606 15.7716 101.712 15.686Z" fill="#150650"/>
<path d="M100.817 16.393C100.839 16.3716 100.902 16.3716 100.945 16.393C101.009 16.4144 101.03 16.4573 101.073 16.5215C101.073 16.5429 101.073 16.5429 101.052 16.5858C101.03 16.6072 101.03 16.5858 100.988 16.6072C100.966 16.6286 100.988 16.6714 100.988 16.6928C101.009 16.7785 101.009 16.8642 100.966 16.9284C100.881 16.9927 100.753 16.9284 100.668 16.9927C100.647 17.0141 100.604 17.0569 100.583 17.0783C100.519 17.0997 100.433 17.0997 100.412 17.0141C100.391 16.9927 100.412 16.9284 100.433 16.9284C100.455 16.907 100.519 16.907 100.561 16.907C100.583 16.907 100.647 16.8856 100.647 16.8213C100.583 16.8213 100.625 16.7357 100.583 16.6928C100.583 16.6928 100.561 16.6928 100.561 16.6714C100.54 16.6714 100.54 16.65 100.561 16.6072C100.625 16.5215 100.711 16.6072 100.796 16.5429C100.817 16.5001 100.753 16.4358 100.817 16.393Z" fill="#150650"/>
<path d="M100.987 12.1314C101.008 12.1314 101.051 12.1099 101.072 12.1099C101.158 12.1099 101.221 12.1956 101.307 12.1742C101.371 12.1742 101.435 12.1099 101.477 12.0885C101.605 12.0243 101.712 12.11 101.84 12.1528C101.989 12.1742 102.138 12.1528 102.266 12.217C102.351 12.2813 102.415 12.4312 102.543 12.3884C102.458 12.4098 102.33 12.4526 102.245 12.474C102.181 12.4954 102.16 12.5383 102.117 12.5383C102.096 12.5597 102.053 12.6025 102.032 12.6239C101.797 12.9238 101.435 13.1379 101.072 13.245C101.051 13.245 100.987 13.2664 100.944 13.3092C100.923 13.3307 100.88 13.3735 100.859 13.3949C100.795 13.4806 100.71 13.5662 100.646 13.6733C100.625 13.6947 100.582 13.7376 100.561 13.759C100.475 13.7804 100.39 13.759 100.283 13.759C100.198 13.759 100.113 13.8232 100.006 13.8446C99.8784 13.8661 99.7292 13.7804 99.6226 13.7804C99.4094 13.7804 99.2601 13.9945 99.0896 14.0588C98.8764 14.123 98.6206 13.9945 98.4074 14.123C98.2795 14.1873 98.2368 14.3372 98.1089 14.4014C98.0236 14.4229 97.9384 14.4657 97.8744 14.4871C97.6612 14.5728 97.5546 14.7655 97.3414 14.8083C97.3201 14.7227 97.3414 14.637 97.4054 14.5728C97.3201 14.5728 97.2349 14.5514 97.1709 14.4871C97.3841 14.4014 97.5973 14.273 97.6825 14.0588C97.6825 14.0374 97.7039 13.9945 97.7039 13.9303C97.7891 13.759 98.0237 13.7804 98.1729 13.6519C98.3008 13.5662 98.3434 13.3735 98.4927 13.3521C98.5779 13.3307 98.6632 13.3521 98.7272 13.3521C98.8764 13.3307 98.9617 13.1165 99.1109 13.0522C99.1749 13.0308 99.2388 13.0308 99.2815 12.988C99.3454 12.9666 99.4094 12.8595 99.452 12.8381C99.5373 12.7738 99.6652 12.7738 99.7505 12.7524C99.8358 12.731 99.8997 12.6239 99.9637 12.5383C99.985 12.4526 100.049 12.3669 99.985 12.3027C100.326 12.2599 100.689 12.2599 100.987 12.1314Z" fill="#150650"/>
<path d="M96.4893 13.1813C96.8091 13.0314 95.8711 13.5025 95.5726 13.7167C95.4021 13.8666 95.2102 14.0165 95.0397 14.1878C94.9757 14.2521 94.9117 14.2735 94.8691 14.3377C94.7199 14.4662 94.5493 14.5519 94.5493 14.7232C94.6772 14.5947 94.7838 14.509 94.9331 14.4448C94.997 14.4234 95.061 14.4234 95.1036 14.3591C95.1676 14.3377 95.1889 14.2735 95.2315 14.2092C95.3808 14.0593 95.6153 14.0807 95.7645 13.9308C95.7858 13.9094 95.8285 13.8452 95.8498 13.8023C95.935 13.7167 96.0843 13.7381 96.1696 13.6524C96.2335 13.631 96.2548 13.5239 96.3188 13.4811C96.3827 13.4168 96.468 13.3954 96.532 13.4168C96.4041 13.7167 96.1696 13.9951 95.8711 14.145C95.8071 14.1664 95.7432 14.2306 95.7432 14.2949C95.8711 14.2092 95.9777 14.1664 96.1269 14.145C96.1056 14.3163 95.8924 14.3806 95.7645 14.5091C95.6792 14.6375 95.6366 14.7875 95.53 14.8731C95.466 14.8945 95.3808 14.9374 95.3594 15.023C95.3594 15.0873 95.3808 15.1087 95.3594 15.1729C95.3381 15.2372 95.1889 15.2586 95.2102 15.3229C95.2742 15.3443 95.2955 15.4514 95.2742 15.4942C95.2528 15.5584 95.1889 15.5798 95.1036 15.6227C95.0823 15.6227 95.0183 15.6441 95.0183 15.6869C95.0183 15.7083 95.0183 15.7512 95.0183 15.7726C95.0183 15.8368 94.8904 15.8583 94.8478 15.9011C94.8691 15.8797 94.9117 15.8154 94.8478 15.7726C94.7199 15.794 94.5706 15.8583 94.464 15.9225C94.464 15.9011 94.464 15.8582 94.464 15.8368C94.4427 15.8582 94.3788 15.8368 94.3148 15.8154C94.2509 15.794 94.2509 15.7298 94.2295 15.6869C94.1443 15.6227 94.0164 15.6655 93.9098 15.7083C93.7605 15.794 93.6113 15.8797 93.4834 16.0296C93.6113 15.9439 93.7179 15.8797 93.8671 15.8582C93.9311 15.9225 93.9311 16.0082 93.8884 16.0724C93.8671 16.1367 93.8032 16.2009 93.7392 16.2223C93.6539 16.2866 93.59 16.3508 93.526 16.4365C93.5047 16.5221 93.5047 16.6506 93.59 16.6721C93.4621 16.822 93.2915 16.9076 93.121 16.9076C93.121 16.7791 93.2062 16.6721 93.3342 16.6292C93.3342 16.6078 93.3342 16.6078 93.3342 16.565C93.057 16.5864 92.7372 16.6292 92.6093 16.8648C92.588 16.9505 92.5453 17.0361 92.4601 17.1004C92.4814 17.079 92.4601 17.0147 92.3961 17.0147C92.3322 17.0147 92.3108 17.0361 92.2682 17.079C92.0977 17.2075 91.9058 17.3145 91.7992 17.5073C91.7139 17.6358 91.65 17.7857 91.522 17.8285C91.5007 17.8499 91.4368 17.8499 91.3941 17.8928C91.3302 17.957 91.3089 18.0641 91.2662 18.1712C91.2449 18.2568 91.1383 18.3425 91.053 18.2997L90.8398 18.4496C90.8825 18.471 92.7799 15.0016 96.4893 13.1813Z" fill="#150650"/>
<path d="M103.418 40.0788C111.472 40.0788 118 33.7027 118 25.8373C118 17.9719 111.472 11.5957 103.418 11.5957C95.3646 11.5957 88.8359 17.9719 88.8359 25.8373C88.8359 33.7027 95.3646 40.0788 103.418 40.0788Z" stroke="#150650" stroke-width="0.7065" stroke-miterlimit="10"/>
</svg>
