<svg height='100px' width='100px'  fill="#42e8e0" xmlns:x="http://ns.adobe.com/Extensibility/1.0/" xmlns:i="http://ns.adobe.com/AdobeIllustrator/10.0/" xmlns:graph="http://ns.adobe.com/Graphs/1.0/" xmlns="http://www.w3.org/2000/svg" xmlns:xlink="http://www.w3.org/1999/xlink" version="1.1" x="0px" y="0px" viewBox="0 0 100 100" style="enable-background:new 0 0 100 100;" xml:space="preserve"><g><g i:extraneous="self"><g><path d="M63.3,50c0,1.6,0.6,3.1,1.7,4.2l22.3,22.3c2.3,2.3,6.1,2.3,8.4,0c2.3-2.3,2.3-6.1,0-8.4l-18-18l18-18     c2.3-2.3,2.3-6.1,0-8.4c-1.2-1.2-2.7-1.7-4.2-1.7c-1.5,0-3.1,0.6-4.2,1.7L65,45.8C63.9,46.9,63.3,48.4,63.3,50z"></path><path d="M34.6,54.2l22.3,22.3c2.3,2.3,6.1,2.3,8.4,0c2.3-2.3,2.3-6.1,0-8.4l-18-18l18-18c2.3-2.3,2.3-6.1,0-8.4     c-1.2-1.2-2.7-1.7-4.2-1.7c-1.5,0-3.1,0.6-4.2,1.7L34.6,45.8C32.3,48.1,32.3,51.9,34.6,54.2z"></path><path d="M4.2,54.2l22.3,22.3c2.3,2.3,6.1,2.3,8.4,0c2.3-2.3,2.3-6.1,0-8.4l-18-18l18-18c2.3-2.3,2.3-6.1,0-8.4     c-1.2-1.2-2.7-1.7-4.2-1.7s-3.1,0.6-4.2,1.7L4.2,45.8C1.9,48.1,1.9,51.9,4.2,54.2z"></path></g></g></g></svg>