<?xml version="1.0" encoding="UTF-8"?>
<svg width="138px" height="164px" viewBox="0 0 138 164" version="1.1" xmlns="http://www.w3.org/2000/svg" xmlns:xlink="http://www.w3.org/1999/xlink">
    <!-- Generator: Sketch 62 (91390) - https://sketch.com -->
    <title>payment</title>
    <desc>Created with Sketch.</desc>
    <g id="Page-1" stroke="none" stroke-width="1" fill="none" fill-rule="evenodd">
        <g id="payment" fill-rule="nonzero">
            <rect id="Rectangle" fill="#00EBFF" x="2.95605" y="2.38184" width="132.08716" height="132.08716"></rect>
            <polygon id="Path" fill="#00EBFF" points="0.957 0.382 0.957 136.469 40.664 136.469 40.664 132.469 4.957 132.469 4.957 4.382 133.043 4.382 133.043 132.469 96.319 132.469 96.319 136.469 137.043 136.469 137.043 0.382"></polygon>
            <rect id="Rectangle" fill="#FFFFFF" x="17.75159" y="18.8938" width="102.49622" height="30.03455"></rect>
            <path d="M15.75146,16.89355 L15.75146,50.92871 L122.24756,50.92871 L122.24756,16.89355 L15.75146,16.89355 Z M118.24756,46.92871 L19.75146,46.92871 L19.75146,20.89355 L118.24756,20.89355 L118.24756,46.92871 Z" id="Shape" fill="#00EBFF"></path>
            <rect id="Rectangle" fill="#CEECF3" x="29.75317" y="96.58911" width="78.49304" height="13.10205"></rect>
            <rect id="Rectangle" fill="#FFFFFF" x="29.75317" y="96.58911" width="78.49304" height="13.10205"></rect>
            <polygon id="Path" fill="#FFFFFF" points="27.753 94.589 27.753 111.691 40.664 111.691 40.664 107.691 31.753 107.691 31.753 98.589 106.247 98.589 106.247 107.691 97.395 107.691 97.395 111.691 110.247 111.691 110.247 94.589"></polygon>
            <path d="M40.6637,96.58911 L40.6637,154.27771 C40.6637,156.2246 41.4370597,158.091759 42.813707,159.468431 C44.1903543,160.845103 46.0574995,161.61853 48.00439,161.61853 L88.97778,161.61853 C90.9246596,161.61853 92.7917919,160.845096 94.1684212,159.468421 C95.5450504,158.091747 96.31836,156.22459 96.31836,154.27771 L96.31836,96.58911 L40.6637,96.58911 Z" id="Path" fill="#00EBFF"></path>
            <path d="M54.57861,136.28906 C51.063775,136.28906 48.21447,139.138445 48.21447,142.65328 C48.21447,146.168115 51.063815,149.01746 54.57865,149.01746 C58.093485,149.01746 60.94287,146.168155 60.94287,142.65332 C60.94287,140.96541 60.2723657,139.346629 59.0788331,138.153097 C57.8853005,136.959564 56.2665199,136.28906 54.57861,136.28906 Z" id="Path" fill="#FFFFFF"></path>
            <path d="M54.57861,128.10486 C52.0045305,128.10486 49.6839262,129.655495 48.698892,132.033644 C47.7138577,134.411793 48.2583793,137.149144 50.078547,138.969275 C51.8987147,140.789405 54.6360773,141.333871 57.0142063,140.348788 C59.3923352,139.363705 60.94287,137.04307 60.94287,134.46899 C60.94287,130.954157 58.093443,128.10486 54.57861,128.10486 L54.57861,128.10486 Z" id="Path" fill="#FFFFFF"></path>
            <rect id="Rectangle" fill="#FFFFFF" x="73.71252" y="96.58911" width="10.09265" height="65.02942"></rect>
            <path d="M38.66357,94.58887 L38.66357,154.27734 C38.6695105,159.43367 42.8480602,163.612219 48.00439,163.61816 L88.978,163.61816 C94.1343298,163.612219 98.3128795,159.43367 98.31882,154.27734 L98.31882,94.58887 L38.66357,94.58887 Z M94.31885,154.27734 C94.3157854,157.225723 91.9264131,159.615095 88.97803,159.61816 L48.00439,159.61816 C45.0560069,159.615095 42.6666346,157.225723 42.66357,154.27734 L42.66357,98.58887 L94.31885,98.58887 L94.31885,154.27734 Z" id="Shape" fill="#00EBFF"></path>
            <rect id="Rectangle" fill="#FFFFFF" x="29.75342" y="69.97168" width="78.49316" height="4"></rect>
        </g>
    </g>
</svg>