<?xml version="1.0" encoding="UTF-8"?>
<svg width="1113px" height="744px" viewBox="0 0 1113 744" version="1.1" xmlns="http://www.w3.org/2000/svg" xmlns:xlink="http://www.w3.org/1999/xlink">
    <!-- Generator: Sketch 62 (91390) - https://sketch.com -->
    <title>Radar base</title>
    <desc>Created with Sketch.</desc>
    <defs>
        <linearGradient x1="108.043075%" y1="26.4005812%" x2="10.3729256%" y2="68.315097%" id="linearGradient-1">
            <stop stop-color="#00EBFF" stop-opacity="0" offset="0%"></stop>
            <stop stop-color="#00EBFF" offset="100%"></stop>
        </linearGradient>
        <linearGradient x1="103.032643%" y1="73.531563%" x2="10.4371329%" y2="32.5369045%" id="linearGradient-2">
            <stop stop-color="#00EBFF" stop-opacity="0" offset="0%"></stop>
            <stop stop-color="#00EBFF" offset="100%"></stop>
        </linearGradient>
    </defs>
    <g id="Partial-Assets---Single-Elements" stroke="none" stroke-width="1" fill="none" fill-rule="evenodd">
        <g id="Partial-Assets" transform="translate(-164.000000, -5282.000000)" fill-rule="nonzero">
            <g id="Radar-base" transform="translate(164.000000, 5282.000000)">
                <g id="Radar-Base" opacity="0.200000003" transform="translate(0.000000, 0.074643)" fill="#00EBFF">
                    <path d="M477.590821,53.3327276 L556.326284,104.599286 L635.061747,53.3327276 L556.326284,2.06616866 L477.590821,53.3327276 Z M556.626572,0.697495837 L636.563186,52.7461535 C636.96357,53.0068531 636.96357,53.6586021 636.563186,53.9193016 L556.626572,105.967959 C556.440753,106.08895 556.211815,106.08895 556.025996,105.967959 L476.089381,53.9193016 C475.688997,53.6586021 475.688997,53.0068531 476.089381,52.7461535 L556.025996,0.697495837 C556.211815,0.576504739 556.440753,0.576504739 556.626572,0.697495837 Z" id="Polygon-5-Copy-21"></path>
                    <path d="M556.866824,104.808849 L635.602287,156.075408 L714.33775,104.808849 L635.602287,53.5422903 L556.866824,104.808849 Z M635.902575,52.1736175 L715.83919,104.222275 C716.239574,104.482975 716.239574,105.134724 715.83919,105.395423 L635.902575,157.444081 C635.716756,157.565072 635.487818,157.565072 635.301999,157.444081 L555.365385,105.395423 C554.965001,105.134724 554.965001,104.482975 555.365385,104.222275 L635.301999,52.1736175 C635.487818,52.0526264 635.716756,52.0526264 635.902575,52.1736175 Z" id="Polygon-5-Copy-22"></path>
                    <path d="M714.878291,105.018412 L636.142828,156.284971 L714.878291,207.55153 L793.613754,156.284971 L714.878291,105.018412 Z M715.178579,103.649739 L795.115193,155.698397 C795.515577,155.959096 795.515577,156.610845 795.115193,156.871545 L715.178579,208.920203 C714.99276,209.041194 714.763822,209.041194 714.578003,208.920203 L634.641388,156.871545 C634.241004,156.610845 634.241004,155.959096 634.641388,155.698397 L714.578003,103.649739 C714.763822,103.528748 714.99276,103.528748 715.178579,103.649739 Z" id="Polygon-5-Copy-23"></path>
                    <path d="M794.154294,156.494534 L715.418831,207.761093 L794.154294,259.027651 L872.889757,207.761093 L794.154294,156.494534 Z M794.454582,155.125861 L874.391197,207.174518 C874.79158,207.435218 874.79158,208.086967 874.391197,208.347667 L794.454582,260.396324 C794.268763,260.517315 794.039825,260.517315 793.854006,260.396324 L713.917392,208.347667 C713.517008,208.086967 713.517008,207.435218 713.917392,207.174518 L793.854006,155.125861 C794.039825,155.00487 794.268763,155.00487 794.454582,155.125861 Z" id="Polygon-5-Copy-24"></path>
                    <path d="M794.694835,259.237214 L873.430298,310.503773 L952.165761,259.237214 L873.430298,207.970655 L794.694835,259.237214 Z M873.730586,206.601982 L953.6672,258.65064 C954.067584,258.91134 954.067584,259.563089 953.6672,259.823788 L873.730586,311.872446 C873.544767,311.993437 873.315829,311.993437 873.13001,311.872446 L793.193395,259.823788 C792.793011,259.563089 792.793011,258.91134 793.193395,258.65064 L873.13001,206.601982 C873.315829,206.480991 873.544767,206.480991 873.730586,206.601982 Z" id="Polygon-5-Copy-25"></path>
                    <path d="M873.970838,310.713336 L952.706301,361.979895 L1031.44176,310.713336 L952.706301,259.446777 L873.970838,310.713336 Z M953.006589,258.078104 L1032.9432,310.126762 C1033.34359,310.387461 1033.34359,311.03921 1032.9432,311.29991 L953.006589,363.348568 C952.82077,363.469559 952.591832,363.469559 952.406013,363.348568 L872.469399,311.29991 C872.069015,311.03921 872.069015,310.387461 872.469399,310.126762 L952.406013,258.078104 C952.591832,257.957113 952.82077,257.957113 953.006589,258.078104 Z" id="Polygon-5-Copy-26"></path>
                    <path d="M953.246842,362.189457 L1031.9823,413.456016 L1110.71777,362.189457 L1031.9823,310.922899 L953.246842,362.189457 Z M1032.28259,309.554226 L1112.21921,361.602883 C1112.61959,361.863583 1112.61959,362.515332 1112.21921,362.776032 L1032.28259,414.824689 C1032.09677,414.94568 1031.86784,414.94568 1031.68202,414.824689 L951.745402,362.776032 C951.345018,362.515332 951.345018,361.863583 951.745402,361.602883 L1031.68202,309.554226 C1031.86784,309.433235 1032.09677,309.433235 1032.28259,309.554226 Z" id="Polygon-5-Copy-27"></path>
                    <path d="M398.314817,104.808849 L477.05028,156.075408 L555.785743,104.808849 L477.05028,53.5422903 L398.314817,104.808849 Z M477.350568,52.1736175 L557.287183,104.222275 C557.687567,104.482975 557.687567,105.134724 557.287183,105.395423 L477.350568,157.444081 C477.164749,157.565072 476.935811,157.565072 476.749992,157.444081 L396.813378,105.395423 C396.412994,105.134724 396.412994,104.482975 396.813378,104.222275 L476.749992,52.1736175 C476.935811,52.0526264 477.164749,52.0526264 477.350568,52.1736175 Z" id="Polygon-5-Copy-21"></path>
                    <path d="M477.590821,156.284971 L556.326284,207.55153 L635.061747,156.284971 L556.326284,105.018412 L477.590821,156.284971 Z M556.626572,103.649739 L636.563186,155.698397 C636.96357,155.959096 636.96357,156.610845 636.563186,156.871545 L556.626572,208.920203 C556.440753,209.041194 556.211815,209.041194 556.025996,208.920203 L476.089381,156.871545 C475.688997,156.610845 475.688997,155.959096 476.089381,155.698397 L556.025996,103.649739 C556.211815,103.528748 556.440753,103.528748 556.626572,103.649739 Z" id="Polygon-5-Copy-22"></path>
                    <path d="M556.866824,207.761093 L635.602287,259.027651 L714.33775,207.761093 L635.602287,156.494534 L556.866824,207.761093 Z M635.902575,155.125861 L715.83919,207.174518 C716.239574,207.435218 716.239574,208.086967 715.83919,208.347667 L635.902575,260.396324 C635.716756,260.517315 635.487818,260.517315 635.301999,260.396324 L555.365385,208.347667 C554.965001,208.086967 554.965001,207.435218 555.365385,207.174518 L635.301999,155.125861 C635.487818,155.00487 635.716756,155.00487 635.902575,155.125861 Z" id="Polygon-5-Copy-23"></path>
                    <path d="M636.142828,259.237214 L714.878291,310.503773 L793.613754,259.237214 L714.878291,207.970655 L636.142828,259.237214 Z M715.178579,206.601982 L795.115193,258.65064 C795.515577,258.91134 795.515577,259.563089 795.115193,259.823788 L715.178579,311.872446 C714.99276,311.993437 714.763822,311.993437 714.578003,311.872446 L634.641388,259.823788 C634.241004,259.563089 634.241004,258.91134 634.641388,258.65064 L714.578003,206.601982 C714.763822,206.480991 714.99276,206.480991 715.178579,206.601982 Z" id="Polygon-5-Copy-24"></path>
                    <path d="M715.418831,310.713336 L794.154294,361.979895 L872.889757,310.713336 L794.154294,259.446777 L715.418831,310.713336 Z M794.454582,258.078104 L874.391197,310.126762 C874.79158,310.387461 874.79158,311.03921 874.391197,311.29991 L794.454582,363.348568 C794.268763,363.469559 794.039825,363.469559 793.854006,363.348568 L713.917392,311.29991 C713.517008,311.03921 713.517008,310.387461 713.917392,310.126762 L793.854006,258.078104 C794.039825,257.957113 794.268763,257.957113 794.454582,258.078104 Z" id="Polygon-5-Copy-25"></path>
                    <path d="M794.694835,362.189457 L873.430298,413.456016 L952.165761,362.189457 L873.430298,310.922899 L794.694835,362.189457 Z M873.730586,309.554226 L953.6672,361.602883 C954.067584,361.863583 954.067584,362.515332 953.6672,362.776032 L873.730586,414.824689 C873.544767,414.94568 873.315829,414.94568 873.13001,414.824689 L793.193395,362.776032 C792.793011,362.515332 792.793011,361.863583 793.193395,361.602883 L873.13001,309.554226 C873.315829,309.433235 873.544767,309.433235 873.730586,309.554226 Z" id="Polygon-5-Copy-26"></path>
                    <path d="M873.970838,413.665579 L952.706301,464.932138 L1031.44176,413.665579 L952.706301,362.39902 L873.970838,413.665579 Z M953.006589,361.030347 L1032.9432,413.079005 C1033.34359,413.339705 1033.34359,413.991454 1032.9432,414.252153 L953.006589,466.300811 C952.82077,466.421802 952.591832,466.421802 952.406013,466.300811 L872.469399,414.252153 C872.069015,413.991454 872.069015,413.339705 872.469399,413.079005 L952.406013,361.030347 C952.591832,360.909356 952.82077,360.909356 953.006589,361.030347 Z" id="Polygon-5-Copy-27"></path>
                    <path d="M319.038814,156.284971 L397.774277,207.55153 L476.50974,156.284971 L397.774277,105.018412 L319.038814,156.284971 Z M398.074565,103.649739 L478.011179,155.698397 C478.411563,155.959096 478.411563,156.610845 478.011179,156.871545 L398.074565,208.920203 C397.888746,209.041194 397.659808,209.041194 397.473989,208.920203 L317.537374,156.871545 C317.136991,156.610845 317.136991,155.959096 317.537374,155.698397 L397.473989,103.649739 C397.659808,103.528748 397.888746,103.528748 398.074565,103.649739 Z" id="Polygon-5-Copy-21"></path>
                    <path d="M477.05028,156.494534 L398.314817,207.761093 L477.05028,259.027651 L555.785743,207.761093 L477.05028,156.494534 Z M477.350568,155.125861 L557.287183,207.174518 C557.687567,207.435218 557.687567,208.086967 557.287183,208.347667 L477.350568,260.396324 C477.164749,260.517315 476.935811,260.517315 476.749992,260.396324 L396.813378,208.347667 C396.412994,208.086967 396.412994,207.435218 396.813378,207.174518 L476.749992,155.125861 C476.935811,155.00487 477.164749,155.00487 477.350568,155.125861 Z" id="Polygon-5-Copy-22"></path>
                    <path d="M477.590821,259.237214 L556.326284,310.503773 L635.061747,259.237214 L556.326284,207.970655 L477.590821,259.237214 Z M556.626572,206.601982 L636.563186,258.65064 C636.96357,258.91134 636.96357,259.563089 636.563186,259.823788 L556.626572,311.872446 C556.440753,311.993437 556.211815,311.993437 556.025996,311.872446 L476.089381,259.823788 C475.688997,259.563089 475.688997,258.91134 476.089381,258.65064 L556.025996,206.601982 C556.211815,206.480991 556.440753,206.480991 556.626572,206.601982 Z" id="Polygon-5-Copy-23"></path>
                    <path d="M556.866824,310.713336 L635.602287,361.979895 L714.33775,310.713336 L635.602287,259.446777 L556.866824,310.713336 Z M635.902575,258.078104 L715.83919,310.126762 C716.239574,310.387461 716.239574,311.03921 715.83919,311.29991 L635.902575,363.348568 C635.716756,363.469559 635.487818,363.469559 635.301999,363.348568 L555.365385,311.29991 C554.965001,311.03921 554.965001,310.387461 555.365385,310.126762 L635.301999,258.078104 C635.487818,257.957113 635.716756,257.957113 635.902575,258.078104 Z" id="Polygon-5-Copy-24"></path>
                    <path d="M636.142828,362.189457 L714.878291,413.456016 L793.613754,362.189457 L714.878291,310.922899 L636.142828,362.189457 Z M715.178579,309.554226 L795.115193,361.602883 C795.515577,361.863583 795.515577,362.515332 795.115193,362.776032 L715.178579,414.824689 C714.99276,414.94568 714.763822,414.94568 714.578003,414.824689 L634.641388,362.776032 C634.241004,362.515332 634.241004,361.863583 634.641388,361.602883 L714.578003,309.554226 C714.763822,309.433235 714.99276,309.433235 715.178579,309.554226 Z" id="Polygon-5-Copy-25"></path>
                    <path d="M715.418831,413.665579 L794.154294,464.932138 L872.889757,413.665579 L794.154294,362.39902 L715.418831,413.665579 Z M794.454582,361.030347 L874.391197,413.079005 C874.79158,413.339705 874.79158,413.991454 874.391197,414.252153 L794.454582,466.300811 C794.268763,466.421802 794.039825,466.421802 793.854006,466.300811 L713.917392,414.252153 C713.517008,413.991454 713.517008,413.339705 713.917392,413.079005 L793.854006,361.030347 C794.039825,360.909356 794.268763,360.909356 794.454582,361.030347 Z" id="Polygon-5-Copy-26"></path>
                    <path d="M794.694835,465.141701 L873.430298,516.40826 L952.165761,465.141701 L873.430298,413.875142 L794.694835,465.141701 Z M873.730586,412.506469 L953.6672,464.555127 C954.067584,464.815826 954.067584,465.467575 953.6672,465.728275 L873.730586,517.776933 C873.544767,517.897924 873.315829,517.897924 873.13001,517.776933 L793.193395,465.728275 C792.793011,465.467575 792.793011,464.815826 793.193395,464.555127 L873.13001,412.506469 C873.315829,412.385478 873.544767,412.385478 873.730586,412.506469 Z" id="Polygon-5-Copy-27"></path>
                    <path d="M318.498273,156.494534 L239.76281,207.761093 L318.498273,259.027651 L397.233736,207.761093 L318.498273,156.494534 Z M318.798561,155.125861 L398.735176,207.174518 C399.13556,207.435218 399.13556,208.086967 398.735176,208.347667 L318.798561,260.396324 C318.612742,260.517315 318.383804,260.517315 318.197985,260.396324 L238.261371,208.347667 C237.860987,208.086967 237.860987,207.435218 238.261371,207.174518 L318.197985,155.125861 C318.383804,155.00487 318.612742,155.00487 318.798561,155.125861 Z" id="Polygon-5-Copy-21"></path>
                    <path d="M319.038814,259.237214 L397.774277,310.503773 L476.50974,259.237214 L397.774277,207.970655 L319.038814,259.237214 Z M398.074565,206.601982 L478.011179,258.65064 C478.411563,258.91134 478.411563,259.563089 478.011179,259.823788 L398.074565,311.872446 C397.888746,311.993437 397.659808,311.993437 397.473989,311.872446 L317.537374,259.823788 C317.136991,259.563089 317.136991,258.91134 317.537374,258.65064 L397.473989,206.601982 C397.659808,206.480991 397.888746,206.480991 398.074565,206.601982 Z" id="Polygon-5-Copy-22"></path>
                    <path d="M398.314817,310.713336 L477.05028,361.979895 L555.785743,310.713336 L477.05028,259.446777 L398.314817,310.713336 Z M477.350568,258.078104 L557.287183,310.126762 C557.687567,310.387461 557.687567,311.03921 557.287183,311.29991 L477.350568,363.348568 C477.164749,363.469559 476.935811,363.469559 476.749992,363.348568 L396.813378,311.29991 C396.412994,311.03921 396.412994,310.387461 396.813378,310.126762 L476.749992,258.078104 C476.935811,257.957113 477.164749,257.957113 477.350568,258.078104 Z" id="Polygon-5-Copy-23"></path>
                    <path d="M477.590821,362.189457 L556.326284,413.456016 L635.061747,362.189457 L556.326284,310.922899 L477.590821,362.189457 Z M556.626572,309.554226 L636.563186,361.602883 C636.96357,361.863583 636.96357,362.515332 636.563186,362.776032 L556.626572,414.824689 C556.440753,414.94568 556.211815,414.94568 556.025996,414.824689 L476.089381,362.776032 C475.688997,362.515332 475.688997,361.863583 476.089381,361.602883 L556.025996,309.554226 C556.211815,309.433235 556.440753,309.433235 556.626572,309.554226 Z" id="Polygon-5-Copy-24"></path>
                    <path d="M556.866824,413.665579 L635.602287,464.932138 L714.33775,413.665579 L635.602287,362.39902 L556.866824,413.665579 Z M635.902575,361.030347 L715.83919,413.079005 C716.239574,413.339705 716.239574,413.991454 715.83919,414.252153 L635.902575,466.300811 C635.716756,466.421802 635.487818,466.421802 635.301999,466.300811 L555.365385,414.252153 C554.965001,413.991454 554.965001,413.339705 555.365385,413.079005 L635.301999,361.030347 C635.487818,360.909356 635.716756,360.909356 635.902575,361.030347 Z" id="Polygon-5-Copy-25"></path>
                    <path d="M636.142828,465.141701 L714.878291,516.40826 L793.613754,465.141701 L714.878291,413.875142 L636.142828,465.141701 Z M715.178579,412.506469 L795.115193,464.555127 C795.515577,464.815826 795.515577,465.467575 795.115193,465.728275 L715.178579,517.776933 C714.99276,517.897924 714.763822,517.897924 714.578003,517.776933 L634.641388,465.728275 C634.241004,465.467575 634.241004,464.815826 634.641388,464.555127 L714.578003,412.506469 C714.763822,412.385478 714.99276,412.385478 715.178579,412.506469 Z" id="Polygon-5-Copy-26"></path>
                    <path d="M715.418831,516.617822 L794.154294,567.884381 L872.889757,516.617822 L794.154294,465.351263 L715.418831,516.617822 Z M794.454582,463.982591 L874.391197,516.031248 C874.79158,516.291948 874.79158,516.943697 874.391197,517.204396 L794.454582,569.253054 C794.268763,569.374045 794.039825,569.374045 793.854006,569.253054 L713.917392,517.204396 C713.517008,516.943697 713.517008,516.291948 713.917392,516.031248 L793.854006,463.982591 C794.039825,463.8616 794.268763,463.8616 794.454582,463.982591 Z" id="Polygon-5-Copy-27"></path>
                    <path d="M160.486807,259.237214 L239.22227,310.503773 L317.957733,259.237214 L239.22227,207.970655 L160.486807,259.237214 Z M239.522558,206.601982 L319.459172,258.65064 C319.859556,258.91134 319.859556,259.563089 319.459172,259.823788 L239.522558,311.872446 C239.336739,311.993437 239.107801,311.993437 238.921982,311.872446 L158.985367,259.823788 C158.584984,259.563089 158.584984,258.91134 158.985367,258.65064 L238.921982,206.601982 C239.107801,206.480991 239.336739,206.480991 239.522558,206.601982 Z" id="Polygon-5-Copy-21"></path>
                    <path d="M239.76281,310.713336 L318.498273,361.979895 L397.233736,310.713336 L318.498273,259.446777 L239.76281,310.713336 Z M318.798561,258.078104 L398.735176,310.126762 C399.13556,310.387461 399.13556,311.03921 398.735176,311.29991 L318.798561,363.348568 C318.612742,363.469559 318.383804,363.469559 318.197985,363.348568 L238.261371,311.29991 C237.860987,311.03921 237.860987,310.387461 238.261371,310.126762 L318.197985,258.078104 C318.383804,257.957113 318.612742,257.957113 318.798561,258.078104 Z" id="Polygon-5-Copy-22"></path>
                    <path d="M319.038814,362.189457 L397.774277,413.456016 L476.50974,362.189457 L397.774277,310.922899 L319.038814,362.189457 Z M398.074565,309.554226 L478.011179,361.602883 C478.411563,361.863583 478.411563,362.515332 478.011179,362.776032 L398.074565,414.824689 C397.888746,414.94568 397.659808,414.94568 397.473989,414.824689 L317.537374,362.776032 C317.136991,362.515332 317.136991,361.863583 317.537374,361.602883 L397.473989,309.554226 C397.659808,309.433235 397.888746,309.433235 398.074565,309.554226 Z" id="Polygon-5-Copy-23"></path>
                    <path d="M398.314817,413.665579 L477.05028,464.932138 L555.785743,413.665579 L477.05028,362.39902 L398.314817,413.665579 Z M477.350568,361.030347 L557.287183,413.079005 C557.687567,413.339705 557.687567,413.991454 557.287183,414.252153 L477.350568,466.300811 C477.164749,466.421802 476.935811,466.421802 476.749992,466.300811 L396.813378,414.252153 C396.412994,413.991454 396.412994,413.339705 396.813378,413.079005 L476.749992,361.030347 C476.935811,360.909356 477.164749,360.909356 477.350568,361.030347 Z" id="Polygon-5-Copy-24"></path>
                    <path d="M477.590821,465.141701 L556.326284,516.40826 L635.061747,465.141701 L556.326284,413.875142 L477.590821,465.141701 Z M556.626572,412.506469 L636.563186,464.555127 C636.96357,464.815826 636.96357,465.467575 636.563186,465.728275 L556.626572,517.776933 C556.440753,517.897924 556.211815,517.897924 556.025996,517.776933 L476.089381,465.728275 C475.688997,465.467575 475.688997,464.815826 476.089381,464.555127 L556.025996,412.506469 C556.211815,412.385478 556.440753,412.385478 556.626572,412.506469 Z" id="Polygon-5-Copy-25"></path>
                    <path d="M556.866824,516.617822 L635.602287,567.884381 L714.33775,516.617822 L635.602287,465.351263 L556.866824,516.617822 Z M635.902575,463.982591 L715.83919,516.031248 C716.239574,516.291948 716.239574,516.943697 715.83919,517.204396 L635.902575,569.253054 C635.716756,569.374045 635.487818,569.374045 635.301999,569.253054 L555.365385,517.204396 C554.965001,516.943697 554.965001,516.291948 555.365385,516.031248 L635.301999,463.982591 C635.487818,463.8616 635.716756,463.8616 635.902575,463.982591 Z" id="Polygon-5-Copy-26"></path>
                    <path d="M636.142828,568.093944 L714.878291,619.360503 L793.613754,568.093944 L714.878291,516.827385 L636.142828,568.093944 Z M715.178579,515.458712 L795.115193,567.50737 C795.515577,567.76807 795.515577,568.419819 795.115193,568.680518 L715.178579,620.729176 C714.99276,620.850167 714.763822,620.850167 714.578003,620.729176 L634.641388,568.680518 C634.241004,568.419819 634.241004,567.76807 634.641388,567.50737 L714.578003,515.458712 C714.763822,515.337721 714.99276,515.337721 715.178579,515.458712 Z" id="Polygon-5-Copy-27"></path>
                    <path d="M81.2108034,310.713336 L159.946266,361.979895 L238.681729,310.713336 L159.946266,259.446777 L81.2108034,310.713336 Z M160.246554,258.078104 L240.183169,310.126762 C240.583553,310.387461 240.583553,311.03921 240.183169,311.29991 L160.246554,363.348568 C160.060736,363.469559 159.831797,363.469559 159.645979,363.348568 L79.709364,311.29991 C79.3089801,311.03921 79.3089801,310.387461 79.709364,310.126762 L159.645979,258.078104 C159.831797,257.957113 160.060736,257.957113 160.246554,258.078104 Z" id="Polygon-5-Copy-21"></path>
                    <path d="M160.486807,362.189457 L239.22227,413.456016 L317.957733,362.189457 L239.22227,310.922899 L160.486807,362.189457 Z M239.522558,309.554226 L319.459172,361.602883 C319.859556,361.863583 319.859556,362.515332 319.459172,362.776032 L239.522558,414.824689 C239.336739,414.94568 239.107801,414.94568 238.921982,414.824689 L158.985367,362.776032 C158.584984,362.515332 158.584984,361.863583 158.985367,361.602883 L238.921982,309.554226 C239.107801,309.433235 239.336739,309.433235 239.522558,309.554226 Z" id="Polygon-5-Copy-22"></path>
                    <path d="M239.76281,413.665579 L318.498273,464.932138 L397.233736,413.665579 L318.498273,362.39902 L239.76281,413.665579 Z M318.798561,361.030347 L398.735176,413.079005 C399.13556,413.339705 399.13556,413.991454 398.735176,414.252153 L318.798561,466.300811 C318.612742,466.421802 318.383804,466.421802 318.197985,466.300811 L238.261371,414.252153 C237.860987,413.991454 237.860987,413.339705 238.261371,413.079005 L318.197985,361.030347 C318.383804,360.909356 318.612742,360.909356 318.798561,361.030347 Z" id="Polygon-5-Copy-23"></path>
                    <path d="M319.038814,465.141701 L397.774277,516.40826 L476.50974,465.141701 L397.774277,413.875142 L319.038814,465.141701 Z M398.074565,412.506469 L478.011179,464.555127 C478.411563,464.815826 478.411563,465.467575 478.011179,465.728275 L398.074565,517.776933 C397.888746,517.897924 397.659808,517.897924 397.473989,517.776933 L317.537374,465.728275 C317.136991,465.467575 317.136991,464.815826 317.537374,464.555127 L397.473989,412.506469 C397.659808,412.385478 397.888746,412.385478 398.074565,412.506469 Z" id="Polygon-5-Copy-24"></path>
                    <path d="M398.314817,516.617822 L477.05028,567.884381 L555.785743,516.617822 L477.05028,465.351263 L398.314817,516.617822 Z M477.350568,463.982591 L557.287183,516.031248 C557.687567,516.291948 557.687567,516.943697 557.287183,517.204396 L477.350568,569.253054 C477.164749,569.374045 476.935811,569.374045 476.749992,569.253054 L396.813378,517.204396 C396.412994,516.943697 396.412994,516.291948 396.813378,516.031248 L476.749992,463.982591 C476.935811,463.8616 477.164749,463.8616 477.350568,463.982591 Z" id="Polygon-5-Copy-25"></path>
                    <path d="M477.590821,568.093944 L556.326284,619.360503 L635.061747,568.093944 L556.326284,516.827385 L477.590821,568.093944 Z M556.626572,515.458712 L636.563186,567.50737 C636.96357,567.76807 636.96357,568.419819 636.563186,568.680518 L556.626572,620.729176 C556.440753,620.850167 556.211815,620.850167 556.025996,620.729176 L476.089381,568.680518 C475.688997,568.419819 475.688997,567.76807 476.089381,567.50737 L556.025996,515.458712 C556.211815,515.337721 556.440753,515.337721 556.626572,515.458712 Z" id="Polygon-5-Copy-26"></path>
                    <path d="M556.866824,619.570066 L635.602287,670.836625 L714.33775,619.570066 L635.602287,568.303507 L556.866824,619.570066 Z M635.902575,566.934834 L715.83919,618.983492 C716.239574,619.244191 716.239574,619.89594 715.83919,620.15664 L635.902575,672.205297 C635.716756,672.326289 635.487818,672.326289 635.301999,672.205297 L555.365385,620.15664 C554.965001,619.89594 554.965001,619.244191 555.365385,618.983492 L635.301999,566.934834 C635.487818,566.813843 635.716756,566.813843 635.902575,566.934834 Z" id="Polygon-5-Copy-27"></path>
                    <path d="M80.670263,310.922899 L1.93479997,362.189457 L80.670263,413.456016 L159.405726,362.189457 L80.670263,310.922899 Z M80.9705509,309.554226 L160.907165,361.602883 C161.307549,361.863583 161.307549,362.515332 160.907165,362.776032 L80.9705509,414.824689 C80.7847321,414.94568 80.5557939,414.94568 80.3699751,414.824689 L0.433360513,362.776032 C0.0329766572,362.515332 0.0329766572,361.863583 0.433360513,361.602883 L80.3699751,309.554226 C80.5557939,309.433235 80.7847321,309.433235 80.9705509,309.554226 Z" id="Polygon-5-Copy-21"></path>
                    <path d="M81.2108034,413.665579 L159.946266,464.932138 L238.681729,413.665579 L159.946266,362.39902 L81.2108034,413.665579 Z M160.246554,361.030347 L240.183169,413.079005 C240.583553,413.339705 240.583553,413.991454 240.183169,414.252153 L160.246554,466.300811 C160.060736,466.421802 159.831797,466.421802 159.645979,466.300811 L79.709364,414.252153 C79.3089801,413.991454 79.3089801,413.339705 79.709364,413.079005 L159.645979,361.030347 C159.831797,360.909356 160.060736,360.909356 160.246554,361.030347 Z" id="Polygon-5-Copy-22"></path>
                    <path d="M160.486807,465.141701 L239.22227,516.40826 L317.957733,465.141701 L239.22227,413.875142 L160.486807,465.141701 Z M239.522558,412.506469 L319.459172,464.555127 C319.859556,464.815826 319.859556,465.467575 319.459172,465.728275 L239.522558,517.776933 C239.336739,517.897924 239.107801,517.897924 238.921982,517.776933 L158.985367,465.728275 C158.584984,465.467575 158.584984,464.815826 158.985367,464.555127 L238.921982,412.506469 C239.107801,412.385478 239.336739,412.385478 239.522558,412.506469 Z" id="Polygon-5-Copy-23"></path>
                    <path d="M239.76281,516.617822 L318.498273,567.884381 L397.233736,516.617822 L318.498273,465.351263 L239.76281,516.617822 Z M318.798561,463.982591 L398.735176,516.031248 C399.13556,516.291948 399.13556,516.943697 398.735176,517.204396 L318.798561,569.253054 C318.612742,569.374045 318.383804,569.374045 318.197985,569.253054 L238.261371,517.204396 C237.860987,516.943697 237.860987,516.291948 238.261371,516.031248 L318.197985,463.982591 C318.383804,463.8616 318.612742,463.8616 318.798561,463.982591 Z" id="Polygon-5-Copy-24"></path>
                    <path d="M319.038814,568.093944 L397.774277,619.360503 L476.50974,568.093944 L397.774277,516.827385 L319.038814,568.093944 Z M398.074565,515.458712 L478.011179,567.50737 C478.411563,567.76807 478.411563,568.419819 478.011179,568.680518 L398.074565,620.729176 C397.888746,620.850167 397.659808,620.850167 397.473989,620.729176 L317.537374,568.680518 C317.136991,568.419819 317.136991,567.76807 317.537374,567.50737 L397.473989,515.458712 C397.659808,515.337721 397.888746,515.337721 398.074565,515.458712 Z" id="Polygon-5-Copy-25"></path>
                    <path d="M398.314817,619.570066 L477.05028,670.836625 L555.785743,619.570066 L477.05028,568.303507 L398.314817,619.570066 Z M477.350568,566.934834 L557.287183,618.983492 C557.687567,619.244191 557.687567,619.89594 557.287183,620.15664 L477.350568,672.205297 C477.164749,672.326289 476.935811,672.326289 476.749992,672.205297 L396.813378,620.15664 C396.412994,619.89594 396.412994,619.244191 396.813378,618.983492 L476.749992,566.934834 C476.935811,566.813843 477.164749,566.813843 477.350568,566.934834 Z" id="Polygon-5-Copy-26"></path>
                    <path d="M477.590821,671.046187 L556.326284,722.312746 L635.061747,671.046187 L556.326284,619.779628 L477.590821,671.046187 Z M556.626572,618.410956 L636.563186,670.459613 C636.96357,670.720313 636.96357,671.372062 636.563186,671.632761 L556.626572,723.681419 C556.440753,723.80241 556.211815,723.80241 556.025996,723.681419 L476.089381,671.632761 C475.688997,671.372062 475.688997,670.720313 476.089381,670.459613 L556.025996,618.410956 C556.211815,618.289965 556.440753,618.289965 556.626572,618.410956 Z" id="Polygon-5-Copy-27"></path>
                </g>
                <path d="M556.626572,743.993877 L556.626572,722.758256 C927.021854,482.448555 1112.2195,362.293704 1112.2195,362.293704 L1112.2195,381.695732 C1112.48623,381.869532 927.288584,502.63558 556.626572,743.993877 Z" id="Base" fill="url(#linearGradient-1)"></path>
                <path d="M556.626572,743.993877 L0.433360513,382.86888 C0.166437942,382.69508 0.166437942,375.836688 0.433360513,362.293704 C0.488366549,362.257894 185.886104,482.412744 556.626572,722.758256 L556.626572,743.993877 Z" id="Base" fill="url(#linearGradient-2)"></path>
            </g>
        </g>
    </g>
</svg>