<svg width="1440" height="2240" viewBox="0 0 1440 2240" fill="none" xmlns="http://www.w3.org/2000/svg">
<g clip-path="url(#clip0_1257_3694)">
<g filter="url(#filter0_f_1257_3694)">
<path d="M1179.1 -985.798C1445.81 -1007.56 1625.53 -955.021 1475.53 -582.576C1308.47 -365.017 1445.85 -202.584 1316.23 29C947.816 -274.659 1283.03 -246.653 1259.53 -423.084C1230.23 -643.035 538.532 -712.012 1179.1 -985.798Z" fill="url(#paint0_linear_1257_3694)"/>
</g>
<g opacity="0.1" filter="url(#filter1_f_1257_3694)">
<path d="M-338.65 -1434.26C-575.966 -1543.98 -574.827 -1229.31 -566.952 -1085.17C-567.469 -931.045 -598.542 -853.335 -482.674 -732.826C-366.807 -612.317 -468.29 -529.93 -321.961 -356.996C-175.632 -184.063 -7.93717 -213.099 87.4819 -488.397C165.474 -713.417 120.368 -564.513 537.851 -851.19C955.335 -1137.87 615.347 -1031.8 691.285 -1288.31C767.223 -1544.83 307.943 -1605.91 66.3104 -1523.36C-175.323 -1440.81 -101.334 -1324.54 -338.65 -1434.26Z" fill="#A690FC"/>
</g>
<g opacity="0.1" filter="url(#filter2_f_1257_3694)">
<path d="M2226.72 904.643C2582.46 977.246 2480.55 552.308 2423.94 360.017C2375.49 151.542 2392.7 36.6045 2197.66 -89.3153C2002.63 -215.235 2113.51 -358.952 1860.59 -546.01C1607.66 -733.069 1390.28 -640.343 1349.12 -237.832C1315.47 91.1665 1328.94 -124.469 856.127 396.135C383.309 916.739 808.99 664.955 788.167 1035.86C767.343 1406.77 1407.56 1342.85 1707.81 1154.21C2008.06 965.577 1870.98 832.04 2226.72 904.643Z" fill="#75DDFF"/>
<path d="M1965.06 686.884C2160.3 726.742 2104.33 493.664 2073.24 388.192C2046.63 273.843 2056.06 210.805 1949.01 141.72C1841.97 72.636 1902.8 -6.17722 1763.98 -108.801C1625.15 -211.424 1511.22 -93.3786 1543.59 126.18C1575.97 345.739 1472.26 122.348 1212.83 407.836C953.398 693.325 1186.99 555.273 1175.6 758.704C1164.21 962.135 1515.55 927.142 1680.31 823.712C1845.07 720.282 1769.83 647.026 1965.06 686.884Z" fill="#5296E7"/>
</g>
<g opacity="0.1" filter="url(#filter3_f_1257_3694)">
<path d="M504.503 2150.2C525.958 2312.31 793.976 2214.96 913.171 2166.39C1044.97 2119.28 1126.36 2112.21 1173.02 2012.48C1219.67 1912.75 1339.21 1942.32 1415.83 1810C1492.46 1677.67 1386.34 1595.88 1105.1 1628.89C875.229 1655.87 1024.19 1634.5 577.042 1496.78C129.891 1359.06 385.308 1510.38 129.551 1548.15C-126.207 1585.93 44.4116 1853.17 232.058 1958.51C419.705 2063.85 483.048 1988.08 504.503 2150.2Z" fill="#7657F1"/>
<path d="M602.775 2011.13C614.542 2100.11 761.535 2046.68 826.906 2020.02C899.189 1994.17 943.828 1990.28 969.417 1935.55C995.005 1880.81 1060.56 1897.04 1102.59 1824.42C1144.61 1751.8 1041.89 1717.68 899.376 1759.26C756.866 1800.84 887.795 1728.1 642.559 1652.52C397.322 1576.93 537.404 1659.98 397.135 1680.71C256.867 1701.45 350.441 1848.11 453.355 1905.93C556.268 1963.74 591.009 1922.16 602.775 2011.13Z" fill="#423A96"/>
</g>
<g filter="url(#filter4_f_1257_3694)">
<path d="M287.772 1890.51C-11.5233 1918.94 -213.198 1850.31 -44.878 1363.83C142.602 1079.66 -11.5649 867.491 133.886 565C547.319 961.634 171.148 925.054 197.522 1155.5C230.402 1442.8 1006.61 1532.9 287.772 1890.51Z" fill="url(#paint1_linear_1257_3694)"/>
</g>
<g filter="url(#filter5_f_1257_3694)">
<path d="M1294.19 1442.27C1473.42 1430.52 1594.2 1458.88 1493.4 1659.91C1381.12 1777.33 1473.45 1865 1386.34 1990C1138.76 1826.1 1364.03 1841.22 1348.23 1745.99C1328.54 1627.27 863.708 1590.04 1294.19 1442.27Z" fill="url(#paint2_linear_1257_3694)"/>
</g>
</g>
<defs>
<filter id="filter0_f_1257_3694" x="544" y="-1354" width="1350" height="1747" filterUnits="userSpaceOnUse" color-interpolation-filters="sRGB">
<feFlood flood-opacity="0" result="BackgroundImageFix"/>
<feBlend mode="normal" in="SourceGraphic" in2="BackgroundImageFix" result="shape"/>
<feGaussianBlur stdDeviation="182" result="effect1_foregroundBlur_1257_3694"/>
</filter>
<filter id="filter1_f_1257_3694" x="-918.035" y="-1904.72" width="2015.3" height="2002.45" filterUnits="userSpaceOnUse" color-interpolation-filters="sRGB">
<feFlood flood-opacity="0" result="BackgroundImageFix"/>
<feBlend mode="normal" in="SourceGraphic" in2="BackgroundImageFix" result="shape"/>
<feGaussianBlur stdDeviation="173.46" result="effect1_foregroundBlur_1257_3694"/>
</filter>
<filter id="filter2_f_1257_3694" x="150.311" y="-1120.47" width="2813.58" height="2907.6" filterUnits="userSpaceOnUse" color-interpolation-filters="sRGB">
<feFlood flood-opacity="0" result="BackgroundImageFix"/>
<feBlend mode="normal" in="SourceGraphic" in2="BackgroundImageFix" result="shape"/>
<feGaussianBlur stdDeviation="240.878" result="effect1_foregroundBlur_1257_3694"/>
</filter>
<filter id="filter3_f_1257_3694" x="-346.921" y="1093.08" width="2133.84" height="1493.84" filterUnits="userSpaceOnUse" color-interpolation-filters="sRGB">
<feFlood flood-opacity="0" result="BackgroundImageFix"/>
<feBlend mode="normal" in="SourceGraphic" in2="BackgroundImageFix" result="shape"/>
<feGaussianBlur stdDeviation="173.46" result="effect1_foregroundBlur_1257_3694"/>
</filter>
<filter id="filter4_f_1257_3694" x="-470" y="201" width="1426" height="2059" filterUnits="userSpaceOnUse" color-interpolation-filters="sRGB">
<feFlood flood-opacity="0" result="BackgroundImageFix"/>
<feBlend mode="normal" in="SourceGraphic" in2="BackgroundImageFix" result="shape"/>
<feGaussianBlur stdDeviation="182" result="effect1_foregroundBlur_1257_3694"/>
</filter>
<filter id="filter5_f_1257_3694" x="748" y="1076" width="1146" height="1278" filterUnits="userSpaceOnUse" color-interpolation-filters="sRGB">
<feFlood flood-opacity="0" result="BackgroundImageFix"/>
<feBlend mode="normal" in="SourceGraphic" in2="BackgroundImageFix" result="shape"/>
<feGaussianBlur stdDeviation="182" result="effect1_foregroundBlur_1257_3694"/>
</filter>
<linearGradient id="paint0_linear_1257_3694" x1="1068.35" y1="-938.416" x2="1587.1" y2="-250.253" gradientUnits="userSpaceOnUse">
<stop offset="0.0238694" stop-color="#6DC1DC"/>
<stop offset="0.233824" stop-color="#A690FC"/>
<stop offset="0.60602" stop-color="#FC96BB"/>
<stop offset="1" stop-color="#FFC397"/>
</linearGradient>
<linearGradient id="paint1_linear_1257_3694" x1="412.055" y1="1828.62" x2="-286.774" y2="1032.15" gradientUnits="userSpaceOnUse">
<stop offset="0.0238694" stop-color="#6DC1DC"/>
<stop offset="0.233824" stop-color="#A690FC"/>
<stop offset="0.60602" stop-color="#FC96BB"/>
<stop offset="1" stop-color="#FFC397"/>
</linearGradient>
<linearGradient id="paint2_linear_1257_3694" x1="1219.76" y1="1467.84" x2="1477.83" y2="1894.09" gradientUnits="userSpaceOnUse">
<stop offset="0.0238694" stop-color="#6DC1DC"/>
<stop offset="0.233824" stop-color="#A690FC"/>
<stop offset="0.60602" stop-color="#FC96BB"/>
<stop offset="1" stop-color="#FFC397"/>
</linearGradient>
<clipPath id="clip0_1257_3694">
<rect width="1440" height="2240" fill="white"/>
</clipPath>
</defs>
</svg>
