<?xml version="1.0" encoding="UTF-8"?>
<svg width="182px" height="172px" viewBox="0 0 182 172" version="1.1" xmlns="http://www.w3.org/2000/svg" xmlns:xlink="http://www.w3.org/1999/xlink">
    <!-- Generator: Sketch 62 (91390) - https://sketch.com -->
    <title>wallet</title>
    <desc>Created with Sketch.</desc>
    <g id="Page-1" stroke="none" stroke-width="1" fill="none" fill-rule="evenodd">
        <g id="wallet" fill-rule="nonzero">
            <rect id="Rectangle" fill="#00EBFF" transform="translate(60.151490, 59.776463) rotate(-44.999950) translate(-60.151490, -59.776463) " x="6.85592456" y="33.1287383" width="106.59113" height="53.29545"></rect>
            <path d="M78.99463,0.42041 L0.79443,78.61963 L41.30859,119.1333 L119.5083,40.93408 L78.99463,0.42041 Z M6.45163,78.61963 L78.99463,6.07663 L113.85205,40.93405 L41.30859,113.47705 L6.45163,78.61963 Z" id="Shape" fill="#00EBFF"></path>
            <path d="M71.10938,48.8186 C66.6773268,44.3865449 60.0118763,43.0607032 54.2211182,45.459313 C48.4303601,47.8579228 44.6546853,53.5086189 44.6546853,59.77649 C44.6546853,66.0443611 48.4303601,71.6950572 54.2211182,74.093667 C60.0118763,76.4922768 66.6773268,75.1664351 71.10938,70.73438 C74.0156487,67.8281964 75.6483805,63.8865144 75.6483805,59.77649 C75.6483805,55.6664656 74.0156487,51.7247836 71.10938,48.8186 L71.10938,48.8186 Z" id="Path" fill="#FFFFFF"></path>
            <path d="M12.78723,69.45508 L3.62305,78.61926 L12.78723,87.78345 C17.8483894,82.7221771 17.8483894,74.5163529 12.78723,69.45508 L12.78723,69.45508 Z" id="Path" fill="#FCB856"></path>
            <path d="M79.01477,3.22766 L69.85059,12.39185 C72.2810759,14.8223564 75.5775344,16.1878024 79.014775,16.1878024 C82.4520156,16.1878024 85.7484741,14.8223564 88.17896,12.39185 L79.01477,3.22766 Z" id="Path" fill="#FFFFFF"></path>
            <path d="M107.36108,31.57422 C102.299929,36.6354494 102.299929,44.8412406 107.36108,49.90247 L116.52539,40.73828 L107.36108,31.57422 Z" id="Path" fill="#FFFFFF"></path>
            <path d="M31.96948,106.9657 L41.13367,116.12988 L50.29773,106.9657 C45.2365052,101.904538 37.0307048,101.904538 31.96948,106.9657 L31.96948,106.9657 Z" id="Path" fill="#FCB856"></path>
            <path d="M14.20117,68.0415 L12.78711,66.62744 L0.79443,78.61963 L12.78711,90.61182 L14.20117,89.19775 C17.0068023,86.3923307 18.5830081,82.5872377 18.5830081,78.619625 C18.5830081,74.6520123 17.0068023,70.8469193 14.20117,68.0415 L14.20117,68.0415 Z M12.65917,84.82764 L6.45165,78.61964 L12.65917,72.41164 C15.2242685,76.1528519 15.2242685,81.0864281 12.65917,84.82764 L12.65917,84.82764 Z" id="Shape" fill="#616363"></path>
            <path d="M79.01514,0.3999 L67.023,12.39209 L68.43706,13.80615 C71.2424793,16.6117823 75.0475723,18.1879881 79.015185,18.1879881 C82.9827977,18.1879881 86.7878907,16.6117823 89.59331,13.80615 L91.00737,12.39209 L79.01514,0.3999 Z M79.01514,14.1880335 C76.7981917,14.1937762 74.6323163,13.5225816 72.80714,12.26416 L79.01514,6.05616 L85.22314,12.26416 C83.3978377,13.5223233 81.2320462,14.1934954 79.01514,14.1880335 L79.01514,14.1880335 Z" id="Shape" fill="#00EBFF"></path>
            <path d="M107.36084,28.74463 L105.94678,30.15963 C100.11475,36.0063287 100.11475,45.4701513 105.94678,51.31685 L107.36084,52.73092 L119.353,40.73877 L107.36084,28.74463 Z M107.49072,34.53174 L113.69678,40.73874 L107.49072,46.94479 C104.931164,43.2029398 104.931164,38.2735902 107.49072,34.53174 Z" id="Shape" fill="#00EBFF"></path>
            <path d="M51.71191,105.55127 C45.8691755,99.7101227 36.3979145,99.7101227 30.55518,105.55127 L29.14062,106.96533 L41.13379,118.9585 L53.12646,106.96533 L51.71191,105.55127 Z M41.13379,113.30227 L34.92579,107.09327 C38.6672328,104.529471 43.5998772,104.529471 47.34132,107.09327 L41.13379,113.30227 Z" id="Shape" fill="#616363"></path>
            <path d="M72.52393,47.40479 C67.5198535,42.40053 59.9940014,40.9034374 53.4557157,43.6116138 C46.91743,46.3197902 42.6543363,52.6998974 42.6543363,59.77686 C42.6543363,66.8538226 46.91743,73.2339298 53.4557157,75.9421062 C59.9940014,78.6502826 67.5198535,77.15319 72.52393,72.14893 C75.8333879,68.8826825 77.6962978,64.4266863 77.6962978,59.77686 C77.6962978,55.1270337 75.8333879,50.6710375 72.52393,47.40479 Z M69.6958,69.32079 C64.4248443,74.5916625 55.879011,74.5916176 50.6081107,69.3206896 C45.3372105,64.0497617 45.3372105,55.5039283 50.6081107,50.2330004 C55.879011,44.9620724 64.4248443,44.9620275 69.6958,50.2329 C72.2481193,52.752858 73.6847493,56.1901353 73.6847493,59.77685 C73.6847493,63.3635647 72.2481193,66.800842 69.6958,69.3208 L69.6958,69.32079 Z" id="Shape" fill="#FFFFFF"></path>
            <polygon id="Path" fill="#00EBFF" points="128.764 23.453 139.259 12.958 136.431 10.13 123.108 23.453 136.7 37.045 139.528 34.217"></polygon>
            <path d="M121.88818,59.76636 L3.62305,59.76636 L3.62305,169.60046 L121.88818,169.60046 C127.540722,169.60046 132.96176,167.35504 136.958724,163.358103 C140.955688,159.361165 143.20118,153.940142 143.20118,148.2876 L143.20118,81.0791 C143.20118,75.4265706 140.955677,70.0055631 136.958711,66.0086456 C132.961744,62.0117281 127.540709,59.76636 121.88818,59.76636 Z" id="Path" fill="#00EBFF"></path>
            <path d="M145.20068,98.34814 L145.20068,81.07959 C145.186512,68.2101663 134.757603,57.7808193 121.88818,57.76611 L1.62305,57.76611 L1.62305,171.60011 L121.88818,171.60011 C134.757264,171.585506 145.186076,161.156694 145.20068,148.28761 L145.20068,128.62161 L141.20068,128.62161 L141.20068,148.28761 C141.188958,158.94875 132.54932,167.588388 121.88818,167.60011 L5.62305,167.60011 L5.62305,61.76611 L121.88818,61.76611 C132.54951,61.7782954 141.189036,70.418259 141.20068,81.07959 L141.20068,98.34814 L145.20068,98.34814 Z" id="Path" fill="#00EBFF"></path>
            <path d="M119.20166,98.34851 C110.846787,98.3553009 104.077423,105.130169 104.077423,113.485045 C104.077423,121.839921 110.846787,128.614789 119.20166,128.62158 L152.571,128.62158 L152.571,98.34851 L119.20166,98.34851 Z" id="Path" fill="#FFFFFF"></path>
            <path d="M119.20166,96.34814 C109.737311,96.34814 102.06494,104.020511 102.06494,113.48486 C102.06494,122.949209 109.737311,130.62158 119.20166,130.62158 L154.5708,130.62158 L154.5708,96.34814 L119.20166,96.34814 Z M150.5708,126.62158 L119.20166,126.62158 C111.94645,126.62158 106.06494,120.74007 106.06494,113.48486 C106.06494,106.22965 111.94645,100.34814 119.20166,100.34814 L150.5708,100.34814 L150.5708,126.62158 Z" id="Shape" fill="#00EBFF"></path>
            <circle id="Oval" fill="#00EBFF" cx="120.5769" cy="113.48499" r="5.03186"></circle>
            <rect id="Rectangle" fill="#FFFFFF" x="21.32031" y="71.86182" width="94.2251" height="4"></rect>
            <rect id="Rectangle" fill="#FFFFFF" x="21.32031" y="152.46631" width="94.2251" height="4"></rect>
            <path d="M154.17725,21.58618 L125.936,21.58618 L125.936,25.58618 L154.17721,25.58618 C166.895671,25.58618 177.20602,35.8965294 177.20602,48.61499 C177.20602,61.3334506 166.895671,71.6438 154.17721,71.6438 L151.88228,71.6438 L151.88228,75.6438 L154.17721,75.6438 C169.10481,75.6438 181.20602,63.5425896 181.20602,48.61499 C181.20602,33.6873904 169.10481,21.58618 154.17721,21.58618 L154.17725,21.58618 Z" id="Path" fill="#00EBFF"></path>
        </g>
    </g>
</svg>