<?xml version="1.0" encoding="UTF-8"?>
<svg width="59px" height="137px" viewBox="0 0 59 137" version="1.1" xmlns="http://www.w3.org/2000/svg" xmlns:xlink="http://www.w3.org/1999/xlink">
    <!-- Generator: Sketch 62 (91390) - https://sketch.com -->
    <title>Women sitting holding laptop</title>
    <desc>Created with Sketch.</desc>
    <defs>
        <linearGradient x1="57.4833708%" y1="-20.7491319%" x2="46.9179981%" y2="55.8715135%" id="linearGradient-1">
            <stop stop-color="#8EF7FF" offset="0%"></stop>
            <stop stop-color="#BBFAFF" offset="100%"></stop>
        </linearGradient>
        <linearGradient x1="100%" y1="57.6468728%" x2="16.6126369%" y2="57.6468728%" id="linearGradient-2">
            <stop stop-color="#00EBFF" offset="0%"></stop>
            <stop stop-color="#157EFF" offset="100%"></stop>
        </linearGradient>
        <linearGradient x1="53.017914%" y1="83.6417814%" x2="42.9361511%" y2="6.12376774%" id="linearGradient-3">
            <stop stop-color="#001C96" offset="0%"></stop>
            <stop stop-color="#157EFF" offset="100%"></stop>
        </linearGradient>
        <linearGradient x1="103.04684%" y1="83.6417814%" x2="-74.1635332%" y2="6.12376774%" id="linearGradient-4">
            <stop stop-color="#001C96" offset="0%"></stop>
            <stop stop-color="#157EFF" offset="100%"></stop>
        </linearGradient>
        <linearGradient x1="82.4316603%" y1="83.6417814%" x2="-25.9108277%" y2="6.12376774%" id="linearGradient-5">
            <stop stop-color="#001C96" offset="0%"></stop>
            <stop stop-color="#157EFF" offset="100%"></stop>
        </linearGradient>
        <linearGradient x1="68.9715312%" y1="104.270031%" x2="-51.4397239%" y2="6.12376774%" id="linearGradient-6">
            <stop stop-color="#001C96" offset="0%"></stop>
            <stop stop-color="#157EFF" offset="100%"></stop>
        </linearGradient>
    </defs>
    <g id="Partial-Assets---Single-Elements" stroke="none" stroke-width="1" fill="none" fill-rule="evenodd">
        <g id="Partial-Assets" transform="translate(-491.000000, -276.000000)">
            <g id="Women-sitting-holding-laptop" transform="translate(491.000000, 276.000000)">
                <path d="M18.1183824,105.91393 C18.9292371,108.155086 19.3346644,110.445023 19.3346644,112.783741 C19.3346644,115.122458 19.3346644,116.465727 19.3346644,116.813547 L18.7265234,116.813547 L18.1183824,115.397656 C17.7050033,117.082607 17.4983138,118.523985 17.4983138,119.721789 C17.4983138,121.518496 16.8932164,124.648388 12.9567927,125.777023 C9.02036902,126.905658 7.54069357,127.002013 8.2805313,123.888072 C9.02036902,120.77413 9.31271762,118.522719 12.2388359,116.205627 C14.1895814,114.660898 16.1494302,111.123016 18.1183824,105.591979 L18.1183824,105.91393 Z" id="Shoes" fill="#000000" transform="translate(13.715660, 116.044651) rotate(-2.000000) translate(-13.715660, -116.044651) "></path>
                <path d="M28.3811489,78.1568569 C24.8485722,80.0381197 21.6603457,81.3012068 18.8164695,81.9461181 C19.2512578,86.5227671 19.163056,91.1697068 18.5518641,95.8869373 C17.2393753,106.016836 17.6431441,107.656267 16.7769596,111.125558 C15.910775,114.594849 15.5505092,119.96937 12.1186395,120.443139 C8.68676979,120.916909 8.71254909,118.465879 10.4155943,115.677284 C12.1186395,112.888689 13.4849426,107.65332 12.801791,102.02538 C12.1186395,96.3974404 7.7926835,82.7986294 9.13385174,75.835818 C9.52715489,73.7939446 19.2534166,66.6802198 21.7835499,66.7338124 C23.9313648,66.7797685 26.1305644,70.58745 28.3811489,78.1568569 Z" id="Foot" fill="url(#linearGradient-1)" transform="translate(18.629354, 93.617982) rotate(-2.000000) translate(-18.629354, -93.617982) "></path>
                <path d="M33.3992649,114.883623 C34.2101196,117.124779 34.6155469,119.414716 34.6155469,121.753434 C34.6155469,124.092151 34.6155469,125.43542 34.6155469,125.78324 L34.0074059,125.78324 L33.3992649,124.367349 C32.9858859,126.0523 32.7791963,127.493678 32.7791963,128.691482 C32.7791963,130.488189 32.1740989,133.618081 28.2376752,134.746716 C24.3012516,135.875351 22.8215761,135.971706 23.5614138,132.857765 C24.3012516,129.743823 24.5936002,127.492412 27.5197184,125.17532 C29.4704639,123.630591 31.4303127,120.092709 33.3992649,114.561672 L33.3992649,114.883623 Z" id="Shoes" fill="#000000" transform="translate(28.996543, 125.014344) rotate(-10.000000) translate(-28.996543, -125.014344) "></path>
                <path d="M40.0736639,82.958279 C36.5410872,84.8395417 33.3528608,86.1026288 30.5089845,86.7475401 C30.9437728,91.3241891 30.855571,95.9711289 30.2443791,100.688359 C28.9318903,110.818258 29.4693888,117.505386 28.6032042,120.974677 C27.7370196,124.443968 27.3767539,129.818489 23.9448842,130.292259 C20.5130144,130.766028 20.5387937,128.314998 22.2418389,125.526403 C23.9448842,122.737808 25.3111872,117.502439 24.6280357,111.874499 C23.9448842,106.24656 19.4851985,87.6000514 20.8263668,80.63724 C21.2196699,78.5953666 30.9459316,71.4816418 33.4760649,71.5352344 C35.6238798,71.5811905 37.8230794,75.388872 40.0736639,82.958279 Z" id="Foot" fill="#BBFAFF" transform="translate(30.325016, 100.943252) rotate(-10.000000) translate(-30.325016, -100.943252) "></path>
                <path d="M49.4038244,48.045044 C48.0693109,52.154814 48.6627068,55.872777 51.184012,59.1989329 C54.9659698,64.1881667 56.4637856,73.2506594 47.2883362,77.5604737 C41.1713699,80.4336833 36.8140773,82.4539839 34.2164585,83.6213755 C26.7780088,75.9757992 20.5678942,71.0830878 15.5861145,68.9432412 C22.1475424,65.6251148 25.9451434,63.7772948 26.9789175,63.3997812 C28.5295788,62.8335107 30.7335956,57.492134 30.7335956,52.768589 C30.7335956,49.619559 36.9570052,48.045044 49.4038244,48.045044 Z" id="Skirt" fill="#13027B"></path>
                <polygon id="Laptop" fill="url(#linearGradient-2)" points="21.1533755 51.6517767 43.7011622 66.577517 23.3241457 78.5049515 0.776359006 63.5792111"></polygon>
                <path d="M26.0585861,46.5225563 C25.6073098,48.1688815 25.0918686,49.5021711 24.5122624,50.5224248 L14.9845382,57.7920639 C12.1467947,58.0701544 10.1731926,59.1775874 9.0637319,61.1143627 C7.39954086,64.0195257 7.20068078,67.2460378 8.13220634,67.5804085 C9.0637319,67.9147793 9.87585362,66.3347396 10.6148844,65.4104197 C11.3539151,64.4860998 13.1789941,63.1808401 13.5055987,64.046452 C13.8322033,64.9120639 12.8605107,66.6499089 14.1539791,66.0301643 C15.4474476,65.4104197 15.808293,63.8952678 16.1182162,62.1993571 C16.4281394,60.5034464 17.4397797,61.0033472 20.303716,59.3877738 C23.1676522,57.7722003 26.6705308,56.0992431 29.2682228,54.3421966 C31.0000175,53.1708323 31.7083925,50.1546538 31.3933478,45.2936611 L26.0585861,46.5225563 Z" id="Hand" fill="#BBFAFF"></path>
                <polygon id="Laptop" fill="#00EBFF" points="0.776359006 40.9066729 23.3241457 55.8324133 23.3241457 78.5049515 0.776359006 63.5792111"></polygon>
                <path d="M29.7737137,47.8582736 C28.5258265,47.3803699 27.2407719,47.260894 25.9185499,47.4998458 C26.1177027,34.2406668 27.1295624,27.1706201 28.9541292,26.2897059 C30.778696,25.4087917 31.0518908,32.5983142 29.7737137,47.8582736 Z" id="Arm" fill="url(#linearGradient-3)"></path>
                <path d="M57.7265565,47.8886575 C57.7265565,43.4551843 57.7265565,40.3097977 57.7265565,38.4524979 C57.7265565,35.666548 57.5417648,26.3052184 50.0869683,24.0746088 C42.6321717,21.8439992 28.6862545,21.2369505 27.6105329,28.9936369 C26.5348113,36.7503233 28.0700036,45.0076987 29.0136117,47.8886575 C29.6426837,49.8092968 30.1923205,51.5938685 30.6625219,53.2423728 C34.2769687,57.0752434 40.2663925,57.5046056 48.6307933,54.5304595 C49.5277157,49.9148156 50.2767769,47.1346112 50.8779769,46.1898461 L51.2371082,49.0758497 C53.559407,47.8684786 55.7225565,47.4727479 57.7265565,47.8886575 Z" id="Cloth" fill="url(#linearGradient-4)"></path>
                <path d="M43.8157372,22.9040643 C45.276532,28.099207 45.4740751,32.1640369 44.4083665,35.0985539 C43.2491542,34.2091057 42.2245639,33.7643816 41.3345956,33.7643816 C40.4446272,33.7643816 38.833846,34.0554938 36.5022519,34.6377182 L43.8157372,22.9040643 Z" id="Neck" fill="url(#linearGradient-5)"></path>
                <path d="M36.4493542,34.7423332 C34.1762914,34.0313632 32.5597302,34.1888007 31.5996706,35.2146457 C32.6798657,27.9967991 35.3232853,23.778063 39.5299294,22.5584375 C43.7365736,21.3388119 42.7097152,25.4001105 36.4493542,34.7423332 Z" id="Neck" fill="url(#linearGradient-6)"></path>
                <path d="M31.3845681,10.3822665 C28.8140199,6.1202719 29.5046161,3.73472615 33.4563564,3.22562923 C37.4080968,2.71653232 36.7175007,5.10207807 31.3845681,10.3822665 Z" id="Hair" fill="#000000"></path>
                <path d="M43.7099419,23.1510351 C43.7124402,22.6167041 43.8750001,21.3437004 43.8649035,20.4747043 C43.8497585,20.4747043 47.7183113,15.8824995 46.3873096,9.58176308 C45.056308,3.28102663 35.3951324,1.93030128 33.2954685,4.53375817 C31.1958047,7.13721506 30.3459303,11.2136688 31.2787728,16.7962255 C31.9006678,20.51793 33.891683,22.3411149 37.2518183,22.2657803 C37.6951928,24.7095927 32.4959364,34.5878385 36.2954901,34.5878385 C37.2518183,34.5878385 40.4012565,33.7001432 43.0086638,28.6203692 C43.4702204,27.7211605 43.7039798,25.8980491 43.7099419,23.1510351 Z" id="Face" fill="#BBFAFF"></path>
                <path d="M33.35539,6.79004333 C34.2266283,8.77890548 36.4885702,10.7863806 40.1412156,12.8124686 C45.6201838,15.8516006 41.6012788,20.8645131 42.9810078,25.0800122 C44.3607367,29.2955112 47.4858689,32.7610487 46.490471,38.0200492 C45.4950732,43.2790498 54.7343844,46.355702 53.1364801,36.2023084 C51.5385757,26.0489148 47.9893843,18.338745 50.1595053,12.3322107 C52.3296262,6.32567632 46.9270413,0.408748911 40.1412156,0.124699317 C33.35539,-0.159350277 32.34792,2.84579291 32.34792,4.01002104 C32.34792,4.78617313 32.6837433,5.71284723 33.35539,6.79004333 Z" id="Hair" fill="#000000"></path>
                <path d="M51.3027861,49.0485451 L51.7947233,51.250095 C46.3327292,55.2529798 42.8521657,57.9667165 41.3530329,59.3913051 C39.8539002,60.8158936 38.8790614,61.6322879 38.4285168,61.8404879 C36.0882893,61.5588661 34.3810777,61.7282953 33.3068821,62.3487756 C31.6955888,63.279496 31.0353558,64.413708 32.7555173,64.053956 C34.4756789,63.694204 34.3714201,65.456106 32.7555173,66.2299039 C31.1396146,67.0037018 28.0526741,69.3729888 30.1843839,69.3729888 C32.3160937,69.3729888 35.5040006,69.6943378 38.4285168,66.8741469 C41.3530329,64.053956 43.2676648,62.165589 46.0159286,60.778447 C48.7641924,59.3913051 55.9843934,55.3378048 57.4481879,53.9263851 C58.3458349,53.0608561 58.4177819,51.052261 57.664029,47.9005996 C55.5512154,47.4300123 53.4308011,47.8126608 51.3027861,49.0485451 Z" id="Hand" fill="#BBFAFF"></path>
            </g>
        </g>
    </g>
</svg>