<svg width="101" height="101" viewBox="0 0 101 101" fill="none" xmlns="http://www.w3.org/2000/svg">
<g clip-path="url(#clip0_1301_3705)">
<rect width="101" height="101" fill="white"/>
<path d="M77.9602 39.1463C78.0011 39.3102 78.1236 39.3922 78.1236 39.556C78.1236 40.1706 78.1645 40.7442 78.0828 41.3997C78.0828 41.5635 78.0419 41.6865 78.0419 41.8503C78.0419 42.301 78.3687 42.7107 78.3278 43.1204C78.3278 43.4072 78.1645 43.694 78.1645 43.9808C78.1645 44.1446 78.1645 44.2675 78.1645 44.4314C78.2053 44.8821 78.287 45.3328 78.3278 45.8244C78.3278 45.9883 78.3687 46.1521 78.4504 46.357C78.4913 46.4799 78.5729 46.5209 78.5729 46.6438C78.5729 46.7667 78.5729 46.8076 78.5729 46.9306C78.5729 47.7909 78.5729 48.6513 78.5729 49.5116C78.5321 49.5526 78.4096 49.5116 78.4504 49.4707C78.4913 49.1429 78.1236 48.8971 77.9194 48.6103C77.7968 48.4464 77.7968 48.1596 77.7968 47.9958C77.756 47.709 77.6743 47.4632 77.5518 47.1764C77.1433 45.9883 76.7348 44.7592 76.2855 43.5711C76.2447 43.4482 76.163 43.3252 76.1222 43.2433C76.163 43.4891 76.163 43.694 76.1222 43.9398C75.7954 43.9808 75.4278 43.8988 75.2235 43.653C75.1827 43.612 75.101 43.4891 75.101 43.3662C75.1418 43.2433 75.2644 43.2433 75.3461 43.2023C75.4686 43.1614 75.5094 43.0794 75.4686 42.9565C75.2235 42.9975 75.0601 42.9975 74.8559 42.9155C74.5291 42.7517 74.2841 42.301 73.8756 42.342C73.7531 42.342 73.6305 42.3829 73.5488 42.4649C73.1404 42.7107 72.6911 42.7926 72.2418 42.9155C72.1192 42.9155 71.9558 42.9565 71.8333 42.9155C71.7108 42.8746 71.5882 42.6697 71.5474 42.5878C71.4248 42.4649 71.3023 42.342 71.1389 42.4239C70.8938 42.4649 70.853 42.9565 70.6079 42.8746C70.5671 42.8746 70.4854 42.8336 70.4445 42.7517C70.322 42.7107 70.1994 42.7517 70.1177 42.7517C69.791 42.7926 69.5459 42.5059 69.3008 42.301C69.0557 42.0142 68.7698 41.6865 68.5656 41.3997C68.443 41.6455 67.9937 41.6455 67.9937 41.8503C67.9937 41.8913 68.0346 42.0142 68.1163 42.0962C68.6473 42.7107 69.2191 43.3662 69.7093 43.9808C69.7501 44.1037 69.8727 44.1446 69.9952 44.2266C70.1177 44.2266 70.1586 44.2266 70.2811 44.2266C70.8121 44.0627 71.0164 43.3662 71.1389 42.8336C71.384 43.0794 71.4657 43.4072 71.4248 43.7349C71.7516 43.7349 72.0375 43.9808 72.1601 44.2675C72.3234 44.1446 72.5685 44.2675 72.6911 44.4314C72.8136 44.5953 72.8136 44.8411 72.8136 45.005C72.8136 45.3328 72.8136 45.7424 72.5685 46.1112C72.446 46.275 72.3234 46.398 72.2826 46.5618C72.2417 46.6847 72.2826 46.8486 72.2418 46.9715C72.1192 47.3812 71.5065 47.4222 71.3431 47.7909C71.5065 47.668 71.5065 47.7909 71.4657 47.9138C71.4248 48.0777 71.3023 48.2006 71.1389 48.3235C70.4445 48.9381 69.7501 49.5936 69.0149 50.2081C68.8515 50.331 68.6064 50.4949 68.443 50.4539C68.198 50.413 68.1571 50.1262 68.1163 49.8804C68.1163 49.6345 68.1163 49.3478 67.9529 49.1839C67.7078 48.9381 67.2585 48.8971 67.2585 48.5693C67.2585 48.3235 67.5444 48.1596 67.5036 47.9548C67.4627 47.8319 67.381 47.7909 67.2585 47.709C66.7275 47.3812 66.2782 46.9715 65.8697 46.5209C65.6246 46.2341 65.4204 45.9473 65.1753 45.6195C64.9303 45.3328 64.726 45.046 64.5626 44.7182C64.4401 44.4724 64.3176 44.2675 64.1542 44.0217C63.8683 43.694 63.4598 43.4072 63.2556 42.9975C63.2964 43.1614 63.2964 43.3252 63.2556 43.5301C62.9696 43.4891 62.6837 43.2843 62.5612 42.9975C62.5203 43.1614 62.602 43.4072 62.7246 43.5301C62.8879 43.653 63.0513 43.7759 63.1739 43.9398C63.3372 44.1856 63.3372 44.3904 63.5006 44.6363C63.664 44.8821 63.9499 44.9231 64.0725 45.2098C64.1133 45.3328 64.0725 45.4557 64.1133 45.5376C64.1542 46.1112 64.8077 46.398 65.0936 46.9306C65.1345 47.0535 65.2162 47.1764 65.1345 47.2583C65.1345 47.3812 65.012 47.5041 64.9711 47.5451C64.9303 47.5861 64.9303 47.8319 64.9711 47.8729C65.012 47.8319 65.0936 47.709 65.1345 47.627C65.7063 47.9548 66.1148 48.4874 66.319 49.061C66.3599 49.2249 66.4416 49.3478 66.4824 49.4707C66.6049 49.6345 66.8092 49.7165 67.0543 49.7574C67.6261 50.0033 68.0754 50.4949 68.198 51.1504C68.2388 51.2733 68.2388 51.4372 68.3614 51.4782C68.4839 51.5191 68.6064 51.4782 68.6881 51.4782C69.505 51.1914 70.2811 50.7407 70.9347 50.0852C71.1797 50.2081 71.2614 50.4949 71.2206 50.6998C71.2206 50.9865 71.0572 51.2324 71.0572 51.4372C71.0164 51.8469 71.0572 52.2566 71.0164 52.6253C70.9755 53.3218 70.567 53.8954 70.1586 54.4689C69.4642 55.4522 68.729 56.4355 68.0346 57.4597C67.912 57.6236 67.7895 57.7465 67.7078 57.9104C67.2993 58.484 66.85 59.0985 66.605 59.754C66.5641 59.8769 66.5641 59.9998 66.5641 60.1637C66.5641 60.2866 66.6866 60.4095 66.6866 60.4915C66.7275 60.7373 66.6866 61.0241 66.6866 61.3109C66.6866 61.5976 66.85 61.8844 67.136 61.8844C66.8909 62.7038 67.1768 63.6051 66.8092 64.3016C66.6458 64.5884 66.4007 64.7523 66.1965 64.9981C65.5021 65.5717 64.8894 66.1043 64.195 66.6779C64.6035 67.2105 64.3584 68.1118 63.7457 68.3986C63.4598 68.5215 63.1739 68.5215 62.9288 68.7263C62.7654 68.8492 62.6837 69.0541 62.6429 69.2999C62.1936 70.4471 61.0498 71.1845 59.8245 71.6761C58.5582 72.2087 57.2511 72.4955 55.944 72.5365C56.2708 71.2664 54.6778 70.2832 54.6778 68.9722C54.6778 68.7263 54.7187 68.4395 54.637 68.2347C54.5961 68.0708 54.3919 67.9069 54.3102 67.784C53.8609 67.3334 53.575 66.7598 53.4933 66.1043C53.4524 65.4898 53.6567 64.7933 54.1877 64.3836C54.3102 64.3426 54.351 64.2197 54.4327 64.1377C54.5553 63.8919 54.4736 63.6871 54.4327 63.4413C54.3919 63.1135 54.2694 62.8267 54.1877 62.458C54.0651 62.0073 53.9017 61.5976 53.9017 61.188C53.289 60.5734 52.7172 59.8769 52.1862 59.0985C52.1453 59.0575 52.0636 58.9346 52.0636 58.8527C52.0228 58.6888 52.1045 58.443 52.1862 58.2791C52.4313 57.7055 52.513 57.091 52.4721 56.4765C52.4313 56.5994 52.1862 56.5174 52.1453 56.4355C52.1045 56.3126 52.0228 56.1487 51.8594 56.1077C51.8186 56.1077 51.7369 56.1077 51.696 56.1077C51.2876 56.1487 50.8791 56.2306 50.5115 56.3535C50.4706 55.6571 49.6946 55.0425 49.041 55.2064C48.796 55.2474 48.51 55.3703 48.3058 55.3293C48.1832 55.2883 48.0607 55.2064 47.979 55.2064C47.7339 55.2064 47.6931 55.4522 47.5297 55.6161C47.3663 55.8619 46.9987 55.9029 46.7128 55.8619C46.4269 55.8209 46.1409 55.698 45.855 55.6161C45.2423 55.4522 44.4662 55.5751 43.9761 55.9029C43.8535 55.9438 43.731 56.0258 43.6493 56.0258C43.6085 56.0258 43.5268 55.9848 43.4859 55.9029C42.9549 55.4932 42.7507 54.7557 42.0972 54.4689C41.9338 54.428 41.8112 54.346 41.6887 54.2231C41.6478 54.1822 41.5661 54.0593 41.5253 53.9773C41.4028 53.6905 41.2394 53.4037 41.1168 53.117C40.8718 52.5434 40.6675 51.8059 40.014 51.642C39.9731 51.642 39.8914 51.6011 39.8506 51.6011C39.8098 51.5601 39.8098 51.4372 39.8506 51.3143C39.8914 51.0685 39.8914 50.8636 39.8506 50.6998C39.8098 50.5359 39.5647 50.2901 39.3196 50.372C40.0548 49.9213 40.4633 48.979 40.2999 48.1187C40.2591 47.8729 40.2999 47.5861 40.4633 47.5861C40.2182 47.4222 40.1365 47.0535 40.1774 46.7257C40.2182 46.4799 40.4224 46.275 40.5041 46.1112C40.9534 45.5376 41.4028 44.964 41.8929 44.3905C42.138 44.1037 42.4239 43.7759 42.7507 43.653C43.0775 43.5301 43.5676 43.4072 43.6493 43.0794C43.7718 43.0385 43.9352 42.9156 43.9352 42.7517C43.9761 42.5878 43.8944 42.4649 43.8944 42.301C43.8535 41.7684 44.4254 41.4816 44.9155 41.3177C45.3648 41.1539 45.9367 40.7851 45.8959 40.2935C46.1409 40.0477 46.4677 40.4164 46.7536 40.5803C47.0804 40.8261 47.5706 40.7442 47.9382 40.5803C48.3466 40.4164 48.6734 40.1706 49.0819 40.0477C49.4086 39.9248 49.8171 39.9248 50.2256 39.9248C51.1242 39.9248 52.0637 39.8838 52.9623 39.8838C52.6763 40.0477 53.2073 40.4574 53.0848 40.7442C52.9623 40.99 52.5538 41.031 52.6355 41.2768C52.6355 41.3177 52.758 41.3997 52.7989 41.4406C53.4116 41.7684 54.1877 42.0142 54.9229 42.0142C54.9229 42.26 54.9637 42.4649 55.0863 42.6288C55.4131 42.5058 55.7807 42.7517 56.1074 42.8746C56.4342 43.0385 56.9652 42.9975 56.9652 42.5878C56.9652 42.4649 56.9244 42.301 56.9244 42.1781C56.9244 41.7684 57.3737 41.6045 57.7413 41.6455C58.0681 41.6865 58.4357 41.9323 58.7625 42.0552C58.8033 42.0552 58.885 42.0552 58.9258 42.0962C59.0484 42.1371 59.0484 42.26 59.0892 42.3829C59.4977 42.0552 60.1921 42.5468 60.6822 42.3829C61.009 42.26 61.2541 41.9323 61.54 41.9323C61.7851 41.9323 61.9893 42.0962 62.2344 42.0962C62.3569 42.0962 62.4795 42.0962 62.5612 42.0552C62.8471 41.8913 62.8879 41.4406 62.8879 41.0719C62.8879 40.4983 62.8879 39.9248 62.8879 39.3512C62.602 39.3512 62.3161 39.3922 62.0302 39.3922C62.0302 39.638 61.6217 39.6789 61.4583 39.5151C61.2132 39.3922 60.9273 39.2283 60.7639 39.3922C60.7639 39.679 60.3555 39.8428 60.1512 39.679C59.9061 39.5151 59.7428 39.2693 59.5794 38.9825C59.416 38.6957 59.1301 38.4089 58.8442 38.1221C59.1301 38.0811 59.3751 37.8763 59.5385 37.6714C59.5794 37.6305 59.6611 37.5076 59.7836 37.4256C59.9062 37.3847 59.947 37.4256 60.0695 37.4256C60.6005 37.4256 60.9273 36.8111 61.4583 36.8111C61.8668 36.8111 62.1527 37.0979 62.5612 37.2617C63.1739 37.5076 63.9499 37.0979 64.1133 36.4424C63.3781 36.1146 62.6429 35.7459 61.9485 35.3362C61.9076 35.3362 61.8259 35.2952 61.8259 35.2952C61.7034 35.1723 61.8259 34.9675 61.9485 34.8445C62.071 34.7216 62.1935 34.5168 61.9893 34.3939C61.4583 34.6397 60.9682 34.8446 60.5188 35.0904C60.3963 35.1313 60.3555 35.2133 60.2329 35.1313C60.1104 35.0904 59.9878 34.8855 59.9062 34.8855C59.7428 34.8446 59.6202 35.0494 59.5794 35.2952C59.5385 35.4591 59.3343 35.7049 59.1709 35.582C59.4568 35.9917 59.416 36.6062 59.0484 36.975C59.2118 37.1388 59.3752 37.3027 59.5794 37.5485C59.4568 37.5485 59.416 37.5485 59.2935 37.5895C59.3343 37.7124 59.1709 37.8763 59.0484 37.8763C59.0075 37.8763 58.9258 37.8353 58.8033 37.8353C58.3948 37.6715 57.9455 37.7124 57.6188 37.9582C57.4962 38.245 57.6596 38.5728 57.9455 38.7776C57.9047 38.8186 57.7821 38.9005 57.7004 38.9415C57.9455 39.1873 57.9864 39.5151 57.823 39.8019C57.4145 39.5151 57.2511 38.9005 56.8427 38.6957C56.5568 38.5728 56.2708 38.4089 56.23 38.1221C56.23 37.9992 56.23 37.8763 56.23 37.7944C56.1891 37.4666 55.7807 37.2208 55.4131 37.1798C55.4539 37.1798 55.5764 37.2208 55.6581 37.2208C55.0863 37.0569 54.5553 36.6472 54.1877 36.1966C54.1468 36.1556 54.0651 36.0327 53.9426 35.9507C53.6975 35.8278 53.4116 35.9098 53.2073 35.9917C53.044 36.4014 53.7792 36.6882 53.7792 37.0979C54.4736 37.5076 55.0863 37.9173 55.7807 38.286C55.7807 38.4089 55.6173 38.4499 55.5356 38.4499C55.5356 38.2041 55.2088 38.1631 55.0863 38.327C55.3722 38.6547 55.2088 39.2283 54.8004 39.4331C54.6778 39.4741 54.5553 39.4331 54.5553 39.3102C54.8412 39.1463 54.8412 38.7367 54.5961 38.4908C54.4327 38.245 54.1468 38.0811 53.8609 37.9582C53.4116 37.6714 52.9623 37.3847 52.5538 36.975C52.2679 36.6882 51.9411 36.3604 51.5735 36.5243C51.4509 36.934 51.0017 37.0979 50.6749 36.975C50.5115 36.934 50.3481 36.7291 50.1439 36.7291C49.8579 36.7291 49.7354 37.1798 49.9805 37.3437C49.3678 37.6714 48.7959 38.0811 48.2649 38.6137C48.3875 38.7367 48.51 38.7776 48.5509 38.9005C48.5917 39.1873 48.3058 39.3512 48.0199 39.4741C47.979 39.5151 47.8973 39.5151 47.7748 39.597C47.4889 39.7199 47.2029 39.8838 46.917 39.8838C46.6719 39.8838 46.4677 39.7609 46.3043 39.8838C46.1818 39.9248 46.0592 40.1296 45.8959 40.0477C45.7733 40.0067 45.7733 39.8019 45.7325 39.7609C45.5691 39.4331 44.9155 39.7609 44.7113 39.4741C44.8747 39.3512 44.9564 39.1463 44.8747 38.9415C44.7522 38.9005 44.7113 38.9005 44.5888 38.8186C45.0381 38.2041 45.324 37.3437 45.324 36.5243C46.1409 36.5653 46.917 36.6472 47.7748 36.6882C47.8156 36.6882 47.8973 36.6882 47.9382 36.6882C48.0607 36.5653 47.9382 36.4014 47.979 36.2785C48.0199 36.1556 48.1424 36.1146 48.2241 35.9917C48.265 35.9507 48.2241 35.8278 48.1832 35.7459C48.0199 35.4181 47.7339 35.0494 47.3255 34.8855C47.3255 34.7626 47.3663 34.7216 47.3663 34.5987C47.5297 34.5987 47.7748 34.5987 47.9382 34.6397C47.8156 34.5168 47.9382 34.3119 48.1015 34.23C48.2649 34.189 48.4283 34.271 48.5509 34.3529C48.7959 34.0661 49.0819 33.9022 49.3678 33.7793C49.6537 33.4516 50.0622 33.2058 50.5115 33.0829C50.634 33.0419 50.7566 33.0419 50.7974 32.919C50.7974 32.878 50.7974 32.7551 50.7974 32.6732C50.8383 32.3864 51.4918 32.6732 51.6552 32.3864C51.6552 32.0586 51.6552 31.6899 51.6552 31.3621C51.9003 31.3621 52.0637 31.4031 52.227 31.526C51.9411 31.6899 51.9411 32.1406 52.227 32.3864C52.513 32.6322 52.9214 32.0996 53.2073 32.2635C53.2482 32.3044 53.3299 32.3864 53.4524 32.3864C53.575 32.3864 53.6975 32.3454 53.7384 32.2225C54.0243 31.9357 54.4736 31.8947 54.8412 32.0586C54.9637 31.9357 55.1271 31.8948 55.2497 31.8948C55.2088 31.567 55.2088 31.1573 55.2497 30.7886C55.413 30.7886 55.5764 30.9115 55.699 31.0754C55.8624 30.9525 55.9849 30.7476 55.9849 30.5018C55.8215 30.5018 55.5764 30.4608 55.4539 30.256C55.6173 30.1331 55.9032 30.1331 56.1483 30.1331C56.3934 30.1331 56.5976 30.1331 56.761 29.9692C56.9244 29.8463 57.0061 29.5185 56.8018 29.3956C56.3934 29.3546 55.9441 29.4366 55.6173 29.7234C55.4539 29.8463 55.168 30.0511 55.0046 29.8463C54.9637 29.8053 54.9637 29.6005 54.8821 29.5595C54.7595 29.3956 54.4736 29.3137 54.4736 29.1088C54.4736 28.9449 54.7187 28.863 54.8004 28.7811C54.9637 28.6582 55.1271 28.4943 55.1271 28.2485C55.1271 28.0026 54.8412 27.8388 54.6778 27.9617C54.5144 28.0846 54.5144 28.3714 54.4327 28.5352C54.3102 28.6991 54.1468 28.822 54.0243 28.9449C53.8609 29.0679 53.7384 29.2727 53.8609 29.4775C54.106 29.4775 54.2694 29.7234 54.2694 29.9282C54.2694 30.174 54.0243 30.3379 53.82 30.3379C53.9426 30.4608 53.9834 30.6247 54.106 30.7476C53.9834 30.9115 53.9426 31.1573 53.82 31.3212C53.6975 31.485 53.5341 31.6489 53.289 31.6489C53.0031 31.608 52.8806 31.3212 52.8397 31.0754C52.7172 30.7476 52.5947 30.4608 52.513 30.0921C52.1045 30.4198 51.6144 30.8295 51.0833 30.6247C50.7566 30.4608 50.634 30.0102 50.7566 29.6005C50.9199 29.2727 51.2876 28.9859 51.6552 28.904C51.8186 28.863 51.982 28.863 52.1045 28.7811C52.227 28.7401 52.3496 28.5352 52.3904 28.4533C52.7172 27.8388 52.9623 27.1423 53.575 26.7736C54.1468 26.4458 54.9638 26.5277 55.5764 26.6506C56.0258 26.7736 56.5568 26.8145 57.0061 26.9374C57.1695 26.9784 57.4145 26.9784 57.5371 27.1013C57.7005 27.2242 57.7821 27.4291 57.6596 27.6339C57.3737 27.5929 57.0469 27.6339 56.761 27.6749C57.0469 27.8388 57.292 28.0026 57.5779 28.2075C57.5371 28.1665 57.5779 28.0846 57.6188 28.0436C57.6596 28.0436 57.7413 28.0436 57.8638 28.0026C58.1906 27.8797 57.8638 27.1423 58.2723 27.0194C58.1089 26.9784 57.9864 26.8555 57.9455 26.6916C58.1906 26.6916 58.354 26.7326 58.5174 26.8555C58.4765 26.9784 58.4765 27.1013 58.3948 27.1833C58.5174 27.3062 58.7216 27.1423 58.8033 26.9374C58.8441 26.7736 58.9667 26.6097 59.0484 26.4048C59.2118 26.4048 59.4568 26.4048 59.6202 26.2819C59.5794 26.159 59.4977 26.0361 59.4977 25.9542C59.6202 25.9542 59.7428 25.9132 59.9062 25.9132C59.7428 25.6264 59.5794 25.3396 59.4977 25.0119C59.6202 25.1348 59.8245 25.1758 60.0287 25.1348C59.9061 24.807 59.5794 24.6022 59.2935 24.3973C59.0075 24.1515 58.7216 23.8238 58.885 23.496C59.1709 23.537 59.4568 23.537 59.7428 23.537C59.7019 23.4141 59.6202 23.2911 59.5794 23.1273C59.7019 22.7995 72.7728 25.7493 77.9602 39.1463Z" fill="#150650"/>
<path d="M70.3625 63.2351C70.3217 63.358 70.1992 63.5219 70.1992 63.6858C70.1992 63.7268 70.24 63.8087 70.24 63.8497C70.24 64.0136 69.9949 64.0955 69.9132 64.1774C69.7907 64.3003 69.7907 64.4642 69.7498 64.6281C69.5048 65.7752 68.7287 66.7175 67.9117 67.5779C67.7892 67.7008 67.7484 67.7418 67.6258 67.8237C67.3808 67.8647 67.1765 67.6598 67.1765 67.414C67.1765 67.2911 67.299 67.1682 67.299 67.0863C67.299 66.9224 67.1765 66.7585 67.1765 66.6356C67.1765 66.5127 67.2991 66.4717 67.4216 66.3898C67.7484 66.103 67.9934 65.6933 67.9934 65.2426C67.9934 64.9968 67.9526 64.792 68.116 64.6281C68.2385 64.3823 68.5653 64.3413 68.647 64.0955C68.6879 64.0545 68.6878 63.9316 68.7695 63.8497C68.8921 63.7268 69.0555 63.8087 69.178 63.7268C69.6273 63.6858 69.6273 62.9893 69.9949 62.7025C70.1175 62.5796 70.2809 62.5796 70.4034 62.4567C70.5259 62.4157 70.5259 62.2928 70.5668 62.1699C70.5668 62.4157 70.5259 62.8664 70.3625 63.2351Z" fill="#150650"/>
<path d="M31.1906 68.4799C31.5991 68.9306 30.7822 67.2918 30.6188 66.6363C30.4962 66.2266 30.4554 65.7759 30.6596 65.4482C30.9864 65.4072 31.354 65.4072 31.7625 65.3252C31.5174 64.7107 31.4766 64.0142 31.5174 63.3177C31.5582 63.031 31.5583 62.7032 31.4766 62.4164C31.354 62.2525 31.1906 62.1296 31.1906 61.8838C31.1906 61.7199 31.354 61.556 31.4766 61.4331C32.2118 60.6137 32.3752 59.3027 31.8033 58.3195C31.5582 57.9917 31.354 57.7049 31.0681 57.4591C30.4962 56.9265 29.8835 56.5578 29.1074 56.3119C29.3934 56.1481 29.2708 55.6974 29.0666 55.4926C28.8215 55.2467 28.4948 55.1648 28.3314 54.878C27.8821 54.919 27.5144 54.7551 27.3102 54.4683C27.3102 54.4273 27.2694 54.3044 27.3102 54.2225C27.3511 54.1815 27.4327 54.1815 27.4736 54.0996C27.7187 53.9767 27.5144 53.567 27.4327 53.3621C27.2694 52.9525 27.3102 52.4608 27.3102 51.9692C27.2694 51.2727 26.8609 50.6582 26.3299 50.2485C26.2073 50.1256 26.0848 50.0846 26.0031 49.9617C25.758 49.6339 26.0031 49.1423 25.8397 48.8145C25.7989 48.7736 25.7172 48.6506 25.7172 48.5687C25.7172 48.4458 25.758 48.4048 25.8397 48.2819C26.0031 47.9542 25.8806 47.4216 25.5946 47.1757C25.5538 47.3396 25.2679 47.2987 25.1862 47.1348C25.1453 46.9709 25.1453 46.807 25.1862 46.6022C25.227 46.1925 25.1862 45.7828 25.0636 45.4141L24.4918 46.2744C24.3284 46.2744 22.3269 58.6472 31.1906 68.4799Z" fill="#150650"/>
<path d="M48.8771 30.0092C48.918 29.9683 48.9997 29.9683 49.0405 30.0092C49.0814 30.0502 49.0405 30.1731 48.918 30.1731C48.7546 30.296 48.5912 30.4189 48.4687 30.4599C48.7137 30.5009 48.918 30.5009 49.1631 30.4599C49.0405 30.7057 48.8771 30.8696 48.6321 31.0745C48.6729 31.1154 48.7954 31.1154 48.8771 31.1154C48.918 31.1154 48.918 31.1564 48.918 31.2383C48.9588 31.3612 49.0405 31.5251 49.0814 31.648C49.1222 31.648 49.1222 31.648 49.2039 31.648C49.2039 31.8938 49.3264 32.0987 49.449 32.2626C49.5715 32.2216 49.7349 32.1397 49.7758 32.2626C49.8166 32.3035 49.8166 32.4264 49.7349 32.5493C49.694 32.5903 49.5715 32.6723 49.449 32.6723C49.449 32.8361 49.449 33 49.3264 33.082C49.2856 33.082 49.2039 33.082 49.1631 33.082C48.918 33.082 48.7137 33.3278 48.4687 33.2049C48.4278 33.2049 48.3053 33.1639 48.2236 33.082C48.1827 33.041 48.0602 33.041 47.9785 33.082C47.9376 33.1229 47.9376 33.2049 47.856 33.2458C47.7334 33.3687 47.57 33.2049 47.4066 33.2868C47.57 33.2458 47.6517 32.8771 47.856 32.959C47.8968 32.959 47.8968 32.959 47.9785 33C48.101 33 48.2236 32.8771 48.3053 32.7542C48.1827 32.7542 48.0602 32.7132 47.8968 32.7132C47.7743 32.7132 47.6517 32.7132 47.6109 32.7542C47.57 32.7132 47.6109 32.6313 47.6109 32.6313L47.7334 32.5903C47.856 32.5493 47.9785 32.4264 47.9785 32.2626C47.9376 32.2216 47.9377 32.1397 47.9377 32.0987C48.101 32.1397 48.2644 32.0987 48.4687 31.9758C48.4278 31.8529 48.4278 31.73 48.4687 31.648C48.4278 31.648 48.4278 31.607 48.3461 31.607C48.3461 31.5661 48.3461 31.4841 48.3461 31.4841C48.1827 31.4841 48.0193 31.607 47.8968 31.73C47.8968 31.5661 48.0193 31.3203 48.1827 31.2793C48.0193 31.2383 47.856 31.2383 47.6517 31.2793C47.7743 31.1564 47.8151 31.1154 47.9377 30.9925C47.8151 30.9515 47.6517 30.8696 47.4883 30.8696C47.5292 30.7467 47.6517 30.7057 47.7743 30.7467C47.7743 30.6238 47.6517 30.5828 47.6109 30.5009C47.57 30.4599 47.3658 30.5418 47.325 30.6238C47.4883 30.4599 47.6517 30.2141 47.8968 30.0912C47.8968 30.1321 47.9377 30.2551 47.9377 30.337C48.101 30.378 48.101 30.2141 48.2644 30.0912C48.5912 30.1321 48.6729 30.1731 48.8771 30.0092Z" fill="#150650"/>
<path d="M47.1616 31.3628C47.2025 31.3218 47.325 31.3218 47.4067 31.3628C47.5293 31.4037 47.5701 31.4857 47.6518 31.6086C47.6518 31.6495 47.6518 31.6495 47.6109 31.7315C47.5701 31.7725 47.5701 31.7315 47.4884 31.7725C47.4475 31.8134 47.4884 31.8954 47.4884 31.9363C47.5292 32.1002 47.5292 32.2641 47.4476 32.387C47.2842 32.5099 47.0391 32.387 46.8757 32.5099C46.8349 32.5509 46.7532 32.6328 46.7123 32.6738C46.5898 32.7148 46.4264 32.7147 46.3856 32.5509C46.3447 32.5099 46.3856 32.387 46.4264 32.387C46.4673 32.346 46.5898 32.346 46.6715 32.346C46.7123 32.346 46.8349 32.3051 46.8349 32.1821C46.7123 32.1821 46.794 32.0183 46.7123 31.9363C46.7123 31.9363 46.6715 31.9363 46.6715 31.8954C46.6306 31.8954 46.6306 31.8544 46.6715 31.7725C46.794 31.6086 46.9574 31.7725 47.1208 31.6495C47.1616 31.5676 47.0391 31.4447 47.1616 31.3628Z" fill="#150650"/>
<path d="M47.4882 23.2082C47.5291 23.2082 47.6108 23.1672 47.6516 23.1672C47.815 23.1672 47.9375 23.3311 48.1009 23.2901C48.2235 23.2901 48.346 23.1672 48.4277 23.1262C48.6728 23.0033 48.877 23.1672 49.1221 23.2491C49.408 23.2901 49.6939 23.2491 49.939 23.372C50.1024 23.495 50.2249 23.7817 50.47 23.6998C50.3066 23.7408 50.0615 23.8227 49.8982 23.8637C49.7756 23.9047 49.7348 23.9866 49.6531 23.9866C49.6122 24.0276 49.5305 24.1095 49.4897 24.1505C49.0404 24.724 48.346 25.1337 47.6516 25.3386C47.6108 25.3386 47.4882 25.3796 47.4065 25.4615C47.3657 25.5025 47.284 25.5844 47.2432 25.6254C47.1206 25.7892 46.9572 25.9531 46.8347 26.158C46.7938 26.1989 46.7121 26.2809 46.6713 26.3219C46.5079 26.3628 46.3445 26.3219 46.1403 26.3219C45.9769 26.3219 45.8135 26.4448 45.6093 26.4857C45.3642 26.5267 45.0783 26.3628 44.8741 26.3628C44.4656 26.3628 44.1797 26.7725 43.8529 26.8954C43.4445 27.0183 42.9543 26.7725 42.5458 27.0183C42.3008 27.1412 42.2191 27.428 41.974 27.5509C41.8106 27.5919 41.6472 27.6738 41.5247 27.7148C41.1162 27.8787 40.912 28.2474 40.5035 28.3294C40.4627 28.1655 40.5035 28.0016 40.6261 27.8787C40.4627 27.8787 40.2993 27.8377 40.1768 27.7148C40.5852 27.5509 40.9937 27.3051 41.1571 26.8954C41.1571 26.8545 41.1979 26.7725 41.1979 26.6496C41.3613 26.3218 41.8106 26.3628 42.0965 26.117C42.3416 25.9531 42.4233 25.5844 42.7092 25.5434C42.8726 25.5025 43.036 25.5434 43.1585 25.5434C43.4445 25.5025 43.6078 25.0928 43.8938 24.9699C44.0163 24.9289 44.1388 24.9289 44.2205 24.8469C44.3431 24.806 44.4656 24.6011 44.5473 24.5602C44.7107 24.4372 44.9558 24.4373 45.1191 24.3963C45.2825 24.3553 45.4051 24.1505 45.5276 23.9866C45.5685 23.8227 45.691 23.6588 45.5685 23.5359C46.222 23.454 46.9164 23.454 47.4882 23.2082Z" fill="#150650"/>
<path d="M38.8699 25.2174C39.4826 24.9307 37.6854 25.832 37.1135 26.2417C36.7868 26.5285 36.4191 26.8153 36.0924 27.143C35.9698 27.2659 35.8473 27.3069 35.7656 27.4298C35.4797 27.6756 35.1529 27.8395 35.1529 28.1672C35.398 27.9214 35.6022 27.7575 35.8881 27.6346C36.0107 27.5937 36.1332 27.5937 36.2149 27.4708C36.3374 27.4298 36.3783 27.3069 36.46 27.184C36.7459 26.8972 37.1952 26.9382 37.4811 26.6514C37.522 26.6104 37.6037 26.4875 37.6445 26.4056C37.8079 26.2417 38.0938 26.2827 38.2572 26.1188C38.3798 26.0778 38.4206 25.8729 38.5431 25.791C38.6657 25.6681 38.8291 25.6271 38.9516 25.6681C38.7065 26.2417 38.2572 26.7743 37.6854 27.0611C37.5628 27.102 37.4403 27.2249 37.4403 27.3479C37.6854 27.184 37.8896 27.102 38.1755 27.0611C38.1347 27.3888 37.7262 27.5117 37.4811 27.7576C37.3177 28.0034 37.2361 28.2901 37.0318 28.454C36.9093 28.495 36.7459 28.5769 36.7051 28.7408C36.7051 28.8637 36.7459 28.9047 36.7051 29.0276C36.6642 29.1505 36.3783 29.1915 36.4191 29.3144C36.5417 29.3554 36.5825 29.5602 36.5417 29.6421C36.5008 29.7651 36.3783 29.806 36.2149 29.888C36.1741 29.888 36.0515 29.9289 36.0515 30.0109C36.0515 30.0518 36.0515 30.1338 36.0515 30.1747C36.0515 30.2977 35.8064 30.3386 35.7247 30.4206C35.7656 30.3796 35.8473 30.2567 35.7247 30.1747C35.4797 30.2157 35.1937 30.3386 34.9895 30.4615C34.9895 30.4206 34.9895 30.3386 34.9895 30.2977C34.9487 30.3386 34.8261 30.2977 34.7036 30.2567C34.581 30.2157 34.5811 30.0928 34.5402 30.0109C34.3768 29.888 34.1318 29.9699 33.9275 30.0518C33.6416 30.2157 33.3557 30.3796 33.1106 30.6664C33.3557 30.5025 33.5599 30.3796 33.8458 30.3386C33.9684 30.4615 33.9684 30.6254 33.8867 30.7483C33.8458 30.8712 33.7233 30.9941 33.6007 31.0351C33.4373 31.158 33.3148 31.2809 33.1923 31.4448C33.1514 31.6087 33.1514 31.8545 33.3148 31.8955C33.0698 32.1823 32.743 32.3461 32.4162 32.3461C32.4162 32.1003 32.5796 31.8955 32.8247 31.8135C32.8247 31.7726 32.8247 31.7726 32.8247 31.6906C32.2937 31.7316 31.681 31.8135 31.4359 32.2642C31.395 32.4281 31.3133 32.592 31.15 32.7149C31.1908 32.6739 31.15 32.551 31.0274 32.551C30.9049 32.551 30.864 32.5919 30.7824 32.6739C30.4556 32.9197 30.088 33.1246 29.8837 33.4933C29.7204 33.7391 29.5978 34.0259 29.3527 34.1078C29.3119 34.1488 29.1893 34.1488 29.1076 34.2307C28.9851 34.3536 28.9443 34.5585 28.8626 34.7633C28.8217 34.9272 28.6175 35.0911 28.4541 35.0091L28.0457 35.2959C28.1273 35.3369 31.7627 28.6998 38.8699 25.2174Z" fill="#150650"/>
<path d="M52.145 76.673C67.5752 76.673 80.0838 64.4752 80.0838 49.4283C80.0838 34.3815 67.5752 22.1836 52.145 22.1836C36.7147 22.1836 24.2061 34.3815 24.2061 49.4283C24.2061 64.4752 36.7147 76.673 52.145 76.673Z" stroke="#150650" stroke-width="0.7065" stroke-miterlimit="10"/>
</g>
<defs>
<clipPath id="clip0_1301_3705">
<rect width="101" height="101" fill="white"/>
</clipPath>
</defs>
</svg>
